<svg xmlns="http://www.w3.org/2000/svg" width="647.82" height="1131.11" viewBox="0 0 647.824 1131.113">
	<path fill-rule="evenodd" d="M337.14 750.44s-44.82-121.98-81.1-181.31c-15.88-27.55-52.84-89.8-79.84-122.92-6.45-10.47-29.6-36.05-36.97-43.35-7.36-7.3-40.2-41.2-48.8-50.94-8.62-9.73-36.26-38.24-41.11-43.83-1.48-1.32-.47-4.32 5.68-7.11s16.97-8.64 38.86 8.7c21.9 17.35 50.9 39.6 57.16 43.48 6.25 3.88 38.97 27.64 46.27-18.8 1.54-10.54 8.35-86.37 8.73-99.34s7.44-33.88-8.67-39.93c-7.28-2.77-32.96-12.46-40.01-16.53-7.06-4.08-29.03-15.61-29.06-37.72-.32-2.48-.19-4.5 6.5-2.77s84.25 23.1 90.06 24.7c5.81 1.6 19.84 2.77 18.8 25.16-1.02 22.38-4.84 112.9-4.84 112.9l19.9-103.07 17.27-109.14s5.09-30.09 29.1-33.54c-.74 14.55-5.32 54.23-6.5 65.3-1.19 11.06-5.36 71.96-6.25 79.52-.9 7.55-5.58 51.48-6.26 57.71-.68 6.24-5.34 38.03-5.34 38.03l21.17-91.6s6.83-36.49 7.82-42.05c1-5.56 2.71-50.08 33.48-55.45 0 4.94-4.02 35.46-4.64 39.96-.62 4.5-4.14 32.98-5.19 39.96-1.04 6.98-17.08 113.78-18.83 121.63 4.16-5.37 27.32-29.77 33.3-39.97 2.1-4 6-8.83 3.95-19.28-2.05-10.45-11.5-46.55-11.5-46.55s-8.08-24.37 11.56-37.77c9.26 27.82 26.71 68.62 28.43 75.24 1.68 4.44 4.23 26.26-8.13 49.62-12.37 23.35-25.63 56.45-27.75 64.3s-6.13 42.07-5.73 59.46 1.26 45.83 13 70.35c11.74 24.53 33.9 58.55 33.9 58.55l60.19 81.78L599.1 869.47l-143.73 215.87s-104.1-311.96-118.23-334.9z"/>
</svg>
