<svg width="250" height="350" viewBox="0 0 500 700" xmlns="http://www.w3.org/2000/svg">
	<title>Tip Me Logo</title>
	<g fill="none" fill-rule="evenodd">
		<g transform="translate(50 490)">
			<ellipse fill-opacity=".18" fill="#A2CEE0" cx="200" cy="90" rx="200" ry="90"/>
			<ellipse stroke-opacity=".46" stroke="#7198A8" stroke-width="5" fill-opacity=".18" fill="#A2CEE0" cx="200" cy="90" rx="200" ry="90"/>
			<path d="M399 100.24C387.8 145.12 303.03 180 200.13 180 89.6 180 0 139.75 0 90.11 0 80.66 3.25 71.55 9.26 63a41.7 41.7 0 0 0-1.25 10.13c0 49.65 89.6 89.9 200.12 89.9 89.5 0 165.27-26.4 190.87-62.79z" fill-opacity=".31" fill="#FFF"/>
			<path d="M392.9 114c4.63-7.6 7.1-15.61 7.1-23.88C400 40.35 310.43 0 199.95 0 91.6 0 3.35 38.81 0 87.26c23.23-38.18 100.82-66.23 192.95-66.23C303.43 21.03 393 61.37 393 111.15c0 .95-.03 1.9-.1 2.85z" fill-opacity=".18" fill="#A2CEE0"/>
		</g>
		<path d="M318.5 289c40.51 0 73.5 33.88 73.5 75.6 0 37.24-22.1 68.18-51.8 105.7L252 569l-88.2-98.7c-22.33-29.95-51.8-63.83-51.8-105.7 0-41.72 32.99-75.6 73.5-75.6 29.35 0 54.56 17.4 66.5 42.7 11.94-25.3 37.15-42.7 66.5-42.7z" fill="#65D0F3"/>
		<path fill="#FAFEFF" d="M272 547l-19.76 22L236 550.55l15.53 2.84z"/>
		<path d="M221.71 534l-8.42-9.78v-29.35l-17.56-20.96-2.81-25.85 6.32-8.38-3.51-10.48-14.75-.7-31.61-16.77-4.92-20.96-7.72-13.27.7-22.36-8.43-13.28L140.24 323h16.86v11.18l8.42 4.2c2.6 2.86 1.92 13.55 2.11 13.27l18.26 7.68 24.59-6.99 6.32 11.18-13.35 25.85 1.4 17.47-13.34-10.48-18.26 6.29 17.56 19.56 13.34.7.7 17.47L247 459.94 221.71 534zM390 386.24a123.14 123.14 0 0 1-7.72 22.76l-12.63-9.96-16.84 2.14-2.81-12.8 9.82-1.42.7-7.12 9.13-1.42 4.91-1.42 15.44 9.24zM384.57 331a77.17 77.17 0 0 1 6.43 19.66h-2.14l-.72 13.34h-11.43L371 335.21l13.57-4.21zm-24.83-29A81.2 81.2 0 0 1 375 315.85L353.5 320l-15.95-1.38-5.55-10.39 21.5-2.77 6.24-3.46zM141 303.9a83.33 83.33 0 0 1 20.21-10.9l2.79 14.32-17.42.68-5.58-4.1zm232 120.12c-8.84 14.72-20.32 29.8-33.4 46.26L326.4 485l3.47-20.33-18.09-17.52-2.78-25.23L327.78 410l5.57 6.3 14.6-4.2L373 424.02z" fill="#53A858"/>
		<path d="M240 313.2a82.12 82.12 0 0 1 11.97 18.43A76.33 76.33 0 0 1 273.8 304l2.12 14.17 14.08 9.91-28.17 9.92-19.72-4.25-2.11-20.54z" fill="#FAFEFF"/>
		<path fill="#53A858" d="M217.94 309l-8.94 8.4 7.56 12.6 14.44-1.4zm-25.2 7L206 330l-12.56 14-17.44-2.1 13.26-10.5-4.19-11.9zm166.16 41l-2.9 15h7.27l.73-10.71z"/>
		<path d="M318.5 289c40.51 0 73.5 33.88 73.5 75.6 0 37.24-22.1 68.18-51.8 105.7L252 569l-88.2-98.7c-22.33-29.95-51.8-63.83-51.8-105.7 0-41.72 32.99-75.6 73.5-75.6 29.35 0 54.56 17.4 66.5 42.7 11.94-25.3 37.15-42.7 66.5-42.7z" stroke-opacity=".77" stroke="#376F8B" stroke-width="5"/>
		<path d="M442 606c-25.3 37.04-101.66 64-192 64-99.7 0-182.37-32.83-198-76-7.55-17.38-13-49.91-13-110V250c0-68.97 8.27-98.93 19-112 25.22-37.01 101.6-64 192-64 94.87 0 174.31 29.72 195 70 9.32 15.72 16 48.46 16 115v223c0 78.64-8.3 110.87-19 124z" fill-opacity=".26" fill="#A2CEE0"/>
		<path d="M39 250v234c0 60.09 5.45 92.62 13 110 15.63 43.17 98.3 76 198 76 6.07 0 12.07-.12 18 0-91.51-4.03-165.29-35.44-180-76-7.55-17.38-13-49.91-13-110V250c0-15.8.43-29.49 1-41-16.46-13.56-26-28.78-26-45 0 0-11 17.03-11 86z" fill-opacity=".31" fill="#FFF"/>
		<path d="M424 261v234c.22 15.8-.2 29.49-1 41 16.59 13.56 26.07 28.78 26 45 .07 0 11-17.03 11-86V261c0-51.75-4.02-83.07-10-102-.04 1.67.06 12.87 0 15 .06 17.44-9.65 34.24-27 49 .92 11.08 1.22 23.78 1 38z" fill-opacity=".06" fill="#7198A8"/>
		<path d="M41 194c19.75 45.13 102.8 79 202 79 114.44 0 207-44.63 207-100 0-1.34-.08-2.99 0-5-5.52 47.93-93.03 85.77-200 86-110.8-.23-200.44-40.5-200-90-.44-29.52 30.85-55.58 79-72-33.27 11.37-58.58 27.37-71 46-7.53 8.66-13.75 25.12-17 56z" fill-opacity=".41" fill="#FFF"/>
		<ellipse fill-opacity=".18" fill="#A2CEE0" cx="250" cy="164" rx="200" ry="90"/>
		<path d="M442 606c-25.3 37.04-101.66 64-192 64-99.7 0-182.37-32.83-198-76-7.55-17.38-13-49.91-13-110V250c0-68.97 8.27-98.93 19-112 25.22-37.01 101.6-64 192-64 94.87 0 174.31 29.72 195 70 9.32 15.72 16 48.46 16 115v223c0 78.64-8.3 110.87-19 124z" stroke-opacity=".73" stroke="#79A1B1" stroke-width="5"/>
		<path d="M68.58 154.52c0 44.49 78.66 81.48 182.2 81.48C354.34 236 434 199.01 434 154.52c0-1.86-.15-3.7-.43-5.52-6.57 42-83.55 75.97-182.78 75.97-99.24 0-180.22-33.98-186.79-75.97 0 0 4.58 3.66 4.58 5.52z" fill-opacity=".75" fill="#49697A"/>
		<path d="M64 146.54C64 191.02 147.58 228 251 228s187-36.98 187-81.46v-30.08C438 71.98 354.42 35 251 35S64 71.98 64 116.46v30.08z" fill="#CF2F2F"/>
		<path d="M438 124v21.67c0 44.4-83.58 81.33-187 81.33S64 190.08 64 145.67V124c9.75 40.59 89.62 72.97 187 72.97S428.25 164.59 438 124z" fill="#B52A2A"/>
		<path d="M64 116.5C64 72 147.58 35 251 35s187 37 187 81.5S354.42 198 251 198 64 161 64 116.5z" stroke="#A32121" stroke-width="5"/>
		<path d="M91 112c0-37.13 70.84-68 158.5-68S408 74.87 408 112c0 37.13-70.84 68-158.5 68S91 149.13 91 112z" fill-opacity=".11" fill="#FF8181"/>
		<path d="M64 146.54C64 191.02 147.58 228 251 228s187-36.98 187-81.46v-30.08C438 71.98 354.42 35 251 35S64 71.98 64 116.46v30.08z" stroke="#961E1E" stroke-width="5"/>
		<path d="M312.9 108c2 1.28 3.02 4.22 1 7.17-2.63 4.32-8.35 7.83-12.76 7.83h-103.9a4.26 4.26 0 0 1-4.24-3.55c.66.4 1.43.61 2.23.61h103.91c4.41 0 10.13-3.5 12.76-7.83a5.48 5.48 0 0 0 1-4.23z" fill-opacity=".55" fill="#D89494"/>
		<path d="M203.82 103h103.85c3.23 0 5.92 4 3.23 8-2.63 4.42-8.35 8-12.75 8H194.3c-3.23 0-5.85-3.6-3.23-8 2.63-4.42 8.35-8 12.75-8z" fill-opacity=".8" fill="#672020"/>
	</g>
</svg>
