<svg xmlns="http://www.w3.org/2000/svg" xmlns:xlink="http://www.w3.org/1999/xlink" viewBox="0 0 479.93 539.16"><defs><style>.cls-1{isolation:isolate;}.cls-2{fill:#4bbcb4;}.cls-3{fill:#64b127;}.cls-4{opacity:0.5;mix-blend-mode:multiply;fill:url(#Unbenannter_Verlauf_401);}.cls-5{mix-blend-mode:overlay;fill:url(#Unbenannter_Verlauf_314);}.cls-6,.cls-7,.cls-8,.cls-9{fill:#f7931e;}.cls-7{opacity:0.49;}.cls-8{opacity:0.24;}.cls-9{opacity:0.37;}</style><radialGradient id="Unbenannter_Verlauf_401" cx="331.97" cy="433.19" r="571.29" gradientUnits="userSpaceOnUse"><stop offset="0" stop-opacity="0.9"/><stop offset="1" stop-color="#fff" stop-opacity="0"/></radialGradient><radialGradient id="Unbenannter_Verlauf_314" cx="-45.03" cy="21.19" r="307.2" gradientUnits="userSpaceOnUse"><stop offset="0" stop-color="#fff" stop-opacity="0.9"/><stop offset="0.62" stop-color="#fff" stop-opacity="0.33"/><stop offset="1" stop-color="#fff" stop-opacity="0"/></radialGradient></defs><title>100% direkte Münze</title><g class="cls-1"><g id="Ebene_1" data-name="Ebene 1"><circle class="cls-2" cx="239.97" cy="299.19" r="239.97"/><path class="cls-3" d="M483.71,447.3c-10.13,6.61-25.5,21-33,7.5s-12.7-21.72-24-7.5-10.5,93,0,96,18.82-6,24.41,21,31.09,94.5,49.09,93,12-25.5,19.5-36,10.9-13.08,6.4-35.58c-3.72-18.6,36.31-42.58,33.31-59.08s-17.22,25.67-38.22-14.83S497.51,438.3,483.71,447.3Z" transform="translate(-413.03 -196.33)"/><path class="cls-3" d="M490.21,400.81c11.51-7.5,47.5,1.5,34,9s-28.41-11.13-39.6,15.41c-6.7,15.89,20.72-2.6,17.1,14.65s8.68,8.76,14.09,40.35,26.41,42.09,38.41,31.59,37.5-37.5,24-37.5-39-12.38-31.5-17.44,37.5,21.94,51,14.44a22,22,0,0,1,31.5,10.41c4.5,10.59,6.72,45.09,34.86,42.09s-16.86-18,19.14-27,18-20.55,30-8.77-5.42,24.68,13.91,15.68c1.82-.85,8.67,27.33,7.5,33.67,3.67,1,9.67,25.67,18.5,22.33,1.77-1.27-2.7-17.45-6.5-18.83-8.62-3.14-10.27-28.82-5.17-24,11.83,11.17,14.67,9.5,15.17,16,23.33-12.17,13.5-27.7,3.42-35.68s17.67-18.57,28.17-15.48,21-20.91,16.5-29.91-25.08-44.14-18.58-47.86,24.16,25.46,28.08,25.37-4.58-23.8-5.58-29.59,23.08-21.4,12.58-33.4-15-21-24-25.5-10.5-21-1.5-18,21.21,1.5,28.6,16.5,15.37,32.93,17.89,33-5.37-31-22-46.28c-30.54-28-72.49-57.21-101-58.71s-51.55-5.83-77.59-6.1c-18.5-.2-39.41,10.6-36.41,16.6s-16.09-.1-16.09-0.1-18.41,9.1-12.41,13.6-19.72,1.51-10.61-7.5-24.33,1.51-15.11,12-19.28,15-19.28,15-13.5,21-19.5,13.5,26.26-5.16,4.83-12.13-44.84,36.43-51.64,43.48-8.79,14.05-7.29,14.55,6.5-8.5,6-3,4.5,6,6.5,1,3.5-12.5,6-13.5-1.5-5,3-10,15.68-16,13.59-11-11.09,10-10.09,14,4,4.5,4,4.5a23.22,23.22,0,0,0-6.5,8.5c-2,5-10,14.5-14.5,15.5s-1-7.5-5-5-6.5,6-6,9.5-7,6-8,10.5,0-13.5,2.5-16.5-14.5,19.5-14,27,8.5-12.5,8-5-9.5,8-7.5,12.5,2,8-.51,10.5-6,.5-8,8-7.66,17.36-3,17,11.5-11,12.5-16,5.5-12.5,6.5-11,2-5.5,5-4.5,2.5,8.5,6,8,7,6.5,3,9-8.5,5-3,5.5,6-4.5,7-8.5,4-5.5,4.5-4.5-10-7-9-12,9,2.5,9.5,6,2,17.5,6,19.5,7-7,5.5-10,1-14,3-7.5,7-6,6.5-12S490.21,400.81,490.21,400.81Z" transform="translate(-413.03 -196.33)"/><path class="cls-3" d="M554.12,390.64c4,0.76,3-12.43-4-6.43s-13,3-11.5,9.5,8.82,12,8.16,18.5-1.66,11.5,6.34,12.5,14,1.5,8.76-7.5-5.75-15-9.26-20S551.12,390.07,554.12,390.64Z" transform="translate(-413.03 -196.33)"/><path class="cls-3" d="M841.62,382.64c-4.35-5.19,6,11.57-5,4.57s-7-3.57-6.5,3,9,25,5.24,29-13.24,5-14.74,10.5,3,20,5,18.5-2-9.5,3-11.5,10.5-5.55,13.38-9-3.88-22.48-5.88-27.48S851.62,394.57,841.62,382.64Z" transform="translate(-413.03 -196.33)"/><path class="cls-3" d="M551.12,605.21c-2,7,.5,12-8.5,11s1,4.5,0,9.5-8.5,17-.5,16.5,11.5,4.5,14-9.5,6-23.5,0-27.5S551.12,605.21,551.12,605.21Z" transform="translate(-413.03 -196.33)"/><path class="cls-3" d="M768.62,642.68c-2.26,9.82,3,20-2.5,26s3.5,5.5,17-2.5,25-15.79,26-8.89,4.94,12.87,18.5,0,27.5-31.61,25-54.61-1.28-14.5-7.89-2.5-10.11,6-8.61,1,6.81-8.5-3.6-8-8.51,5.94-12.2,10.22-5.2-.78-8.2,0-5.5,11.28-9,12.28-5,4.19-8,7.35S771.62,629.66,768.62,642.68Z" transform="translate(-413.03 -196.33)"/><path class="cls-3" d="M746.12,562.21c-1.24-3-11.5-15-21-17s0.5,8,4.5,11.5,13.5,14.5,13.5,18.5,4,11,9.5,9.5,12-6,8.5-11.5S750.12,571.71,746.12,562.21Z" transform="translate(-413.03 -196.33)"/><path class="cls-3" d="M790.12,540.71c-6.74,10-7.5,21.5-14,19.5s-9,5.5-4,11.5,8,7,12.5,5.5,8.5-5.05,9.5-12.28,5-5.66,5-5.66-3-7.56,0-12.56S794.27,534.56,790.12,540.71Z" transform="translate(-413.03 -196.33)"/><path class="cls-3" d="M808.69,495.53c0.51-7-3.42,12.68,0,20.18s9.42,11,3.92,16.5,4.9,12,7.7,8.5,6.2-9,0-19.5S808.27,501.34,808.69,495.53Z" transform="translate(-413.03 -196.33)"/><path class="cls-3" d="M862.62,581.71c1.5-2.17-1.85-13.86-6.5-16.66s-12.5-6.34-15-3.34,2-4.76-5-3.63-6.19,10.39-3.6,11.76,5.6-5.37,8.6,0-2.26,10.37,3.62,11.87,10.88-4.26,13.38-3.88S861.12,583.88,862.62,581.71Z" transform="translate(-413.03 -196.33)"/><path class="cls-3" d="M766.28,586.38c-1.17-1.07-5.17-3.75-7.33-1.46s-1.67,9.63,4.67,8,15.67-1.17,18.83-.83,17.67,1.47,22.5-.76,6.82-2.58,2.33,1.84,1.67,3.42,6.51-.91,7.83-7.09,8-7.29-9.34.29-14.51,2.13-21.16,4.17-23.66,2.17-6.17-4.75-9.33-4.29S768.28,588.21,766.28,586.38Z" transform="translate(-413.03 -196.33)"/><path class="cls-3" d="M817.12,554.71c-4.54,2.27-10.33-1.15-13.17,3.26s-8.67,10.58-5.67,16.58,4.5,10.91,5.5,3.29,0.83,2.38,3.5,1.38,5.83-2.17,3.17-6.83-3.67-5.5-.17-5.83,6,3.17,7.83,5.5,13.17,2.33,11.67-.83,0-5.82-3.83-3-2.33,5.91-5.67,1.87-7.33-10.21-10.5-7.21-7.17,2.5-5.83.17,6.58-4.72,10.12-3.53S821.12,552.71,817.12,554.71Z" transform="translate(-413.03 -196.33)"/><path class="cls-3" d="M827.12,556c-0.08-2.88,1-8-1.83-3.5s-2.33,12.39-2.33,12.39S827.2,558.89,827.12,556Z" transform="translate(-413.03 -196.33)"/><circle class="cls-4" cx="239.97" cy="299.19" r="239.97"/><circle class="cls-5" cx="239.97" cy="299.19" r="239.97"/><circle class="cls-6" cx="383.68" cy="181.26" r="14.06"/><circle class="cls-7" cx="383.11" cy="173.16" r="14.06"/><circle class="cls-8" cx="382.07" cy="164.31" r="14.06"/><path class="cls-9" d="M781.33,372.5C777.47,300.77,732.2,224.75,642,225c-74,.21-146,74.5-150.89,156.49,0-98.49,82.35-184.88,164-185.16,99.51-.33,151.83,78.24,156.09,173" transform="translate(-413.03 -196.33)"/></g></g></svg>