<svg xmlns="http://www.w3.org/2000/svg" xmlns:xlink="http://www.w3.org/1999/xlink" viewBox="0 0 526.11 426.12"><defs><style>.cls-1{isolation:isolate;}.cls-2{fill:#f2f2f2;}.cls-3,.cls-5,.cls-6{mix-blend-mode:multiply;}.cls-3{fill:url(#Unbenannter_Verlauf_257);}.cls-4{fill:#6d4621;}.cls-5{fill:url(#Unbenannter_Verlauf_259);}.cls-6{fill:url(#Unbenannter_Verlauf_259-2);}.cls-7{fill:#c79a50;}</style><linearGradient id="Unbenannter_Verlauf_257" x1="627.91" y1="422.53" x2="700.56" y2="189.4" gradientUnits="userSpaceOnUse"><stop offset="0"/><stop offset="1" stop-color="#fff" stop-opacity="0"/></linearGradient><linearGradient id="Unbenannter_Verlauf_259" x1="567.21" y1="271.81" x2="535.91" y2="313.06" gradientUnits="userSpaceOnUse"><stop offset="0" stop-color="#42210b"/><stop offset="1" stop-color="#fff" stop-opacity="0"/></linearGradient><linearGradient id="Unbenannter_Verlauf_259-2" x1="648.82" y1="358.11" x2="668.75" y2="294.15" xlink:href="#Unbenannter_Verlauf_259"/></defs><title>Baumwolle_ernten</title><g class="cls-1"><g id="Ebene_1" data-name="Ebene 1"><path class="cls-2" d="M606.56,283.7c-1.12-3-25.08-28.69-11.58-53.11S639.75,209,648.1,219c-5.77-16-10.43-27.15,8.87-36.76s23.55-2.43,33,3.16c1.41-8.54,21.12-26,40.22-15.28s16.24,30.21,9.22,37.64c9.5,1.92,26.52,7.18,28.09,25.33S756,267.84,745.56,267.61c7.08,6.52,27,23.83,2.89,53.17s-48.89,20-48.89,20a83.79,83.79,0,0,1-50-7.2C624.08,321.06,613.28,301.47,606.56,283.7Z" transform="translate(-395 -166.75)"/><path class="cls-3" d="M606.56,283.7c-1.12-3-25.08-28.69-11.58-53.11S639.75,209,648.1,219c-5.77-16-10.43-27.15,8.87-36.76s23.55-2.43,33,3.16c1.41-8.54,21.12-26,40.22-15.28s16.24,30.21,9.22,37.64c9.5,1.92,26.52,7.18,28.09,25.33S756,267.84,745.56,267.61c7.08,6.52,27,23.83,2.89,53.17s-48.89,20-48.89,20a83.79,83.79,0,0,1-50-7.2C624.08,321.06,613.28,301.47,606.56,283.7Z" transform="translate(-395 -166.75)"/><path class="cls-4" d="M734.83,316.12c-11.52,7.78-24.66,18.36-36.57,20.08-8.17,1.19-16.85,2.75-23.63,3-3.52.12-5-4.35-2.46-7.41,8.13-9.8,22-26.67,22.08-34.88-9.52,11-30.08,39.38-43.8,32.59S652.62,275,652.62,275s-16,28-15.9,47.75c0,5.86-18.6-22.2-22.74-33.13S608,255.1,608,255.1c-10,28.71-.75,61.82,30.16,81.23,0,0,5.62,27.69-8.42,38.23s-114.64-94.44-184.29-91.1-64.92,6,0,10.53,172.58,99.29,187.8,97,18.58-47.68,18.58-47.68C686.7,356.5,723.79,337.05,734.83,316.12Z" transform="translate(-395 -166.75)"/><path class="cls-5" d="M638.19,336.33s5.62,27.69-8.42,38.23-114.64-94.44-184.29-91.1-64.92,6,0,10.53,172.58,99.29,187.8,97,18.58-47.68,18.58-47.68Z" transform="translate(-395 -166.75)"/><path class="cls-6" d="M638.19,336.33c-30.9-19.41-40.11-52.52-30.16-81.23,0,0,1.81,23.55,5.94,34.48s22.77,39,22.74,33.13C636.61,303,652.62,275,652.62,275s-15.9,47.75-2.18,54.54,34.28-21.57,43.8-32.59c-0.12,8.21-13.94,25.08-22.08,34.88-2.54,3.06-1.06,7.54,2.46,7.41,6.79-.24,15.46-1.81,23.63-3,11.91-1.73,25-12.31,36.57-20.08-11,20.93-48.13,40.39-83,27.14Z" transform="translate(-395 -166.75)"/><path class="cls-7" d="M668.61,337.39c-8.17,3.76-13.39,9.43-7,22.83s41,59.28,36.21,65.92-10,13.13-15.24,11.9-17-4.59-22.22-10.44-21.48-25.09-22.72-29.09-7.45-25.58-7.46-28.66,9-38.1.22-41-14.81-1.82-17.41,7.59-6.72,32.7-7,39.79,0.53,31,2.54,34.22,26.45,41.11,26.45,41.11l-4.16.16s-26.6-37.57-26.92-45.89,0.38-38.39,1.61-42.1,2.6-12.49,2.6-12.49-6,5.72-8.3,12.66-11.94,42.27-9.46,47.2,36.65,53.74,36.65,53.74S640.71,494.56,678.5,503s118.91,17,241.17,89.86c3.6,2.15-.7-71.4-0.7-71.4S803.8,475.11,793.29,465s-12.55-30.35-28.76-38.8-24.08-12.59-31-18S677.69,333.21,668.61,337.39Z" transform="translate(-395 -166.75)"/></g></g></svg>