<svg id="Ebene_1" data-name="Ebene 1" xmlns="http://www.w3.org/2000/svg" viewBox="0 0 511.98 91.64"><defs><style>.cls-1{fill:#fff;}</style></defs><title>Die Zeit</title><path class="cls-1" d="M385.26,446V354.4h512V446h-512Zm277.57-17.68c0.24-.59.49-1.12,0.67-1.68,0.71-2.26.84-4.35-1.34-6-0.36-.28-0.13-1.42,0-2.13a1.42,1.42,0,0,1,1-.31c1.2,0.1,2.39.37,3.59,0.44a3.44,3.44,0,0,0,3.14-1.64c1.58-2.29,1.41-4.62.21-7a26.2,26.2,0,0,0-4.32-5.65,7.68,7.68,0,0,1-2.07-5.69,5.12,5.12,0,0,0,1.77-.94,8.55,8.55,0,0,0,2-5.67c-0.1-1.25-.6-1.65-1.77-1.14-1,.43-1.84,1.24-2.85,1.61-1.39.5-1.56,1.5-1.57,2.71,0,1,0,2-.09,2.93a9.46,9.46,0,0,0,1.92,7c1.15,1.37,2.18,2.84,3.27,4.26a6.88,6.88,0,0,1,1.55,4.75,1.76,1.76,0,0,1-1.48,1.69,1.43,1.43,0,0,1-1.93-.65,35.65,35.65,0,0,1-1.67-3.57,17.66,17.66,0,0,0-2.38-5,11.86,11.86,0,0,1-2.43-6.5c-0.13-2.51-.22-5-0.36-7.53a12.86,12.86,0,0,0-.38-3.27c-0.49-1.49-.52-3-1.29-4.55s-1.46-2.88-3.18-3.45a1.4,1.4,0,0,1-.38-0.34c2-.83,2.28-1.3,1.59-2.79,0.44-.41.91-0.79,1.3-1.23a3.08,3.08,0,0,0-.72-4.89,2.66,2.66,0,0,1-1-1,1.5,1.5,0,0,0-2-.88,1.4,1.4,0,0,1-1.14-.35c-1.54-1.77-2.81-2-4.93-1a7.21,7.21,0,0,1-1.82.77c-2.27.41-3.1,2.25-3.91,4-0.35.75-.58,1.14-1.39,1a4.56,4.56,0,0,0-4.44,1.91,6.44,6.44,0,0,0-.5.89,1.4,1.4,0,0,1-.45-0.85c-0.12-1.65-.13-3.32-0.37-5-0.21-1.48-.91-1.76-2.27-1.13a13.28,13.28,0,0,0-4,2.77,3.53,3.53,0,0,0-1.38,2.58,2.4,2.4,0,0,1-.25.95c-0.81,1.84-1.88,3.67,0,5.53-0.76,1-1.51,1.76-2.8,1a1.79,1.79,0,0,1-.77-2.44c1.42,0.18,2.18-.34,2-1.83a0.9,0.9,0,0,1,.06-0.38,7.4,7.4,0,0,0-.76-6.88c-0.64-1-1.34-1.87-2-2.83s-1.18-.88-1.79-0.07-1.28,1.78-1.9,2.69a7.34,7.34,0,0,0-1.53,2.42,19.38,19.38,0,0,0,0,4.39,4.24,4.24,0,0,0,.54,1.69,1.46,1.46,0,0,0,.93.76c1,0,1.12.7,0.8,1.27a3.06,3.06,0,0,1-1.6,1.45,2.08,2.08,0,0,1-2.32-1.25,2,2,0,0,0,.83-2.68c-0.14-.36.15-0.87,0-1.25-0.46-1.59-1-3.17-1.54-4.72a2.34,2.34,0,0,0-.87-0.45,4,4,0,0,1-.72-0.57c-0.49-.49-0.93-1-1.44-1.48s-0.94-.56-1.36-0.91c-1.06-.87-1.51-0.79-1.81.57-0.34,1.55-1.09,3-.67,4.74a5.11,5.11,0,0,1-.26,1.73c-1.07-.84-2-1.54-2.86-2.23a1.36,1.36,0,0,0-.75-0.4c-1.57.21-2.05-.89-2.73-2-1.7-2.75-3.82-4.77-7.49-4.55-2.14.13-3.47,1.83-5.42,2.17a2.93,2.93,0,0,0-.43.6,12.52,12.52,0,0,1-1.23.87,3.75,3.75,0,0,0-1.4.89c-0.75,1.59.54,4.08,2.3,4.64l0.72-1c0.63,0.8.45,1.47-.32,1.76a1.5,1.5,0,0,0-.9.72A2.51,2.51,0,0,0,586,380a12.24,12.24,0,0,0,1.61,1.25,4.86,4.86,0,0,1-.77.26,2.93,2.93,0,0,0-3,2.3c-0.45,1.39-1.81,2.5-1.23,4.21a0.9,0.9,0,0,1-.1.23,33.23,33.23,0,0,0-.69,3.85c-0.15,2.16-.1,4.34-0.17,6.51a11.78,11.78,0,0,1-2,6.24c-1.27,1.93-2.81,3.72-3.28,6.13a12.72,12.72,0,0,1-1.36,3.41,1.82,1.82,0,0,1-2.35.74,1.56,1.56,0,0,1-1.21-1.85,10.59,10.59,0,0,1,1-3.48c0.88-1.55,2.09-2.9,3.12-4.36,1.6-2.27,3.3-4.52,2.79-7.57a9.53,9.53,0,0,1-.28-1.76c0.05-1.95-.11-3.78-2.18-4.7a14.38,14.38,0,0,0-2.86-1,1.35,1.35,0,0,0-1,.82,6.48,6.48,0,0,0,2,6c1.7,1.56,2.06,2.43.87,4.47-0.64,1.09-1.58,2-2.29,3.07a46.6,46.6,0,0,0-4,6.46c-1,2.22-.06,4.36,1.7,6a4.45,4.45,0,0,0,5.29.94c0.56-.26,1.29-0.47,1.59.42s0.39,1.58-.56,2.1a1.6,1.6,0,0,0-.8.8c-0.48,2-1,4,.27,5.93a3.52,3.52,0,0,1,.25,1,1.8,1.8,0,0,1-2-1.55c-0.15-.53-0.19-1.1-0.38-1.61-0.36-.92-2.49-2-3.09-1.52-0.95.78,0,1.53,0.33,2.21s0.24,1.14-.69,1.24a10.28,10.28,0,0,0-1.9.6c2.19,2.36,2.8,2.53,4.78,1.51-0.23,1.56-.23,1.58,1.5,2a21.69,21.69,0,0,0,2.64.44c2.1,0.19,4.21.31,6.32,0.46l-0.84,2c1.93,0,3.55.07,5.16,0a3.94,3.94,0,0,0,3.07-1.83,2.4,2.4,0,0,1,1.23-.94c1.77-.44,3.57-0.77,5.47-1.16a3.39,3.39,0,0,1-.14.5c-0.09.18-.21,0.35-0.4,0.66,2.64,1.19,5.05.86,7.65-.64l-2,2.59a22.27,22.27,0,0,1,2.91.5,3.11,3.11,0,0,0,3.32-.51,4.78,4.78,0,0,1,1.35-.59c0.51,2,.57,2.11,2.52,2.06a17.84,17.84,0,0,0,2.1-.36,1.2,1.2,0,0,1,.8,0,1.42,1.42,0,0,0,2-.2c1.32-1.06,1.58-1,3,.08a2.75,2.75,0,0,0,1.47.32,8.26,8.26,0,0,1,1.84-.09c2.29,0.68,3.2.35,4.17-1.74,1.81,1.53,3.89,1.56,6,1a6.22,6.22,0,0,0,1.4-.75c-0.29-.43-0.56-0.88-0.88-1.29a3.9,3.9,0,0,0-.62-0.53c1.83,1.13,3.82.77,5.74,0.62a5.27,5.27,0,0,0,1.74-.89l-0.12-.47c1.75,0.28,3.5.55,5.24,0.87a1.57,1.57,0,0,1,.63.56,6.8,6.8,0,0,0,5.14,2.2c1.09,0,2.18,0,3.44,0l-0.7-1.83c0.42,0,.74,0,1.06.09a3.85,3.85,0,0,0,1.19.23c2.21-.43,4.42-0.92,6.62-1.42,1-.22,1.92-0.49,1.21-2,2.18,1.11,3.52.83,4.7-1L668,427l1-3.21c-2.5-.12-3.73.8-4,2.92C664.75,428,664.22,428.57,662.83,428.37ZM413.22,365.69v0.22c-5.25,0-10.49,0-15.74,0a2.6,2.6,0,0,0-1,.61,3,3,0,0,0,.79,1.07c0.85,0.38,1.79.55,2.66,0.87a5.83,5.83,0,0,1,4,5.52c0,0.55.07,1.11,0.07,1.66,0,16.59,0,33.18,0,49.77,0,5.29-.85,6.21-6,7.59-0.57.15-1.24,0.23-1.15,1.08s0.85,0.65,1.38.65q12.67,0,25.33,0a54.22,54.22,0,0,0,15.15-2.06c8.33-2.43,15.52-6.61,20.57-13.87,9.54-13.7,6.55-33.24-6.63-44.16-6.37-5.28-13.91-7.47-21.92-8.19C424.91,366,419.06,365.94,413.22,365.69ZM552,365.86h-5.34l-40.44,0a3,3,0,0,0-1,0,1.3,1.3,0,0,0-.81.67,1.19,1.19,0,0,0,.59.92,15.23,15.23,0,0,0,2,.54,4.74,4.74,0,0,1,3.76,4.59c0.06,1.11.16,2.21,0.16,3.32q0,24.38,0,48.75c0,1.19-.09,2.38-0.19,3.57a4.5,4.5,0,0,1-3.24,4.17c-0.8.28-1.66,0.43-2.43,0.76a1.17,1.17,0,0,0-.61.89,1.75,1.75,0,0,0,.83.64,0.84,0.84,0,0,0,.38,0q23.73,0.13,47.47.27a1.09,1.09,0,0,0,1.16-.87c2.26-5.19,4.57-10.36,6.81-15.56,0.26-.6,1.31-1.33.32-2s-1.34.58-1.76,1.15c-3.74,5.12-8.37,9.06-14.45,11.13-4.91,1.68-10,2.06-15.12,2.21-2,.05-4,0-6,0V401.7c3,0,5.88-.09,8.76,0a41,41,0,0,1,6.84.72c4.17,0.89,7.15,3.6,9.73,6.86a3.49,3.49,0,0,0,1.45.58,4.09,4.09,0,0,0-.1-1.36c-1.16-2.61-2.35-5.2-3.6-7.77a2.08,2.08,0,0,1,0-2c1.28-2.69,2.51-5.41,3.71-8.14a2.41,2.41,0,0,0-.12-1.08,3.44,3.44,0,0,0-1.12.29,4.53,4.53,0,0,0-.81,1c-3,3.71-6.68,6.27-11.51,6.65-3.73.29-7.49,0.22-11.24,0.31-0.67,0-1.33,0-2,0V369.66c0.48,0,.9-0.07,1.32-0.06,3.28,0.13,6.57.13,9.83,0.45a27.34,27.34,0,0,1,16.32,6.88c2.44,2.24,4.62,4.78,6.95,7.14a3.17,3.17,0,0,0,1.18.44,3.08,3.08,0,0,0,0-1.22c-0.68-1.56-1.48-3.07-2.16-4.63C555.66,374.37,553.84,370.06,552,365.86Zm204.72,65.28V401.73c3.61,0,7.14,0,10.67,0a17.25,17.25,0,0,1,14.15,7,2.74,2.74,0,0,0,.65.78,6.37,6.37,0,0,0,1.3.41,3.27,3.27,0,0,0,0-1.24c-1.2-2.68-2.49-5.33-3.66-8a2.45,2.45,0,0,1,0-1.75c1.2-2.78,2.5-5.5,3.73-8.27a2.48,2.48,0,0,0-.1-1.09,3.35,3.35,0,0,0-1.13.27,4.5,4.5,0,0,0-.81,1c-2.45,3-5.37,5.41-9.25,6.25a35.69,35.69,0,0,1-6.21.68c-3.09.11-6.19,0-9.34,0V369.66c0.48,0,.89-0.07,1.31-0.06,3.28,0.13,6.57.14,9.83,0.45a27.34,27.34,0,0,1,16.33,6.87c2.44,2.24,4.62,4.77,7,7.14a3.29,3.29,0,0,0,1.17.46,3,3,0,0,0,.06-1.22c-0.68-1.56-1.48-3.07-2.16-4.63-1.87-4.29-3.69-8.61-5.49-12.82h-5.32l-40.31,0a3.17,3.17,0,0,0-1,0,5,5,0,0,0-1,.65,3.53,3.53,0,0,0,.87,1,11.54,11.54,0,0,0,1.84.51,4.69,4.69,0,0,1,3.66,4.53c0.07,1.06.16,2.13,0.16,3.19q0,24.57,0,49.14a34,34,0,0,1-.22,3.57,4.27,4.27,0,0,1-2.84,3.77c-0.91.35-1.88,0.54-2.78,0.92a1.18,1.18,0,0,0-.63.88,1.36,1.36,0,0,0,.82.64,2.49,2.49,0,0,0,.89,0H786.7s0.12-.24.22-0.47c2.3-5.22,4.61-10.44,6.87-15.68,0.26-.6,1.31-1.33.34-2s-1.35.56-1.76,1.13c-3.74,5.12-8.36,9.06-14.44,11.15a48.92,48.92,0,0,1-14.61,2.19C761.15,431.19,759,431.14,756.76,431.14Zm-79.92,3.55c0.64,0,1,.08,1.29.08q22.77,0.13,45.55.28a1.16,1.16,0,0,0,1.28-.9c1.27-3.16,2.56-6.32,3.91-9.44,1.1-2.54,2.32-5,3.45-7.55a2.16,2.16,0,0,0-.12-1,2.39,2.39,0,0,0-1,.27,7.4,7.4,0,0,0-.91,1.23c-3.91,5.43-8.74,9.65-15.28,11.63-6.85,2.06-13.89,1.92-20.93,1.83a0.92,0.92,0,0,1-.26-0.24l37.64-64.77a3.44,3.44,0,0,0-.56-0.19Q709,365.79,687,365.67a1.23,1.23,0,0,0-.87.66q-3.54,8.35-7,16.74a2.92,2.92,0,0,0,.08,1.19,3,3,0,0,0,1.12-.51c1-1.22,1.89-2.53,2.86-3.77a23.84,23.84,0,0,1,12.08-8.63c6.18-1.85,12.54-1.79,18.9-1.71a1.14,1.14,0,0,1,.32.22Zm173.39-65v1.44q0,26.94,0,53.87c0,1,0,2-.1,3.07a4.72,4.72,0,0,1-3.33,4.4c-0.84.29-1.74,0.45-2.56,0.8a1.33,1.33,0,0,0-.51,1,0.89,0.89,0,0,0,.65.53q12.35,0,24.7,0a1,1,0,0,0,.7-0.64,1.09,1.09,0,0,0-.52-0.85,9.66,9.66,0,0,0-1.59-.46c-3.09-.93-4.1-2.15-4.4-5.34-0.07-.76-0.06-1.53-0.06-2.3q0-27,0-54v-1.43c0.38,0,.62-0.07.87-0.06a18.49,18.49,0,0,1,9.82,3.25,43.9,43.9,0,0,1,10.36,10.35c0.39,0.51.83,1,1.43,0.49a1.61,1.61,0,0,0-.08-1.31c-2.3-5.22-4.67-10.41-6.94-15.64a1.58,1.58,0,0,0-1.75-1.16q-19.45.09-38.89,0.06c-2.69,0-2.61,0-3.67,2.38-2.15,4.87-4.4,9.69-6.57,14.55a3.12,3.12,0,0,0,0,1.2,4,4,0,0,0,1.29-.42,7.49,7.49,0,0,0,1-1.28c3.14-3.85,6.47-7.5,10.84-10A17.19,17.19,0,0,1,850.23,369.68Zm-37.49-3.77h-3.07c-2.94,0-5.89,0-8.83,0a3,3,0,0,0-1.13.65,4.89,4.89,0,0,0,1,1,7.48,7.48,0,0,0,1.47.39c2.71,0.83,3.76,2.13,4,5,0.08,1.1.13,2.21,0.13,3.32q0,24.05,0,48.1c0,1.28-.07,2.56-0.17,3.83a4.54,4.54,0,0,1-3.18,4.22c-0.64.23-1.3,0.39-2,.6s-1.38.12-1.27,1.09,0.88,0.63,1.41.63c6.14,0,12.28,0,18.42,0,1.79,0,3.58,0,5.37,0a2.34,2.34,0,0,0,.9-0.58,2.83,2.83,0,0,0-.74-1,15.49,15.49,0,0,0-2.07-.63,4.8,4.8,0,0,1-3.59-4.74c-0.05-.94-0.06-1.88-0.06-2.81q0-24.63,0-49.25c0-1,0-2,.07-2.94a4.78,4.78,0,0,1,3.65-4.69c0.57-.17,1.14-0.34,1.73-0.46s1.24-.4,1-1.15a1.44,1.44,0,0,0-1.13-.59C820.67,365.89,816.71,365.91,812.74,365.91ZM484.36,434.77h12c0.52,0,1.3.17,1.19-.68a1.87,1.87,0,0,0-1-1,11.48,11.48,0,0,0-1.71-.5,4.76,4.76,0,0,1-3.65-4.68c-0.05-1.15-.14-2.3-0.14-3.45q0-24.12,0-48.23c0-1.32.07-2.64,0.2-4a4.39,4.39,0,0,1,3-3.95,21.65,21.65,0,0,1,2.2-.66c0.63-.16,1.44-0.26,1.14-1.13a1.74,1.74,0,0,0-1.37-.63c-7.59,0-15.18,0-22.77,0a3.24,3.24,0,0,0-1,0,1.41,1.41,0,0,0-.83.61,1.45,1.45,0,0,0,.64,1,13.36,13.36,0,0,0,1.84.5c2.59,0.83,3.68,2.21,3.86,4.94,0.06,0.93.06,1.88,0.06,2.81q0,24.56,0,49.13c0,0.94,0,1.88-.05,2.81a4.92,4.92,0,0,1-3.76,4.89c-0.53.16-1.06,0.31-1.6,0.43s-1.28.33-1,1.12a1.47,1.47,0,0,0,1.15.56C476.6,434.79,480.48,434.77,484.36,434.77Z" transform="translate(-385.26 -354.4)"/><path d="M662.83,428.37c1.39,0.2,1.92-.4,2.09-1.65,0.3-2.12,1.53-3,4-2.92L668,427l2.32,1.3c-1.18,1.82-2.52,2.1-4.7,1,0.71,1.46-.25,1.73-1.21,2-2.2.5-4.4,1-6.62,1.42a3.85,3.85,0,0,1-1.19-.23c-0.32-.05-0.64-0.06-1.06-0.09l0.7,1.83c-1.26,0-2.35,0-3.44,0a6.8,6.8,0,0,1-5.14-2.2,1.57,1.57,0,0,0-.63-0.56c-1.74-.32-3.49-0.58-5.24-0.87L641.9,431a5.27,5.27,0,0,1-1.74.89c-1.92.15-3.91,0.51-5.74-.62a3.9,3.9,0,0,1,.62.53c0.32,0.41.59,0.86,0.88,1.29a6.22,6.22,0,0,1-1.4.75c-2.15.52-4.23,0.5-6-1-1,2.1-1.88,2.43-4.17,1.74a8.26,8.26,0,0,0-1.84.09,2.75,2.75,0,0,1-1.47-.32c-1.4-1.06-1.65-1.13-3-.08a1.42,1.42,0,0,1-2,.2,1.2,1.2,0,0,0-.8,0,17.84,17.84,0,0,1-2.1.36c-1.95.05-2,0-2.52-2.06a4.78,4.78,0,0,0-1.35.59,3.11,3.11,0,0,1-3.32.51,22.27,22.27,0,0,0-2.91-.5l2-2.59c-2.59,1.5-5,1.83-7.65.64,0.19-.32.31-0.48,0.4-0.66a3.39,3.39,0,0,0,.14-0.5c-1.9.39-3.7,0.72-5.47,1.16a2.4,2.4,0,0,0-1.23.94,3.94,3.94,0,0,1-3.07,1.83c-1.61.1-3.23,0-5.16,0l0.84-2c-2.11-.15-4.21-0.27-6.32-0.46a21.69,21.69,0,0,1-2.64-.44c-1.73-.37-1.73-0.39-1.5-2-2,1-2.59.85-4.78-1.51a10.28,10.28,0,0,1,1.9-.6c0.93-.1,1.07-0.41.69-1.24s-1.28-1.43-.33-2.21c0.61-.5,2.74.6,3.09,1.52,0.2,0.51.24,1.08,0.38,1.61a1.8,1.8,0,0,0,2,1.55,3.52,3.52,0,0,0-.25-1c-1.23-1.93-.74-3.94-0.27-5.93a1.6,1.6,0,0,1,.8-0.8c0.95-.52.83-1.3,0.56-2.1s-1-.67-1.59-0.42a4.45,4.45,0,0,1-5.29-.94c-1.76-1.65-2.69-3.78-1.7-6a46.6,46.6,0,0,1,4-6.46c0.7-1.06,1.64-2,2.29-3.07,1.2-2,.83-2.91-0.87-4.47a6.48,6.48,0,0,1-2-6,1.35,1.35,0,0,1,1-.82,14.38,14.38,0,0,1,2.86,1c2.07,0.92,2.24,2.76,2.18,4.7a9.53,9.53,0,0,0,.28,1.76c0.51,3.05-1.19,5.3-2.79,7.57-1,1.46-2.24,2.82-3.12,4.36a10.59,10.59,0,0,0-1,3.48,1.56,1.56,0,0,0,1.21,1.85,1.82,1.82,0,0,0,2.35-.74,12.72,12.72,0,0,0,1.36-3.41c0.47-2.41,2-4.2,3.28-6.13a11.78,11.78,0,0,0,2-6.24c0.07-2.17,0-4.35.17-6.51a33.23,33.23,0,0,1,.69-3.85,0.9,0.9,0,0,0,.1-0.23c-0.58-1.71.78-2.81,1.23-4.21a2.93,2.93,0,0,1,3-2.3,4.86,4.86,0,0,0,.77-0.26A12.24,12.24,0,0,1,586,380a2.51,2.51,0,0,1-.66-1.33,1.5,1.5,0,0,1,.9-0.72c0.77-.29.95-1,0.32-1.76l-0.72,1c-1.77-.56-3.06-3.06-2.3-4.64a3.75,3.75,0,0,1,1.4-.89,12.52,12.52,0,0,0,1.23-.87,2.93,2.93,0,0,1,.43-0.6c2-.34,3.28-2,5.42-2.17,3.67-.22,5.79,1.8,7.49,4.55,0.68,1.09,1.15,2.19,2.73,2a1.36,1.36,0,0,1,.75.4c0.9,0.69,1.79,1.4,2.86,2.23a5.11,5.11,0,0,0,.26-1.73c-0.42-1.69.33-3.19,0.67-4.74,0.3-1.37.75-1.44,1.81-.57,0.42,0.34,1,.55,1.36.91s1,1,1.44,1.48a4,4,0,0,0,.72.57,2.34,2.34,0,0,1,.87.45c0.57,1.55,1.08,3.13,1.54,4.72,0.11,0.38-.18.89,0,1.25a2,2,0,0,1-.83,2.68,2.08,2.08,0,0,0,2.32,1.25,3.06,3.06,0,0,0,1.6-1.45c0.32-.57.22-1.24-0.8-1.27a1.46,1.46,0,0,1-.93-0.76,4.24,4.24,0,0,1-.54-1.69,19.38,19.38,0,0,1,0-4.39,7.34,7.34,0,0,1,1.53-2.42c0.62-.9,1.25-1.81,1.9-2.69s1.2-.85,1.79.07,1.32,1.88,2,2.83a7.4,7.4,0,0,1,.76,6.88,0.9,0.9,0,0,0-.06.38c0.17,1.49-.58,2-2,1.83a1.79,1.79,0,0,0,.77,2.44c1.29,0.75,2,0,2.8-1-1.84-1.85-.77-3.68,0-5.53a2.4,2.4,0,0,0,.25-0.95,3.53,3.53,0,0,1,1.38-2.58,13.28,13.28,0,0,1,4-2.77c1.35-.64,2.06-0.36,2.27,1.13,0.23,1.64.25,3.3,0.37,5a1.4,1.4,0,0,0,.45.85,6.44,6.44,0,0,1,.5-0.89,4.56,4.56,0,0,1,4.44-1.91c0.81,0.11,1-.29,1.39-1,0.81-1.73,1.65-3.57,3.91-4a7.21,7.21,0,0,0,1.82-.77c2.12-1,3.39-.77,4.93,1a1.4,1.4,0,0,0,1.14.35,1.5,1.5,0,0,1,2,.88,2.66,2.66,0,0,0,1,1,3.08,3.08,0,0,1,.72,4.89c-0.39.44-.86,0.81-1.3,1.23,0.69,1.49.44,2-1.59,2.79a1.4,1.4,0,0,0,.38.34c1.72,0.57,2.38,1.89,3.18,3.45s0.8,3.06,1.29,4.55a12.86,12.86,0,0,1,.38,3.27c0.14,2.51.23,5,.36,7.53a11.86,11.86,0,0,0,2.43,6.5,17.66,17.66,0,0,1,2.38,5,35.65,35.65,0,0,0,1.67,3.57,1.43,1.43,0,0,0,1.93.65,1.76,1.76,0,0,0,1.48-1.69,6.88,6.88,0,0,0-1.55-4.75c-1.08-1.42-2.12-2.89-3.27-4.26a9.46,9.46,0,0,1-1.92-7c0.05-1,.08-2,0.09-2.93,0-1.21.18-2.21,1.57-2.71,1-.36,1.86-1.18,2.85-1.61,1.17-.51,1.67-0.11,1.77,1.14a8.55,8.55,0,0,1-2,5.67,5.12,5.12,0,0,1-1.77.94,7.68,7.68,0,0,0,2.07,5.69A26.2,26.2,0,0,1,670.1,410c1.2,2.39,1.37,4.72-.21,7a3.44,3.44,0,0,1-3.14,1.64c-1.2-.07-2.39-0.34-3.59-0.44a1.42,1.42,0,0,0-1,.31c-0.1.72-.34,1.85,0,2.13,2.18,1.7,2.05,3.78,1.34,6C663.32,427.24,663.07,427.77,662.83,428.37ZM613.3,384.51c2.87,1.11,5.28-.16,5.64-3a2.14,2.14,0,0,0-2.38-2.66l0.26,1.26,0.8-.65a2.89,2.89,0,0,1-3.76,4.38,2.07,2.07,0,0,1,0-3.56,2.11,2.11,0,0,0-1-.43,1.28,1.28,0,0,0-.67.81,4.42,4.42,0,0,0,1,3.7,0.78,0.78,0,0,0-1.09.68,2.71,2.71,0,0,1-2.22,1.88l-1.43.3c2.38,0.9,3.26-1,4.17-1.83,1.48,0.38,2.7,1.05,3.77.86s2.09-1.24,3.13-1.92c2.07,2.4,3.31,2.55,6.49.76,2.91,3,4.79,3.42,6.19,1.26-2.62.91-4.91,1-5.81-1.92-1.38.45-2.63,1.23-3.81,1.13s-2.29-1.1-3.51-1.76a15.33,15.33,0,0,1-2.07,1.55C615.28,386.3,614.37,386,613.3,384.51Zm-6.6,41.05,1.74,2,0.59-1.16-2.35-.85a0.48,0.48,0,0,0-.06-0.23,14.24,14.24,0,0,1-5.11-11.48c0-2,.08-4.09,0-6.14a1.9,1.9,0,0,0-.69-1.46,3.61,3.61,0,0,1-2.14-2.93c-0.46-1.89-2.08-2.68-3.69-3.75a9.06,9.06,0,0,1-.87,2.73,27.47,27.47,0,0,1-3.69,3.93,1.22,1.22,0,0,0-.29,1.92c0.76,1.17,1.81,2.27,2.16,3.56,0.88,3.27,2.2,6.58.5,10a3.65,3.65,0,0,0-.29,1.24c-0.19,1.82.22,2.35,2,2a2.24,2.24,0,0,1,2.7,1.46,4.4,4.4,0,0,0,1.2,1l0.2-.27c-1-1.51-2.45-2.82-2.39-5.22l2.68,1.55,0.31-.36c-0.71-.8-1.38-1.64-2.13-2.39-1.53-1.54-1.95-3.37-1.68-5.91l2.21,1.69,0.3-.18a10.39,10.39,0,0,0-1.45-2.33,6.45,6.45,0,0,1-2.14-5,3.31,3.31,0,0,1,.54-1.18c0.36,0.18.72,0.35,1.07,0.54a3.71,3.71,0,0,1,.48.41c-0.62-3.85-.39-5.42,1.1-6.39a18.6,18.6,0,0,1,1.24,3.75,20.65,20.65,0,0,1-.35,4.13c0.3-.23.55-0.4,0.77-0.6s0.55-.52.83-0.79a5.26,5.26,0,0,1,.52,1.3,9.55,9.55,0,0,1-1.43,6.34,1.53,1.53,0,0,0,.11,2.14l1.38-2.44c0.82,2.52,1.41,4.65.34,6.84a2.21,2.21,0,0,0,.44,2.82v-2.92l0.38-.22,2.14,2.32a14.48,14.48,0,0,1,1.76,0A4.88,4.88,0,0,1,606.7,425.56ZM636,399.45c-1.13-.41-1.33-1.16-0.49-2.31a1.7,1.7,0,0,0,0-2.19c-0.26-.42-0.47-0.88-0.71-1.31a0.49,0.49,0,0,0-.2-0.1l-0.58.73-1.1-.77-0.09.37c-0.47,0-.94,0-1.4-0.12a11.4,11.4,0,0,0-1.7-.35c-6.44,0-12.88,0-19.32,0a24.86,24.86,0,0,0-3.36.47l0,0.37-0.32-.45h-2.27a2.69,2.69,0,0,0-.37,3.72c0.28,0.4-.11,1.28-0.24,2.32,1.35,2.08,1.35,2.08-.15,3,1,1.89,1,1.89-.5,2.43a5.85,5.85,0,0,1,.19,1.11c-0.06,2.8-.21,5.6-0.2,8.41a11.24,11.24,0,0,0,4.25,9.19c3,2.38,6.56,2.91,10.21,3.16a27.08,27.08,0,0,0,7.65-.58,14.35,14.35,0,0,0,6.28-2.49c2.76-2.23,4.69-4.9,4.58-8.69-0.09-3.18,0-6.37-.09-9.56a1,1,0,0,0-.44-0.61,1,1,0,0,1-.23-1.68,5.69,5.69,0,0,0,.5-0.84c-1.73-.22-1.84-0.48-0.92-1.78C635.27,400.42,635.61,400,636,399.45Zm-51.2-10,0.33,0.13c-0.27.47-.53,0.95-0.81,1.41a4.75,4.75,0,0,0-.91,1.46q-0.5,3.61-.78,7.24a9.49,9.49,0,0,1-1.88,5.46,21.19,21.19,0,0,0-3.59,6.86,11,11,0,0,1-2,3.65,2.42,2.42,0,0,1-4.36-.72,5,5,0,0,1-.19-3.29,26.48,26.48,0,0,1,2.71-4.84c0.92-1.43,2-2.74,3-4.12,1.75-2.42.54-5.14,0.69-7.71,0-.36-0.71-0.71-0.84-1.15-0.46-1.52-2.18-1.32-3-2.42a1.54,1.54,0,0,0-.15,1.24c0.76,0.65-.21,2.11,1.17,2.41a0.31,0.31,0,0,1,.06.24c-0.16,1,.56,1.23,1.3,1.35a1.19,1.19,0,0,1,1.07,1.33c0.19,2.78-1,5-2.64,7.14a51.32,51.32,0,0,0-3.31,4.22,8.93,8.93,0,0,0-1.25,3.81c-0.11,1.48.29,3.14,1.85,3.76s3.42,1.14,4.85-.44a12.27,12.27,0,0,0,1.22-2.19c0.26-.45.58-0.86,0.87-1.29l0.39,0.16a2.47,2.47,0,0,1,.14,1.07c-0.71,1.8-.36,3.57-0.07,5.39a1.78,1.78,0,0,1-1.06,2.2,2,2,0,0,0-.85,1.18,5.07,5.07,0,0,0,.76,4.63c0.55,0.78,1.68,1.16,2.71,1.82l0.14-1.18,2.61-1.35-3.47.3a14.88,14.88,0,0,1-.39-2.57,3,3,0,0,1,.59-1.79c0.87-1,1.92-1.8,2.87-2.73a3.15,3.15,0,0,0,.79-1.14c1-3,1.83-6,3.09-8.92a39.13,39.13,0,0,1,3.81-6.11c0.69-1,1.66-1.83,2.43-2.8,0.37-.46,0-1.48,1.07-1.43a2.36,2.36,0,0,0-.25-1.18c-0.65-.54-1.5-0.84-2.16-1.38a7.1,7.1,0,0,1-3.1-5.25c0-.64-0.15-1.27-0.18-1.91a3.74,3.74,0,0,1,.28-0.94l2.44,5.68,0.56-.34-0.19.33,2.18,1.74c0.2,0.16.37,0.35,0.55,0.53,1.11,1,2.16,2.18,3.35,3.12s2.61,1.91,2.76,3.75a4.33,4.33,0,0,0,.69,1.18,8.62,8.62,0,0,0,1.25-2.55c0.16-2,.05-4,0.05-6l-0.56-.11c-0.21.59-.39,1.19-0.64,1.76a1.86,1.86,0,0,1-.6,1,1.8,1.8,0,0,1-1.21-.52c-3-2.89-4.5-6.7-6.09-10.52l1-.05c-0.26-.75-0.85-1.6-0.63-2,0.85-1.44-.14-2-1-2.67l0.42-.9c-1.89-1-1.89-1-2.75-.28-0.62-.52-1.1-1-2-0.13-0.46.46-1.56,0.27-2.38,0.38a0.6,0.6,0,0,0-.1.19l0.35,0.58-1.38,1.57,0.2,0.27,1.49-.46a6.56,6.56,0,0,1-1.31,1.53c-0.43.44-.81,0.93-1.22,1.4l0.36,0.32,1.57-1.34,0.31,0.26-2.77,3.56,0.39,0.34Zm76,24.32,0.47-.06c0.31,0.68.61,1.37,0.95,2A4.13,4.13,0,0,0,666.7,418a4.3,4.3,0,0,0,3-4.63,10.85,10.85,0,0,0-1.33-3.55c-1.12-1.85-2.43-3.6-3.73-5.34a10,10,0,0,1-2.08-5.14,2.24,2.24,0,0,1,.34-1.64c1.17-.45,2.15-0.95,2.41-2.3a2.53,2.53,0,0,1,.29-0.23,2.06,2.06,0,0,0,.23-0.58c0.09-.41.17-0.83,0.23-1.25s0.1-.91.14-1.37a4.58,4.58,0,0,0-1.3.58c-0.69.63-1.27,1.38-1.93,2a2,2,0,0,1-.82-0.18,16.6,16.6,0,0,1,0,3.19,7.09,7.09,0,0,0,.95,5.52c1.25,1.92,2.7,3.71,4,5.61a14.63,14.63,0,0,1,1.73,3.24c0.59,1.7-.41,4-1.78,4.5-1.77.66-3.35-.14-4.29-2.19a7.38,7.38,0,0,1-.54-1.43,22.18,22.18,0,0,0-3.5-7.18,12.64,12.64,0,0,1-1.75-4.33,53.39,53.39,0,0,1-.74-6.86,4.91,4.91,0,0,0-1.34-3.6,2.29,2.29,0,0,1-.35-0.77l0.35-.26,1.16,1.61c0.77-2.33-1.79-2.62-2.21-4.07l0.27-.19,1.52,1.18,0.34-.33-2.55-2.86,0.14-.13,1.32,0.58c-0.08-1.33-1.83-1.7-1.47-3.06h-1.83l-0.61-.85c-0.89.21-1.55,0.34-2.19,0.52a2.84,2.84,0,0,0-1.44.57,19.87,19.87,0,0,0-1.42,2.62c1.06,1.06-.6,1.94-0.23,3l1.09-.08a40.47,40.47,0,0,0-1.69,3.74c-0.9,2.7-3,4.53-4.72,6.61-0.79.94-1.51,0.62-1.85-.62-0.17-.6-0.42-1.18-0.63-1.77a42.39,42.39,0,0,0-.47,6,2.54,2.54,0,0,0,1.79,2.41,9.7,9.7,0,0,1,.52-1.74,4.84,4.84,0,0,1,1.37-2,13,13,0,0,0,5.17-4.65l1,0.7c0-1.79,2-2.25,1.93-3.9a0.37,0.37,0,0,1,.22-0.28c1.08-.23,1-1.15,1.11-1.91,0.11-.55.27-1.09,0.41-1.64l0.36,0a2.73,2.73,0,0,1,.2,1.26c-0.64,1.55-.13,3.33-1.53,4.85-0.93,1-2.24,1.68-2.94,2.92a2.43,2.43,0,0,1-.75.31,1.34,1.34,0,0,0-.62.56,1.19,1.19,0,0,0,.09.93c1.35,0.53.89,2.52,2.43,2.93a2.63,2.63,0,0,1,1,1.15c1.32,2,3,3.78,3.83,5.93,1.76,4.58,2.19,9.79,6.67,13a0.41,0.41,0,0,1,.16.19,7.06,7.06,0,0,1,.39,1.67,14.43,14.43,0,0,1-.3,2.17H656a6.59,6.59,0,0,0,1.45.62,5.78,5.78,0,0,1,1.25.81,2,2,0,0,0,3.05-.62,7.61,7.61,0,0,0,.75-2.56c0-1,0-2.35-.54-3-1.22-1.37-1.61-2.13-1.22-3.88a15.61,15.61,0,0,0,.14-3C660.85,414.9,660.84,414.32,660.84,413.74Zm-17.1,1.39a6.1,6.1,0,0,1-2.11,6.51,10.8,10.8,0,0,0-1.59,1.66l0.22,0.13,2.81-.82,0.36,0.52-2.48,4.16a2.24,2.24,0,0,0,1.22-.81,3,3,0,0,1,3-1.45c1.46,0.11,1.95-.46,1.78-1.94a12.6,12.6,0,0,0-.54-1.55,10.08,10.08,0,0,1-.54-2.68c0.12-3.8.7-7.47,3.34-10.49a2.18,2.18,0,0,0,.3-1.11c-1-.36-1-1.49-1.65-2.06a8.31,8.31,0,0,1-3.1-4.86,2.48,2.48,0,0,0-.41-0.68,7.87,7.87,0,0,1-1.21,1.06,5.9,5.9,0,0,0-2.81,3.62A3.56,3.56,0,0,1,638.7,406a1.76,1.76,0,0,0-1.06,1.69c0,2.6,0,5.2-.06,7.8a13.23,13.23,0,0,1-.36,3.15,11.58,11.58,0,0,1-7.6,8,66.76,66.76,0,0,1-7.25,1.81,9.13,9.13,0,0,0-1,.42l3.9,1.76c2-3,4.26-4.09,5.53-3,1.18-1,2-2.69,3.93-2.61l0.21,1.19c0.84-1.15,1.18-2.69,3.24-2.59l-0.83,3.51c1.59-2,1.61-2.17.84-4.22s-0.24-4.21.25-6.28l0.38-.1,1.31,2.85a2.94,2.94,0,0,0-.46-3.61c-1.32-1.72-1.47-5.33-.29-6.93l1.47,1.85c-0.81-2.94-.72-5.7,1.35-8.3,1.8,3,1.13,5.71-.53,8.45,1.19-.85,1.44-2.55,3.09-2.71a6.27,6.27,0,0,1-1.75,6c-0.71.63-1.48,1.24-1.3,2.45Zm-48.47,11v-0.26a8.61,8.61,0,0,1-1.6.13c-0.63-.06-1.7-0.13-1.8-0.45-0.49-1.52-1-3.2-.14-4.69a4.22,4.22,0,0,0,.53-3q-0.43-2.58-.95-5.14c-0.36-1.73-1.6-2.78-2.92-3.88a3.26,3.26,0,0,0-.4.58,42.21,42.21,0,0,0-1.7,5.45,3,3,0,0,0,1.05,2.4c1.48,1.14,2.46,3.09,2,4.76-0.66,2.26.33,4.15,1.44,6a1.3,1.3,0,0,0,1.23.2C593.12,427.54,594.19,426.8,595.27,426.11Zm55.78-17.27-0.45.11c-0.26.38-.54,0.76-0.78,1.16-0.65,1.08-1.6,2.11-1.85,3.28-0.65,3-1.19,6-.14,9.17,1,3-.42,4.26-3.47,3.83,0,0-.1.07,0,0l3.43,2.48a7.38,7.38,0,0,0,2.22-6.4,4.51,4.51,0,0,1,2.25-5.19,2.1,2.1,0,0,0,.91-2.42c-0.24-.68-0.44-1.37-0.68-2C652,411.48,651.53,410.16,651.05,408.84Zm2.91,8.33a15.91,15.91,0,0,1-1.42,1.24,2.77,2.77,0,0,0-1.22,3.83,2,2,0,0,1,.1,1.23c-0.46,1.49-1,3-1.51,4.44a3.6,3.6,0,0,0,0,1.06l0.34,0.06c0.9-2,2.22-3.26,4.85-3.16L653.47,429a2.67,2.67,0,0,0,1.12-1.18,2.82,2.82,0,0,1,3.33-2.07,0.82,0.82,0,0,0,1-1.1,3,3,0,0,0-.89-1.43C656.19,421.61,654.42,420,654,417.17Zm-64.75,11.42,0.21-.33c-0.48-1.54-1-3.06-1.41-4.61a3.12,3.12,0,0,1,0-1.59c0.67-2.36-.2-3.94-2.77-4.66-0.26,2.11-1.65,3.45-3.23,4.67a5.36,5.36,0,0,0-1.41,1.46,2.06,2.06,0,0,0-.09,1.51,1.29,1.29,0,0,0,1,.68,3,3,0,0,1,3.25,1.75l-0.27-2.59c1.79,0.67,3.05,1.4,3.82,2.86A3.93,3.93,0,0,0,589.22,428.59ZM638.7,378l-0.8,1.32c-0.92,1.53-1.58,3.35-2.84,4.52-1.43,1.33-1.33,3-2.19,4.66,1.25,0,2.26,0,3.27,0a4.88,4.88,0,0,1,2.06.38,0.94,0.94,0,0,0,1.59-.68,5.77,5.77,0,0,0,0-2c-0.27-2.22-.6-4.44-0.9-6.66C638.88,379.11,638.81,378.7,638.7,378Zm-32.83,10.36a5.93,5.93,0,0,0-1.61-4.15,15.47,15.47,0,0,1-1.83-2.87l-1.66-2.68c-0.48,2.83-.94,5.26-1.27,7.71a2.68,2.68,0,0,0,1.08,2.84C602.12,387.77,604.08,388.88,605.87,388.35Zm2.18-10.27c0.15,1-.64,2,0.55,2.84,0.81-1.79,1.8-1,2.35-.75,0.64-.53,1.39-0.93,2.06-1.44a1.67,1.67,0,0,0,.58-1,4.69,4.69,0,0,1-1-2.89,1.58,1.58,0,0,0-.61-0.53l-0.82,3.12c-1.75-1.59.06-3.55-1.09-5.2l-0.37,1.3-1.7-2.63-0.55.21v2.58l-0.52.47a3.67,3.67,0,0,0,.94.89,3.73,3.73,0,0,1,1.93,2.25c-1.57.56-2.09-.84-3-1.37C606.47,377.2,606.83,378,608.05,378.08Zm12.22-5.81c-0.05-1,.28-2.09-1.13-2.7l-0.78,2.7-0.58-.39-0.3.18,1.72,3.61c-1.87.43-1.95-1-2.55-1.77l-0.33.09,0.21,2.46L616,377.58l3.23,1.31c1-.31,2-0.57,2.89-1a1.92,1.92,0,0,0,.65-0.87c-0.93-.81-0.46-1.62-0.08-2.46a3,3,0,0,0-.22-1.07l-1.83,2.73-0.75-.59,1.9-3.22Zm8.12,5.53,3.56-3.65-0.33-.25-0.5.09a16,16,0,0,0,.41-2.06,1.08,1.08,0,0,0-.49-0.79,0.85,0.85,0,0,0-.73.31c-0.47.69-.86,1.43-1.27,2.15l-0.22-1.06-0.36-.09a5.66,5.66,0,0,0-.53,1.5c0,0.71.19,1.44,0.17,2.16a3.16,3.16,0,0,1-.49,1.08,3.29,3.29,0,0,1-.91-0.89,7,7,0,0,1-.27-1.65H626c0,0.49-.08,1-0.14,1.48a4.76,4.76,0,0,1-.15,1.08,7.45,7.45,0,0,0-.57,1.16c0.63,0.63,1.69,1.74,2,1.57,1.23-.61,2.26-0.36,3.63.35a2.62,2.62,0,0,1,1.06-3.08,2.23,2.23,0,0,0,.24-1.12C630.57,378,630.49,378,628.39,377.8Zm-39.56-4a14.86,14.86,0,0,1,1.23,3.56,11.65,11.65,0,0,1-.7,3.29,2.25,2.25,0,0,0,1.32-1.27,26.81,26.81,0,0,0,.54-5.06c0-2.76-1-3.56-3.3-3.25a3.83,3.83,0,0,1-.93,1.2,22.83,22.83,0,0,1-2.77.94l0.79,2.54c1.64-.88,2.29-0.9,2.82.05a3.59,3.59,0,0,1,.57,2.13,4.63,4.63,0,0,1-1.28,1.63c1.59,0.38,2.22,0,2.12-1.6a6.45,6.45,0,0,0-.87-3,2.6,2.6,0,0,1,0-3.17l1.53,0.93Zm61-.55,0-.42a3.9,3.9,0,0,1,1.64-.32c0.52,0.15.36,1.73,0.1,2.31a18.48,18.48,0,0,0-1.25,3.63,1.64,1.64,0,0,0,.75,1.42,7.28,7.28,0,0,0,2.27.07l0-.5a4.94,4.94,0,0,1-1.19-.1,1.77,1.77,0,0,1-.94-0.61,7.58,7.58,0,0,1,.83-2.57c0.2-.33,1.08-0.22,1.65-0.34a2.12,2.12,0,0,0,1.16-.31,1.61,1.61,0,0,0-1.44-2.42l-1-.07c-0.21-.67-0.23-1.6-0.65-1.84s-1.22.23-1.85,0.39a0.33,0.33,0,0,0-.12,0,3,3,0,0,0-.76.82c-0.89,2.3-.61,4.66-0.24,7,0.13,0.85.51,1.39,1.17,1.3a7.06,7.06,0,0,1,1.07-6.89Zm6.58,57-0.17-.07c-0.5.08-1,.17-1.49,0.23a3,3,0,0,1-.91,0c-0.68-.13-1.34-0.39-2-0.48a12.72,12.72,0,0,1-2.89-.21,9.73,9.73,0,0,0-4.85-.29,1.18,1.18,0,0,0,.73.67c6.65,0.8,13.3,1.65,19.87-.33l0-.37ZM641,392.36l0.24-.31-0.75-2.81c-1.34,1.33-1.31,1.22-3.07.83-1.43-.32-2.76-1.34-4.32-0.84a2.13,2.13,0,0,0-1.36,1,15,15,0,0,0-.06,3l0.34,0a2.66,2.66,0,0,0,.28-0.95c-0.16-1.51.63-1.83,1.91-1.65,1,0.13,1.91.22,2.7,0.31a16.09,16.09,0,0,0,.95,1.76,3,3,0,0,0,.88.59,8.45,8.45,0,0,0,.25-1,8.36,8.36,0,0,0,0-1.06Zm-25.34-4.54-0.46,0c0.15,2-1.18,2.05-2.52,2.25s-2.68.57-4,.87l0.13,0.55c1.07-.27,2.12-0.57,3.2-0.81a32.61,32.61,0,0,1,13.56,0l3.5,0.67,0.11-.45-5.33-1.51-0.63-1.5-0.36.1-0.4,1.25h-6.32Zm-3,4.11H627C625.55,390.2,614.84,390.24,612.62,391.92Zm-12.12-.39a2.18,2.18,0,0,0-.06.47c0,0.43.11,0.85,0.16,1.28a6,6,0,0,0,.91-0.82c0.35-.48.62-1,1.1-1.85h5.44a3.46,3.46,0,0,0-1-1.07c-1.58-.13-3.17-0.16-4.76-0.22-1.15,1.67-2.3,1.54-3.47-.41-0.07.63-.08,0.87-0.12,1.1-0.11.61-.24,1.21-0.36,1.82Zm34.75-11.48h-0.66L634,377.42h-0.19l-0.73,3-0.41,0,1.6,2.79,4.77-8.16a4.38,4.38,0,0,0-1.25.38c-0.59.43-1,1.3-1.91,0.49a2.06,2.06,0,0,0-.56.8c0,0.59.2,1.18,0.19,1.77A9.16,9.16,0,0,1,635.25,380.06Zm5.92,49c-1.76-1.5-13.26.48-16.32,2.79a6.25,6.25,0,0,0,2.09-.13c1-.27,1.9-0.75,2.89-1,2.58-.6,5.18-1.19,7.79-1.64A21.93,21.93,0,0,1,641.17,429.1Zm-40.09-54-0.21.25,3.38,7.63,1.79-1.7-1.3-3.75c-0.29,1.07.31,2.35-1,3.34L603,376l-0.14,0-0.27.78Zm20.59,5.14,0.65-.48a2.33,2.33,0,0,0-.73-1,1.8,1.8,0,0,0-1.41.46c-0.83,1-.61,3.44.28,4.56a3.29,3.29,0,0,0,3.57,1.07,4.07,4.07,0,0,0,2.33-3.64,3.87,3.87,0,0,0-1.18-1.65,1.5,1.5,0,0,0-.85.4,1.71,1.71,0,0,0,.05.8l1-.65c0.5,2.08-.34,3.83-1.86,4.05a2.69,2.69,0,0,1-3.27-2.43c-0.07-.92-0.14-1.9,1-2.38Zm-7.6,51.47c-3.37-1.15-6.5-2.28-9.67-3.27a12.79,12.79,0,0,0-3.77-.57,9.25,9.25,0,0,0-2.57.76l0.18,0.57c0.48-.11,1-0.21,1.45-0.34a4.62,4.62,0,0,1,1.18-.37c3,0.08,5.62,1.24,8.33,2.25,1.3,0.48,2.64.85,4,1.22A2.26,2.26,0,0,0,614.07,431.74Zm18.58-53.4-0.39-.14a34.44,34.44,0,0,0-1.44,3.28,1.56,1.56,0,0,1-2.06,1.29,1,1,0,0,0-.67,0,1.2,1.2,0,0,0,0,.81,2.69,2.69,0,0,0,3.37,1.19,1.46,1.46,0,0,0,.16-1.2c-1.19-.58-0.58-1.24-0.24-2C631.82,380.56,632.21,379.44,632.65,378.35Zm-32.9,19,1.35-2.45a0.71,0.71,0,0,0-.17-0.25c-0.93-.64-1.87-1.26-2.81-1.89C597.22,394.35,597.6,395.43,599.74,397.36Zm7.38-14.68c-0.82-.78-1.29-0.62-1.5.21-0.25,1,.59,2.28,1.83,3,1.4,0.76,2.52.72,3.37-.14,1.44-1.45,1.49-2.32.07-4.35a2.8,2.8,0,0,0-1.16-.53l-0.5,1.21,1.35-.34a11.47,11.47,0,0,1,.4,2.77,1.61,1.61,0,0,1-1.78,1.47c-1.49,0-2.39-.78-3.08-2.79Zm31.12,12.6a4.05,4.05,0,0,1,.93.86,7,7,0,0,1,.49,1.57c2.29-2.37,2.54-3.22,1.41-4.64Zm-27.56,32.24c1.2,0.93,2.21,1.82,3.34,2.53,0.89,0.56,2.75-.44,2.95-1.47Zm-25.23,2.83c3.34,0.81,6.42-.36,9.58-0.92C591.75,429.06,588.62,429.83,585.45,430.35Zm-0.75.43,0.09-.53c-1.15-.31-2.51-1.15-3.41-0.81a5,5,0,0,1-4.21-.1,2.49,2.49,0,0,0-2.77.48Zm22.53-50.1a2.11,2.11,0,0,0,0,.74c0.43,0.83,1,1.61,0,2.5a1.45,1.45,0,0,0,.54.93c1.16,0.51,2.6-.65,2.56-2.17C608.52,383.48,608.47,381.33,607.23,380.69Zm16.68,6.6c2.24,0.65,4.39,1.34,6.58,1.87,0.72,0.18,1.1-.4,1-1.35-1.52,1.16-2.73.51-3.93-.32-0.35-.24-0.74-0.43-1.08-0.68C625.52,386.09,624.7,386.33,623.91,387.29Zm-38.3,45.35a3.15,3.15,0,0,0,4.28-1.24C588.3,431.39,586.74,431.12,585.61,432.63Zm13.72-1.47,0.17,0.43,4.24-1.42C602.54,429,599.79,429.87,599.32,431.16ZM615,387.32c-1.44-1.31-2.76-.74-3.78.55-0.3.38,0,1.25,0.07,1.9h0.51l0.26-1.5Zm13.81-5.21,0.53,0.14a2.55,2.55,0,0,0,.25-1.33,1.55,1.55,0,0,0-1.27-.69c-1.62.62-2.16,3.25-1.05,4.61-0.37-2.22.14-3.5,1.54-3.92v1.19Zm0.56,49.71,0,0.49,4.29,0.58C633.05,431.33,630.72,430.9,629.41,431.81Zm-12.75.9,0-.52c-1.48-.43-2.79.89-4.49,0.48l0.51,1.35Zm-17.51-52.6c0.05-1.86-.58-2.8-2-3.3C596.19,378.83,598.32,378.92,599.15,380.11Zm54.62,52.71a5,5,0,0,0-4.72-1C650.55,432.52,651.89,433.35,653.77,432.82Zm-48.42-.19c1.49,0.2,2.83.28,4.09-.67A2.81,2.81,0,0,0,605.35,432.63Zm16.86-.08c1.24,0.54,2.34,1,3.46,1.48a0.74,0.74,0,0,0,.63-0.18,0.64,0.64,0,0,0,0-.57C626,432.52,623.17,432,622.21,432.55Zm-26.67-48.39a5.38,5.38,0,0,0,.24,1.88,22.5,22.5,0,0,0,1.94,2.33A4.16,4.16,0,0,0,595.54,384.16ZM628.8,386a3.06,3.06,0,0,0,4.24-1.52,4.48,4.48,0,0,0-.07-2.07,2.71,2.71,0,0,0-1-.08,3.09,3.09,0,0,0-.19.73l0.82-.56C633.14,384.61,632,385.66,628.8,386Zm13.34-8.62a2.74,2.74,0,0,0-1.88,2.91C642.53,378.69,643.28,378.68,642.14,377.34Zm-46.55,9.18-0.39.13c-0.47,1.29.07,2.44,2,3.55ZM619.37,428c-0.5.76-1,1.24-1,1.54a4,4,0,0,0,1.06,1.26,3.73,3.73,0,0,0,.94-1.3C620.47,429.15,619.91,428.71,619.37,428Zm24.72-40.88c-1.65,1.75-1.88,2.3-1.53,3.49C644.19,389.35,644.76,388.13,644.09,387.1Zm-1.2,30.13-0.32-.13-2,3.42C642.22,420.25,643,418.92,642.89,417.22ZM621.43,387c-2-1.67-2.35-1.66-3.73,0h3.73Zm20.32,1.48c2.12-2.75,2.12-2.75,2-3.49A3,3,0,0,0,641.75,388.53Zm-44.24-9.13-0.44.15c-0.51,1.37,0,2.27,1.91,3ZM623,430.87l-0.18-.44a15.21,15.21,0,0,0-2.31.95,2.48,2.48,0,0,0-.07,1.23,1.85,1.85,0,0,0,.9-0.09C622,432,622.47,431.43,623,430.87Zm19.15-17c0.85-1.18,1.8-2.1,1.61-3.67A3.23,3.23,0,0,0,642.16,413.9Zm-1.68,1.58,0.71-.18-1-3.93-0.67.18ZM598,423.72l-0.5.51,2.83,3.07,0.55-.52Zm43.58,0.44-3.19,2.69A3.33,3.33,0,0,0,641.56,424.16Zm-2,6.83,0.08-.73-4-.41-0.08.67ZM594.3,378.81a3.17,3.17,0,0,0,1.38,3.44C595.56,380.91,595.5,379.68,594.3,378.81Zm3.82,36.2a3.11,3.11,0,0,0,1-4.06Zm1.55,7,0.48,0.05c0.86-1.42.87-2.35-.26-3.64Zm-2-13.49,0.39-.08-0.48-3.67-0.47.07A4,4,0,0,0,597.71,408.54ZM642.34,405l-0.53,0c-0.28,1.24-.9,2.46-0.34,3.77l0.54,0Zm0-25a3.53,3.53,0,0,0-1.65,2.91C642.71,381.84,643,381.34,642.36,380Zm-45.74-5.51c0.32,1.72,1.69,1.77,2.69,2.63C599.12,375.41,598.08,375,596.62,374.51Zm1.31,46.28,0.34-.17a3.35,3.35,0,0,0-2.19-3.34Zm-1.68-27.45a3,3,0,0,0-1.23-3.81Zm46.7,0.5,1.65-4C642.83,390.91,642.56,391.59,642.94,393.83Zm-2.71-16.6,2.89-2C641.41,374.88,640.52,375.65,640.23,377.24Zm-44.36,2c0.15-1.92-.27-2.54-1.62-2.56C593.93,378,595,378.49,595.87,379.28Zm49.06,0-1.25,3C645.57,381.29,645.91,380.48,644.93,379.29Zm-48,33.82,0.52-.29-1.61-3.1-0.37.19C595.72,411.08,595.83,412.33,596.91,413.1Zm21.3,19.69a2.46,2.46,0,0,0,.17-1.24,2,2,0,0,0-2.55-.76Zm33.11-3.94,0.28,0.25a2.47,2.47,0,0,0,2-2.73ZM597,382.26l-0.48.2c-0.25,1.42,1,2,1.56,3l0.36-.18Zm45.82,0.82c-1.49.51-1.82,1.11-1.44,2.58C642.12,384.94,643.07,384.38,642.79,383.08Zm0.54-3.84c1.77-.26,2.32-1.21,1.63-2.77Zm-49.87-7.54a1.27,1.27,0,0,0,.39,1.95,0.94,0.94,0,0,0,.82-0.37C595.11,372.19,594.19,372.06,593.47,371.71Zm49.83,1.88c-1-.61-1.69-0.36-2.47.8C642.48,374.66,642.48,374.66,643.3,373.58Zm-4.4,49.17c1-1.34.86-2.87-.26-3.68Zm-47.22-44c-0.11,1.44.24,1.91,1.45,2C593.15,379.66,593,378.82,591.68,378.71Zm7.14-4.2c-0.69-1.38-1.33-1.61-2.72-.81ZM594.43,385c0.67-1.46.39-2.53-.88-3.2Zm49.21-8.68,0.33,0.33c0.45-.5.9-1,1.33-1.52a6.11,6.11,0,0,0-.48-0.47Zm0.67-6.23-0.27.54a1.46,1.46,0,0,0,1.75,1,1.25,1.25,0,0,0,.34-0.56Zm-3.06,2.51,3.23-.15C643.35,371.4,642.43,371.39,641.25,372.57Zm-43.1-.28-1.35-1.22L595,372.29h3.16Zm48.68,4-0.77,2.21C647.69,377.7,647.76,377.53,646.83,376.27ZM645,384.91l0.82-2.63C644.65,382.75,644.37,383.51,645,384.91Zm-53.34-14.8,0.11,0.36a4.64,4.64,0,0,0,1.39-.45,2,2,0,0,0,.16-1,2.24,2.24,0,0,0-.82.21A6.45,6.45,0,0,0,591.69,370.11Zm56,1.66-0.5.07-0.32,1.84,0.34,0.2a2.36,2.36,0,0,0,.87-0.83A3.11,3.11,0,0,0,647.68,371.77Zm-1.46,8.74c1.74-.19,2.06-0.81,1.23-1.82Zm22.42,48.08-0.12-.57a3.5,3.5,0,0,0-1.35,0,2.06,2.06,0,0,0-.37,1l0.26,0.27Zm-23.95-55.21,0.37,0.63a10.8,10.8,0,0,0,1.28-.87,2.07,2.07,0,0,0-.26-0.72Zm-11,53.25-0.47-.35-1.81,2.07,0.41,0.36Zm-63.27,1.66,2,1C572.34,427.67,571.77,427.45,570.45,428.28ZM647.83,371l0.29-.43-1.61-1.1C646.38,370.74,646.89,371.16,647.83,371Zm-53.33,3.35-0.39.58,1.45,1.08,0.41-.55Zm-7,54.14,0.4-.45L586,426.45l-0.34.41Z" transform="translate(-385.26 -354.4)"/><path d="M413.22,365.69c5.83,0.25,11.69.28,17.49,0.8,8,0.72,15.55,2.91,21.92,8.19,13.18,10.93,16.17,30.46,6.63,44.16-5,7.26-12.24,11.44-20.57,13.87a54.22,54.22,0,0,1-15.15,2.06q-12.67,0-25.33,0c-0.53,0-1.29.3-1.38-.65s0.58-.92,1.15-1.08c5.16-1.38,6-2.3,6-7.59,0.05-16.59,0-33.18,0-49.77,0-.55,0-1.11-0.07-1.66a5.83,5.83,0,0,0-4-5.52c-0.88-.32-1.82-0.49-2.66-0.87a3,3,0,0,1-.79-1.07,2.6,2.6,0,0,1,1-.61c5.25,0,10.49,0,15.74,0v-0.22Zm3.85,3.94V431.1a7.34,7.34,0,0,0,1.19,0c3.84-.49,7.76-0.65,11.5-1.56,9-2.18,15.73-7.24,19.19-16.06a35.36,35.36,0,0,0,1.83-18.25c-1.2-8.27-4.9-15.2-11.66-20.3C432.59,370.06,424.95,369.64,417.08,369.63Zm-7.16.09v61.46l1.37-.09c0-.52,0-1,0-1.44q0-3.65,0-7.29,0-25.71,0-51.42C411.29,370,411.2,369.29,409.91,369.72ZM438,429.93c1.82,0.07,6.31-2.47,9.59-5.28a31,31,0,0,0,11-20.29,32,32,0,0,0-20.12-33.71c11.42,6.67,18.54,16.18,18.62,29.75S450.22,423.6,438,429.93Z" transform="translate(-385.26 -354.4)"/><path d="M552,365.86c1.8,4.2,3.62,8.51,5.48,12.8,0.68,1.56,1.48,3.07,2.16,4.63a3.08,3.08,0,0,1,0,1.22,3.17,3.17,0,0,1-1.18-.44c-2.33-2.37-4.51-4.9-6.95-7.14a27.34,27.34,0,0,0-16.32-6.88c-3.26-.32-6.55-0.32-9.83-0.45-0.42,0-.83,0-1.32.06v28.09c0.69,0,1.36,0,2,0,3.75-.08,7.51,0,11.24-0.31,4.83-.37,8.53-2.94,11.51-6.65a4.53,4.53,0,0,1,.81-1,3.44,3.44,0,0,1,1.12-.29,2.41,2.41,0,0,1,.12,1.08c-1.2,2.73-2.43,5.45-3.71,8.14a2.08,2.08,0,0,0,0,2c1.25,2.57,2.44,5.16,3.6,7.77a4.09,4.09,0,0,1,.1,1.36,3.49,3.49,0,0,1-1.45-.58c-2.57-3.25-5.56-6-9.73-6.86a41,41,0,0,0-6.84-.72c-2.89-.12-5.79,0-8.76,0v29.46c2,0,4,0,6,0,5.12-.14,10.21-0.53,15.12-2.21,6.08-2.08,10.71-6,14.45-11.13,0.42-.57.71-1.81,1.76-1.15s-0.06,1.36-.32,2c-2.24,5.2-4.55,10.37-6.81,15.56a1.09,1.09,0,0,1-1.16.87q-23.73-.16-47.47-0.27a0.84,0.84,0,0,1-.38,0,1.75,1.75,0,0,1-.83-0.64,1.17,1.17,0,0,1,.61-0.89c0.78-.33,1.63-0.48,2.43-0.76a4.5,4.5,0,0,0,3.24-4.17c0.09-1.19.19-2.38,0.19-3.57q0-24.38,0-48.75c0-1.11-.09-2.21-0.16-3.32a4.74,4.74,0,0,0-3.76-4.59,15.23,15.23,0,0,1-2-.54,1.19,1.19,0,0,1-.59-0.92,1.3,1.3,0,0,1,.81-0.67,3,3,0,0,1,1,0l40.44,0H552Zm-33.92,3.86c-1.15-.33-1.51,0-1.51,1.07q0,29.61,0,59.23c0,0.33,0,.66.08,1.05h1.41V369.72Z" transform="translate(-385.26 -354.4)"/><path d="M756.76,431.14c2.23,0,4.39.05,6.55,0a48.92,48.92,0,0,0,14.61-2.19c6.08-2.08,10.7-6,14.44-11.15,0.42-.57.72-1.81,1.76-1.13s-0.08,1.36-.34,2c-2.25,5.24-4.57,10.45-6.87,15.68-0.1.23-.22,0.46-0.22,0.47H738.85a2.49,2.49,0,0,1-.89,0,1.36,1.36,0,0,1-.82-0.64,1.18,1.18,0,0,1,.63-0.88c0.9-.37,1.87-0.56,2.78-0.92a4.27,4.27,0,0,0,2.84-3.77,34,34,0,0,0,.22-3.57q0-24.57,0-49.14c0-1.06-.09-2.13-0.16-3.19a4.69,4.69,0,0,0-3.66-4.53,11.54,11.54,0,0,1-1.84-.51,3.53,3.53,0,0,1-.87-1,5,5,0,0,1,1-.65,3.17,3.17,0,0,1,1,0l40.31,0h5.32c1.8,4.21,3.63,8.53,5.49,12.82,0.68,1.56,1.49,3.07,2.16,4.63a3,3,0,0,1-.06,1.22,3.29,3.29,0,0,1-1.17-.46c-2.33-2.37-4.51-4.9-7-7.14A27.34,27.34,0,0,0,767.89,370c-3.26-.31-6.55-0.32-9.83-0.45-0.42,0-.83,0-1.31.06v28.08c3.15,0,6.25.08,9.34,0a35.69,35.69,0,0,0,6.21-.68c3.88-.83,6.8-3.23,9.25-6.25a4.5,4.5,0,0,1,.81-1,3.35,3.35,0,0,1,1.13-.27,2.48,2.48,0,0,1,.1,1.09c-1.22,2.77-2.53,5.49-3.73,8.27a2.45,2.45,0,0,0,0,1.75c1.17,2.69,2.46,5.34,3.66,8a3.27,3.27,0,0,1,0,1.24,6.37,6.37,0,0,1-1.3-.41,2.74,2.74,0,0,1-.65-0.78,17.25,17.25,0,0,0-14.15-7c-3.53,0-7.06,0-10.67,0v29.41Zm-5.94-61.41c-1.32-.41-1.51.16-1.51,1.19q0,29.48,0,59c0,0.37,0,.75.07,1.19h1.42V369.73Z" transform="translate(-385.26 -354.4)"/><path d="M676.84,434.69l37.68-64.83a1.14,1.14,0,0,0-.32-0.22c-6.36-.07-12.71-0.14-18.9,1.71A23.84,23.84,0,0,0,683.22,380c-1,1.24-1.86,2.55-2.86,3.77a3,3,0,0,1-1.12.51,2.92,2.92,0,0,1-.08-1.19q3.45-8.39,7-16.74a1.23,1.23,0,0,1,.87-0.66q21.94,0.09,43.88.26a3.44,3.44,0,0,1,.56.19l-37.64,64.77a0.92,0.92,0,0,0,.26.24c7,0.09,14.08.23,20.93-1.83,6.54-2,11.37-6.2,15.28-11.63a7.4,7.4,0,0,1,.91-1.23,2.39,2.39,0,0,1,1-.27,2.16,2.16,0,0,1,.12,1c-1.12,2.53-2.35,5-3.45,7.55-1.36,3.12-2.64,6.28-3.91,9.44a1.16,1.16,0,0,1-1.28.9q-22.77-.17-45.55-0.28C677.81,434.77,677.48,434.73,676.84,434.69Zm8.74-3.63a1.84,1.84,0,0,0,2.43-1q17-29.58,34.13-59.12c0.2-.35.37-0.73,0.58-1.13a1.65,1.65,0,0,0-2.34.89q-17.07,29.63-34.2,59.23C686,430.26,685.8,430.63,685.58,431.06Z" transform="translate(-385.26 -354.4)"/><path d="M850.23,369.68a17.19,17.19,0,0,0-9.28,2.43c-4.37,2.52-7.7,6.16-10.84,10a7.49,7.49,0,0,1-1,1.28,4,4,0,0,1-1.29.42,3.12,3.12,0,0,1,0-1.2c2.17-4.86,4.42-9.68,6.57-14.55,1.06-2.41,1-2.38,3.67-2.38q19.45,0,38.89-.06a1.58,1.58,0,0,1,1.75,1.16c2.27,5.23,4.64,10.42,6.94,15.64a1.61,1.61,0,0,1,.08,1.31c-0.6.54-1,0-1.43-.49a43.9,43.9,0,0,0-10.36-10.35,18.49,18.49,0,0,0-9.82-3.25c-0.24,0-.49,0-0.87.06v1.43q0,27,0,54c0,0.77,0,1.54.06,2.3,0.3,3.2,1.31,4.41,4.4,5.34a9.66,9.66,0,0,1,1.59.46,1.09,1.09,0,0,1,.52.85,1,1,0,0,1-.7.64q-12.35,0-24.7,0a0.89,0.89,0,0,1-.65-0.53,1.33,1.33,0,0,1,.51-1c0.82-.35,1.71-0.5,2.56-0.8a4.72,4.72,0,0,0,3.33-4.4c0.08-1,.1-2,0.1-3.07q0-26.94,0-53.87v-1.44Zm5.88,0v61.46l1.25-.07a8.57,8.57,0,0,0,.11-0.93q0-29.73,0-59.47C857.49,369.66,857.09,369.42,856.11,369.71Z" transform="translate(-385.26 -354.4)"/><path d="M812.74,365.91c4,0,7.93,0,11.9,0a1.44,1.44,0,0,1,1.13.59c0.28,0.75-.3,1-1,1.15s-1.15.29-1.73,0.46a4.78,4.78,0,0,0-3.65,4.69c-0.07,1-.07,2-0.07,2.94q0,24.63,0,49.25c0,0.94,0,1.88.06,2.81a4.8,4.8,0,0,0,3.59,4.74,15.49,15.49,0,0,1,2.07.63,2.83,2.83,0,0,1,.74,1,2.34,2.34,0,0,1-.9.58c-1.79.06-3.58,0-5.37,0-6.14,0-12.28,0-18.42,0-0.53,0-1.29.32-1.41-.63s0.7-.9,1.27-1.09,1.31-.36,2-0.6a4.54,4.54,0,0,0,3.18-4.22c0.09-1.27.17-2.55,0.17-3.83q0-24.05,0-48.1c0-1.11-.05-2.22-0.13-3.32-0.21-2.83-1.26-4.14-4-5a7.48,7.48,0,0,1-1.47-.39,4.89,4.89,0,0,1-1-1,3,3,0,0,1,1.13-.65c2.94-.05,5.88,0,8.83,0h3.07Zm-0.66,3.75V431.1h1.33V369.66h-1.33Z" transform="translate(-385.26 -354.4)"/><path d="M484.36,434.77c-3.88,0-7.76,0-11.64,0a1.47,1.47,0,0,1-1.15-.56c-0.29-.78.37-1,1-1.12s1.07-.27,1.6-0.43a4.92,4.92,0,0,0,3.76-4.89c0-.94.05-1.88,0.05-2.81q0-24.56,0-49.13c0-.94,0-1.88-0.06-2.81-0.19-2.73-1.27-4.11-3.86-4.94a13.36,13.36,0,0,1-1.84-.5,1.45,1.45,0,0,1-.64-1,1.41,1.41,0,0,1,.83-0.61,3.24,3.24,0,0,1,1,0c7.59,0,15.18,0,22.77,0a1.74,1.74,0,0,1,1.37.63c0.3,0.87-.51,1-1.14,1.13a21.65,21.65,0,0,0-2.2.66,4.39,4.39,0,0,0-3,3.95c-0.13,1.31-.2,2.64-0.2,4q0,24.12,0,48.23c0,1.15.09,2.3,0.14,3.45a4.76,4.76,0,0,0,3.65,4.68,11.48,11.48,0,0,1,1.71.5,1.87,1.87,0,0,1,1,1c0.11,0.85-.66.68-1.19,0.68h-12Zm-0.46-65.11V431.1h1.33V369.66H483.9Z" transform="translate(-385.26 -354.4)"/><path class="cls-1" d="M636,399.45c-0.4.54-.74,1-1.06,1.41-0.92,1.3-.81,1.55.92,1.78a5.69,5.69,0,0,1-.5.84,1,1,0,0,0,.23,1.68,1,1,0,0,1,.44.61c0,3.19,0,6.37.09,9.56,0.1,3.78-1.82,6.46-4.58,8.69a14.35,14.35,0,0,1-6.28,2.49,27.08,27.08,0,0,1-7.65.58c-3.65-.24-7.23-0.78-10.21-3.16a11.24,11.24,0,0,1-4.25-9.19c0-2.8.14-5.6,0.2-8.41a5.85,5.85,0,0,0-.19-1.11c1.5-.54,1.5-0.54.5-2.43,1.49-.88,1.49-0.88.15-3,0.13-1,.52-1.91.24-2.32a2.69,2.69,0,0,1,.37-3.72h2.27l0.32,0.45,0-.37a24.86,24.86,0,0,1,3.36-.47c6.44,0,12.88,0,19.32,0a11.4,11.4,0,0,1,1.7.35c0.46,0.08.93,0.09,1.4,0.12l0.09-.37,1.1,0.77,0.58-.73a0.49,0.49,0,0,1,.2.1c0.24,0.44.45,0.89,0.71,1.31a1.7,1.7,0,0,1,0,2.19C634.68,398.29,634.88,399,636,399.45Zm-22.77,1.31c-0.31,1.41-1,1.79-2.11,1a13.62,13.62,0,0,0-2.28-1.82,3,3,0,0,0-2.3.22c-0.62.36-.16,1.67,0.57,2.31,0.89,0.78,1.72,1.64,2.57,2.47,1.68,1.66,3.34,3.35,5,5,0.77,0.74,1.72,1.33,1.28,2.65a0.92,0.92,0,0,0,.38.56,2.77,2.77,0,0,1,.84,3.09,6.27,6.27,0,0,0,3.23,7.56c3.65,2.11,6.62,1.45,9.07-.56a7.09,7.09,0,0,0,2.3-7.54,6.34,6.34,0,0,0-1.69-3.31,8.86,8.86,0,0,0-7-2.2c-1.06.14-2.15,0.16-2.79-1a1.46,1.46,0,0,0-.66-0.29,8.4,8.4,0,0,1-1.93-.84,30.69,30.69,0,0,1-2.93-2.67,1.44,1.44,0,0,1-.47-1.12,5,5,0,0,1,1.22-1.12,0.76,0.76,0,0,1,.13.74,1.18,1.18,0,0,0,.38,1.85,2.08,2.08,0,0,0,1.78-.24,18.47,18.47,0,0,0,2.56-2.3c2.19-2.22,2-3.1-.79-4.55l-0.11-.06c-1-.53-1.39.15-1.82,0.82s0.14,1.13.64,1.48a3.52,3.52,0,0,0,.8.3c-1,.78-2.46-0.11-3.5-2a2.57,2.57,0,0,0,.39,0c1.92-.31,2.51-1.65,1.3-3.1a29,29,0,0,0-2.47-2.33c-1.55,2-3,3.75-4.34,5.59a1.31,1.31,0,0,0,0,1.24,1.89,1.89,0,0,0,1.28.55A4.42,4.42,0,0,0,613.25,400.76Z" transform="translate(-385.26 -354.4)"/><path class="cls-1" d="M584.81,389.42l-1.32,1.19-0.39-.34,2.77-3.56-0.31-.26L584,387.78l-0.36-.32c0.4-.47.78-1,1.22-1.4a6.56,6.56,0,0,0,1.31-1.53l-1.49.46-0.2-.27,1.38-1.57-0.35-.58a0.6,0.6,0,0,1,.1-0.19c0.81-.11,1.91.08,2.38-0.38,0.89-.88,1.37-0.39,2,0.13,0.86-.7.86-0.7,2.75,0.28l-0.42.9c0.86,0.65,1.85,1.23,1,2.67-0.22.37,0.37,1.23,0.63,2l-1,.05c1.59,3.81,3.06,7.63,6.09,10.52a1.8,1.8,0,0,0,1.21.52,1.86,1.86,0,0,0,.6-1c0.24-.57.43-1.17,0.64-1.76L602,396.4c0,2,.11,4-0.05,6a8.62,8.62,0,0,1-1.25,2.55,4.33,4.33,0,0,1-.69-1.18c-0.15-1.84-1.47-2.73-2.76-3.75s-2.24-2.08-3.35-3.12c-0.19-.18-0.35-0.37-0.55-0.53l-2.18-1.74,0.19-.33-0.56.34L588.34,389a3.74,3.74,0,0,0-.28.94c0,0.64.15,1.27,0.18,1.91a7.1,7.1,0,0,0,3.1,5.25c0.66,0.53,1.51.84,2.16,1.38a2.36,2.36,0,0,1,.25,1.18c-1.07,0-.7,1-1.07,1.43-0.77,1-1.73,1.79-2.43,2.8a39.13,39.13,0,0,0-3.81,6.11c-1.26,2.87-2.06,5.94-3.09,8.92a3.15,3.15,0,0,1-.79,1.14c-0.94.92-2,1.74-2.87,2.73a3,3,0,0,0-.59,1.79,14.88,14.88,0,0,0,.39,2.57l3.47-.3-2.61,1.35-0.14,1.18c-1-.66-2.16-1-2.71-1.82a5.07,5.07,0,0,1-.76-4.63,2,2,0,0,1,.85-1.18,1.78,1.78,0,0,0,1.06-2.2c-0.29-1.81-.64-3.58.07-5.39a2.47,2.47,0,0,0-.14-1.07l-0.39-.16c-0.29.43-.61,0.85-0.87,1.29a12.27,12.27,0,0,1-1.22,2.19c-1.43,1.58-3.25,1.07-4.85.44s-2-2.28-1.85-3.76a8.93,8.93,0,0,1,1.25-3.81,51.32,51.32,0,0,1,3.31-4.22c1.6-2.1,2.83-4.36,2.64-7.14a1.19,1.19,0,0,0-1.07-1.33c-0.74-.11-1.45-0.33-1.3-1.35a0.31,0.31,0,0,0-.06-0.24c-1.37-.31-0.41-1.76-1.17-2.41a1.54,1.54,0,0,1,.15-1.24c0.84,1.1,2.57.9,3,2.42,0.13,0.43.86,0.78,0.84,1.15-0.15,2.58,1.06,5.29-.69,7.71-1,1.38-2.09,2.7-3,4.12a26.48,26.48,0,0,0-2.71,4.84,5,5,0,0,0,.19,3.29,2.42,2.42,0,0,0,4.36.72,11,11,0,0,0,2-3.65,21.19,21.19,0,0,1,3.59-6.86,9.49,9.49,0,0,0,1.88-5.46q0.29-3.63.78-7.24a4.75,4.75,0,0,1,.91-1.46c0.28-.46.54-0.94,0.81-1.41Z" transform="translate(-385.26 -354.4)"/><path class="cls-1" d="M660.84,413.74c0,0.58,0,1.16,0,1.74a15.61,15.61,0,0,1-.14,3c-0.39,1.75,0,2.51,1.22,3.88,0.58,0.65.57,2,.54,3a7.61,7.61,0,0,1-.75,2.56,2,2,0,0,1-3.05.62,5.78,5.78,0,0,0-1.25-.81,6.59,6.59,0,0,1-1.45-.62h3.92a14.43,14.43,0,0,0,.3-2.17,7.06,7.06,0,0,0-.39-1.67,0.41,0.41,0,0,0-.16-0.19c-4.48-3.17-4.91-8.37-6.67-13-0.83-2.15-2.52-4-3.83-5.93a2.63,2.63,0,0,0-1-1.15c-1.54-.41-1.08-2.4-2.43-2.93a1.19,1.19,0,0,1-.09-0.93,1.34,1.34,0,0,1,.62-0.56,2.43,2.43,0,0,0,.75-0.31c0.7-1.24,2-1.9,2.94-2.92,1.4-1.53.89-3.3,1.53-4.85a2.73,2.73,0,0,0-.2-1.26l-0.36,0c-0.14.55-.3,1.09-0.41,1.64-0.16.76,0,1.67-1.11,1.91a0.37,0.37,0,0,0-.22.28c0.08,1.65-2,2.11-1.93,3.9l-1-.7a13,13,0,0,1-5.17,4.65,4.84,4.84,0,0,0-1.37,2,9.7,9.7,0,0,0-.52,1.74,2.54,2.54,0,0,1-1.79-2.41,42.39,42.39,0,0,1,.47-6c0.21,0.59.46,1.17,0.63,1.77,0.34,1.23,1.06,1.56,1.85.62,1.74-2.07,3.82-3.91,4.72-6.61a40.47,40.47,0,0,1,1.69-3.74l-1.09.08c-0.37-1,1.28-1.89.23-3a19.87,19.87,0,0,1,1.42-2.62,2.84,2.84,0,0,1,1.44-.57c0.64-.18,1.3-0.31,2.19-0.52l0.61,0.85h1.83c-0.36,1.36,1.38,1.74,1.47,3.06l-1.32-.58-0.14.13,2.55,2.86-0.34.33-1.52-1.18-0.27.19c0.41,1.45,3,1.74,2.21,4.07l-1.16-1.61-0.35.26a2.29,2.29,0,0,0,.35.77,4.91,4.91,0,0,1,1.34,3.6,53.39,53.39,0,0,0,.74,6.86,12.64,12.64,0,0,0,1.75,4.33,22.18,22.18,0,0,1,3.5,7.18,7.38,7.38,0,0,0,.54,1.43c0.94,2.05,2.52,2.85,4.29,2.19,1.37-.51,2.37-2.8,1.78-4.5a14.63,14.63,0,0,0-1.73-3.24c-1.28-1.9-2.73-3.69-4-5.61a7.09,7.09,0,0,1-.95-5.52,16.6,16.6,0,0,0,0-3.19,2,2,0,0,0,.82.18c0.67-.66,1.24-1.41,1.93-2a4.58,4.58,0,0,1,1.3-.58c0,0.46-.08.91-0.14,1.37s-0.14.84-.23,1.25a2.06,2.06,0,0,1-.23.58,2.53,2.53,0,0,0-.29.23c-0.26,1.35-1.24,1.85-2.41,2.3a2.24,2.24,0,0,0-.34,1.64,10,10,0,0,0,2.08,5.14c1.3,1.74,2.61,3.48,3.73,5.34a10.85,10.85,0,0,1,1.33,3.55,4.3,4.3,0,0,1-3,4.63,4.13,4.13,0,0,1-4.44-2.26c-0.34-.66-0.63-1.35-0.95-2Z" transform="translate(-385.26 -354.4)"/><path class="cls-1" d="M643.74,415.13l-2,1.48c-0.17-1.21.6-1.82,1.3-2.45a6.27,6.27,0,0,0,1.75-6c-1.65.16-1.9,1.87-3.09,2.71,1.65-2.73,2.32-5.48.53-8.45-2.08,2.6-2.16,5.36-1.35,8.3l-1.47-1.85c-1.18,1.59-1,5.21.29,6.93a2.94,2.94,0,0,1,.46,3.61l-1.31-2.85-0.38.1c-0.49,2.07-1.06,4.13-.25,6.28s0.75,2.27-.84,4.22l0.83-3.51c-2.06-.11-2.41,1.43-3.24,2.59l-0.21-1.19c-2-.08-2.75,1.57-3.93,2.61-1.27-1.12-3.53,0-5.53,3l-3.9-1.76a9.13,9.13,0,0,1,1-.42,66.76,66.76,0,0,0,7.25-1.81,11.58,11.58,0,0,0,7.6-8,13.23,13.23,0,0,0,.36-3.15c0.06-2.6.07-5.2,0.06-7.8A1.76,1.76,0,0,1,638.7,406a3.56,3.56,0,0,0,1.62-1.65,5.9,5.9,0,0,1,2.81-3.62,7.87,7.87,0,0,0,1.21-1.06,2.48,2.48,0,0,1,.41.68,8.31,8.31,0,0,0,3.1,4.86c0.64,0.57.66,1.7,1.65,2.06a2.18,2.18,0,0,1-.3,1.11c-2.63,3-3.22,6.69-3.34,10.49a10.08,10.08,0,0,0,.54,2.68,12.6,12.6,0,0,1,.54,1.55c0.17,1.48-.32,2.05-1.78,1.94a3,3,0,0,0-3,1.45,2.24,2.24,0,0,1-1.22.81l2.48-4.16-0.36-.52-2.81.82-0.22-.13a10.8,10.8,0,0,1,1.59-1.66A6.1,6.1,0,0,0,643.74,415.13Z" transform="translate(-385.26 -354.4)"/><path class="cls-1" d="M606.7,425.56a4.89,4.89,0,0,0-1-.39,14.48,14.48,0,0,0-1.76,0l-2.14-2.32-0.38.22V426a2.21,2.21,0,0,1-.44-2.82c1.07-2.19.48-4.33-.34-6.84l-1.38,2.44a1.53,1.53,0,0,1-.11-2.14,9.55,9.55,0,0,0,1.43-6.34A5.26,5.26,0,0,0,600,409c-0.28.26-.54,0.54-0.83,0.79s-0.47.36-.77,0.6a20.65,20.65,0,0,0,.35-4.13,18.6,18.6,0,0,0-1.24-3.75c-1.49,1-1.72,2.53-1.1,6.39a3.71,3.71,0,0,0-.48-0.41c-0.35-.2-0.71-0.36-1.07-0.54a3.31,3.31,0,0,0-.54,1.18,6.45,6.45,0,0,0,2.14,5,10.39,10.39,0,0,1,1.45,2.33l-0.3.18-2.21-1.69c-0.27,2.54.15,4.37,1.68,5.91,0.75,0.76,1.42,1.59,2.13,2.39l-0.31.36L596.23,422c-0.05,2.4,1.38,3.71,2.39,5.22l-0.2.27a4.4,4.4,0,0,1-1.2-1,2.24,2.24,0,0,0-2.7-1.46c-1.78.33-2.19-.2-2-2a3.65,3.65,0,0,1,.29-1.24c1.7-3.43.38-6.74-.5-10-0.35-1.29-1.4-2.39-2.16-3.56a1.22,1.22,0,0,1,.29-1.92,27.47,27.47,0,0,0,3.69-3.93,9.06,9.06,0,0,0,.87-2.73c1.61,1.07,3.23,1.86,3.69,3.75a3.61,3.61,0,0,0,2.14,2.93,1.9,1.9,0,0,1,.69,1.46c0.06,2,0,4.09,0,6.14a14.24,14.24,0,0,0,5.11,11.48,0.48,0.48,0,0,1,.06.23Z" transform="translate(-385.26 -354.4)"/><path class="cls-1" d="M595.27,426.11c-1.09.69-2.15,1.43-3.29,2a1.3,1.3,0,0,1-1.23-.2c-1.1-1.82-2.1-3.71-1.44-6,0.49-1.67-.5-3.62-2-4.76a3,3,0,0,1-1.05-2.4,42.21,42.21,0,0,1,1.7-5.45,3.26,3.26,0,0,1,.4-0.58c1.32,1.1,2.56,2.15,2.92,3.88s0.67,3.42.95,5.14a4.22,4.22,0,0,1-.53,3c-0.89,1.49-.35,3.17.14,4.69,0.1,0.32,1.17.39,1.8,0.45a8.61,8.61,0,0,0,1.6-.13v0.26Z" transform="translate(-385.26 -354.4)"/><path class="cls-1" d="M651.05,408.84c0.48,1.32,1,2.64,1.43,4,0.24,0.68.44,1.37,0.68,2a2.1,2.1,0,0,1-.91,2.42,4.51,4.51,0,0,0-2.25,5.19,7.38,7.38,0,0,1-2.22,6.4l-3.43-2.48c-0.1.07,0,0,0,0,3.06,0.43,4.46-.84,3.47-3.83-1-3.18-.52-6.16.14-9.17,0.25-1.17,1.2-2.2,1.85-3.28,0.24-.4.52-0.77,0.78-1.16Z" transform="translate(-385.26 -354.4)"/><path class="cls-1" d="M654,417.17c0.45,2.8,2.23,4.44,4.05,6.07a3,3,0,0,1,.89,1.43,0.82,0.82,0,0,1-1,1.1,2.82,2.82,0,0,0-3.33,2.07,2.67,2.67,0,0,1-1.12,1.18l1.62-3.15c-2.62-.1-3.95,1.2-4.85,3.16L649.9,429a3.6,3.6,0,0,1,0-1.06c0.48-1.49,1-2.95,1.51-4.44a2,2,0,0,0-.1-1.23,2.77,2.77,0,0,1,1.22-3.83A15.91,15.91,0,0,0,654,417.17Z" transform="translate(-385.26 -354.4)"/><path class="cls-1" d="M589.22,428.59a3.93,3.93,0,0,1-.88-0.85c-0.77-1.46-2-2.19-3.82-2.86l0.27,2.59a3,3,0,0,0-3.25-1.75,1.29,1.29,0,0,1-1-.68,2.06,2.06,0,0,1,.09-1.51,5.36,5.36,0,0,1,1.41-1.46c1.58-1.22,3-2.55,3.23-4.67,2.57,0.72,3.44,2.3,2.77,4.66a3.12,3.12,0,0,0,0,1.59c0.42,1.55.93,3.08,1.41,4.61Z" transform="translate(-385.26 -354.4)"/><path class="cls-1" d="M638.7,378c0.11,0.71.18,1.12,0.23,1.53,0.31,2.22.63,4.44,0.9,6.66a5.77,5.77,0,0,1,0,2,0.94,0.94,0,0,1-1.59.68,4.88,4.88,0,0,0-2.06-.38c-1-.06-2,0-3.27,0,0.86-1.64.76-3.33,2.19-4.66,1.26-1.17,1.91-3,2.84-4.52Z" transform="translate(-385.26 -354.4)"/><path class="cls-1" d="M605.87,388.35c-1.8.53-3.75-.58-5.29,0.84a2.68,2.68,0,0,1-1.08-2.84c0.32-2.45.79-4.88,1.27-7.71l1.66,2.68a15.47,15.47,0,0,0,1.83,2.87A5.93,5.93,0,0,1,605.87,388.35Z" transform="translate(-385.26 -354.4)"/><path class="cls-1" d="M608.05,378.08c-1.22-.13-1.58-0.87-1.25-2.12,0.93,0.53,1.45,1.93,3,1.37a3.73,3.73,0,0,0-1.93-2.25,3.67,3.67,0,0,1-.94-0.89l0.52-.47v-2.58l0.55-.21,1.7,2.63,0.37-1.3c1.15,1.64-.65,3.6,1.09,5.2l0.82-3.12a1.58,1.58,0,0,1,.61.53,4.69,4.69,0,0,0,1,2.89,1.67,1.67,0,0,1-.58,1c-0.67.51-1.42,0.91-2.06,1.44-0.55-.3-1.54-1-2.35.75C607.42,380.06,608.2,379,608.05,378.08Z" transform="translate(-385.26 -354.4)"/><path class="cls-1" d="M620.27,372.27l1.48,0.19-1.9,3.22,0.75,0.59,1.83-2.73a3,3,0,0,1,.22,1.07c-0.37.84-.85,1.65,0.08,2.46a1.92,1.92,0,0,1-.65.87c-0.93.39-1.92,0.65-2.89,1L616,377.58l0.55-1.13L616.32,374l0.33-.09c0.61,0.76.69,2.19,2.55,1.77l-1.72-3.61,0.3-.18,0.58,0.39,0.78-2.7C620.55,370.17,620.22,371.24,620.27,372.27Z" transform="translate(-385.26 -354.4)"/><path class="cls-1" d="M628.39,377.8c2.1,0.25,2.18.2,3.76-1.75a2.23,2.23,0,0,1-.24,1.12,2.62,2.62,0,0,0-1.06,3.08c-1.37-.72-2.4-1-3.63-0.35-0.36.18-1.41-.94-2-1.57a7.45,7.45,0,0,1,.57-1.16,4.76,4.76,0,0,0,.15-1.08c0.05-.49.09-1,0.14-1.48h0.4a7,7,0,0,0,.27,1.65,3.29,3.29,0,0,0,.91.89,3.16,3.16,0,0,0,.49-1.08c0-.72-0.21-1.44-0.17-2.16a5.66,5.66,0,0,1,.53-1.5l0.36,0.09,0.22,1.06c0.42-.72.81-1.46,1.27-2.15a0.85,0.85,0,0,1,.73-0.31,1.08,1.08,0,0,1,.49.79,16,16,0,0,1-.41,2.06l0.5-.09,0.33,0.25Z" transform="translate(-385.26 -354.4)"/><path class="cls-1" d="M588.84,373.82l1.05-1-1.53-.93a2.6,2.6,0,0,0,0,3.17,6.45,6.45,0,0,1,.87,3c0.1,1.6-.52,2-2.12,1.6a4.63,4.63,0,0,0,1.28-1.63,3.59,3.59,0,0,0-.57-2.13c-0.53-1-1.18-.93-2.82-0.05l-0.79-2.54a22.83,22.83,0,0,0,2.77-.94,3.83,3.83,0,0,0,.93-1.2c2.28-.31,3.25.49,3.3,3.25a26.81,26.81,0,0,1-.54,5.06,2.25,2.25,0,0,1-1.32,1.27,11.65,11.65,0,0,0,.7-3.29A14.86,14.86,0,0,0,588.84,373.82Z" transform="translate(-385.26 -354.4)"/><path class="cls-1" d="M649.81,373.27l1.13,0.58a7.06,7.06,0,0,0-1.07,6.89c-0.66.09-1-.45-1.17-1.3-0.37-2.35-.65-4.71.24-7a3,3,0,0,1,.76-0.82,0.33,0.33,0,0,1,.12,0c0.63-.16,1.44-0.62,1.85-0.39s0.44,1.17.65,1.84l1,0.07a1.61,1.61,0,0,1,1.44,2.42,2.12,2.12,0,0,1-1.16.31c-0.57.11-1.44,0-1.65,0.34a7.58,7.58,0,0,0-.83,2.57,1.77,1.77,0,0,0,.94.61,4.94,4.94,0,0,0,1.19.1l0,0.5a7.28,7.28,0,0,1-2.27-.07,1.64,1.64,0,0,1-.75-1.42,18.48,18.48,0,0,1,1.25-3.63c0.26-.58.42-2.16-0.1-2.31a3.9,3.9,0,0,0-1.64.32Z" transform="translate(-385.26 -354.4)"/><path class="cls-1" d="M656.39,430.22l8.23-.83,0,0.37c-6.57,2-13.23,1.13-19.87.33a1.18,1.18,0,0,1-.73-0.67,9.73,9.73,0,0,1,4.85.29,12.72,12.72,0,0,0,2.89.21c0.69,0.08,1.35.34,2,.48a3,3,0,0,0,.91,0c0.5-.06,1-0.15,1.49-0.23Z" transform="translate(-385.26 -354.4)"/><path class="cls-1" d="M641,392.36l-2-1.08a8.36,8.36,0,0,1,0,1.06,8.45,8.45,0,0,1-.25,1,3,3,0,0,1-.88-0.59,16.09,16.09,0,0,1-.95-1.76c-0.79-.09-1.75-0.18-2.7-0.31-1.28-.18-2.07.14-1.91,1.65a2.66,2.66,0,0,1-.28.95l-0.34,0a15,15,0,0,1,.06-3,2.13,2.13,0,0,1,1.36-1c1.56-.5,2.89.52,4.32,0.84,1.75,0.39,1.73.5,3.07-.83l0.75,2.81Z" transform="translate(-385.26 -354.4)"/><path class="cls-1" d="M615.67,387.82l0.47,1.39h6.32l0.4-1.25,0.36-.1,0.63,1.5,5.33,1.51-0.11.45-3.5-.67a32.61,32.61,0,0,0-13.56,0c-1.07.24-2.13,0.54-3.2,0.81l-0.13-.55c1.34-.3,2.66-0.67,4-0.87s2.67-.26,2.52-2.25Z" transform="translate(-385.26 -354.4)"/><path class="cls-1" d="M612.62,391.92c2.22-1.69,12.93-1.73,14.38,0H612.62Z" transform="translate(-385.26 -354.4)"/><path class="cls-1" d="M600.5,391.54l-2.13.31c0.12-.61.25-1.21,0.36-1.82,0-.24.05-0.48,0.12-1.1,1.17,1.94,2.32,2.08,3.47.41,1.59,0.06,3.17.09,4.76,0.22a3.46,3.46,0,0,1,1,1.07h-5.44c-0.48.82-.75,1.37-1.1,1.85a6,6,0,0,1-.91.82c-0.06-.43-0.12-0.85-0.16-1.28A2.18,2.18,0,0,1,600.5,391.54Z" transform="translate(-385.26 -354.4)"/><path class="cls-1" d="M635.25,380.06a9.16,9.16,0,0,0,.29-1.58c0-.59-0.21-1.18-0.19-1.77a2.06,2.06,0,0,1,.56-0.8c0.89,0.81,1.32-.05,1.91-0.49a4.38,4.38,0,0,1,1.25-.38l-4.77,8.16-1.6-2.79,0.41,0,0.73-3H634l0.55,2.63h0.66Z" transform="translate(-385.26 -354.4)"/><path class="cls-1" d="M613.3,384.51c1.08,1.52,2,1.79,3.67.88a15.33,15.33,0,0,0,2.07-1.55c1.23,0.65,2.33,1.65,3.51,1.76s2.43-.68,3.81-1.13c0.9,2.91,3.19,2.83,5.81,1.92-1.4,2.16-3.29,1.74-6.19-1.26-3.18,1.78-4.43,1.63-6.49-.76-1,.68-2,1.72-3.13,1.92s-2.29-.48-3.77-0.86c-0.9.79-1.79,2.73-4.17,1.83l1.43-.3a2.71,2.71,0,0,0,2.22-1.88,0.78,0.78,0,0,1,1.09-.68Z" transform="translate(-385.26 -354.4)"/><path class="cls-1" d="M641.17,429.1a21.93,21.93,0,0,0-3.55,0c-2.61.45-5.21,1-7.79,1.64-1,.23-1.91.72-2.89,1a6.25,6.25,0,0,1-2.09.13C627.91,429.58,639.41,427.59,641.17,429.1Z" transform="translate(-385.26 -354.4)"/><path class="cls-1" d="M601.08,375.14l1.51,1.69,0.27-.78,0.14,0,0.68,4.89c1.35-1,.75-2.27,1-3.34l1.3,3.75-1.79,1.7-3.38-7.63Z" transform="translate(-385.26 -354.4)"/><path class="cls-1" d="M621.67,380.28l-0.38-.88c-1.18.48-1.12,1.46-1,2.38a2.69,2.69,0,0,0,3.27,2.43c1.52-.23,2.36-2,1.86-4.05l-1,.65a1.71,1.71,0,0,1-.05-0.8,1.5,1.5,0,0,1,.85-0.4,3.87,3.87,0,0,1,1.18,1.65,4.07,4.07,0,0,1-2.33,3.64,3.29,3.29,0,0,1-3.57-1.07c-0.89-1.12-1.11-3.56-.28-4.56a1.8,1.8,0,0,1,1.41-.46,2.33,2.33,0,0,1,.73,1Z" transform="translate(-385.26 -354.4)"/><path class="cls-1" d="M614.07,431.74a2.26,2.26,0,0,1-.9.26c-1.33-.37-2.68-0.74-4-1.22-2.71-1-5.38-2.17-8.33-2.25a4.62,4.62,0,0,0-1.18.37c-0.48.13-1,.23-1.45,0.34l-0.18-.57a9.25,9.25,0,0,1,2.57-.76,12.79,12.79,0,0,1,3.77.57C607.57,429.46,610.7,430.59,614.07,431.74Z" transform="translate(-385.26 -354.4)"/><path class="cls-1" d="M613.3,384.51l-0.12-.12a4.42,4.42,0,0,1-1-3.7,1.28,1.28,0,0,1,.67-0.81,2.11,2.11,0,0,1,1,.43,2.07,2.07,0,0,0,0,3.56,2.89,2.89,0,0,0,3.76-4.38l-0.8.65-0.26-1.26a2.14,2.14,0,0,1,2.38,2.66C618.58,384.34,616.17,385.61,613.3,384.51Z" transform="translate(-385.26 -354.4)"/><path class="cls-1" d="M632.65,378.35c-0.43,1.1-.82,2.21-1.31,3.28-0.34.74-.95,1.4,0.24,2a1.46,1.46,0,0,1-.16,1.2,2.69,2.69,0,0,1-3.37-1.19,1.2,1.2,0,0,1,0-.81,1,1,0,0,1,.67,0,1.56,1.56,0,0,0,2.06-1.29,34.44,34.44,0,0,1,1.44-3.28Z" transform="translate(-385.26 -354.4)"/><path class="cls-1" d="M599.74,397.36c-2.15-1.93-2.53-3-1.63-4.59,0.94,0.63,1.88,1.26,2.81,1.89a0.71,0.71,0,0,1,.17.25Z" transform="translate(-385.26 -354.4)"/><path class="cls-1" d="M607.13,382.68l-1,.45c0.69,2,1.58,2.78,3.08,2.79a1.61,1.61,0,0,0,1.78-1.47,11.47,11.47,0,0,0-.4-2.77l-1.35.34,0.5-1.21a2.8,2.8,0,0,1,1.16.53c1.41,2,1.37,2.9-.07,4.35-0.85.86-2,.91-3.37,0.14-1.24-.68-2.08-2-1.83-3C605.84,382.06,606.31,381.9,607.13,382.68Z" transform="translate(-385.26 -354.4)"/><path class="cls-1" d="M638.24,395.28l2.83-2.21c1.13,1.43.88,2.27-1.41,4.64a7,7,0,0,0-.49-1.57A4.05,4.05,0,0,0,638.24,395.28Z" transform="translate(-385.26 -354.4)"/><path class="cls-1" d="M610.68,427.52l6.29,1.06c-0.19,1-2.06,2-2.95,1.47C612.9,429.34,611.89,428.45,610.68,427.52Z" transform="translate(-385.26 -354.4)"/><path class="cls-1" d="M585.45,430.35c3.16-.52,6.3-1.29,9.58-0.92C591.87,430,588.79,431.16,585.45,430.35Z" transform="translate(-385.26 -354.4)"/><path class="cls-1" d="M584.7,430.79l-10.3-1a2.49,2.49,0,0,1,2.77-.48,5,5,0,0,0,4.21.1c0.91-.34,2.26.5,3.41,0.81Z" transform="translate(-385.26 -354.4)"/><path class="cls-1" d="M607.23,380.69c1.24,0.64,1.29,2.79,3.16,2,0,1.52-1.4,2.68-2.56,2.17a1.45,1.45,0,0,1-.54-0.93c0.94-.88.38-1.67,0-2.5A2.11,2.11,0,0,1,607.23,380.69Z" transform="translate(-385.26 -354.4)"/><path class="cls-1" d="M623.91,387.29c0.8-1,1.62-1.2,2.61-.48,0.34,0.25.73,0.44,1.08,0.68,1.2,0.83,2.42,1.48,3.93.32,0.06,1-.31,1.53-1,1.35C628.3,388.62,626.15,387.94,623.91,387.29Z" transform="translate(-385.26 -354.4)"/><path class="cls-1" d="M585.61,432.63c1.13-1.52,2.69-1.24,4.28-1.24A3.15,3.15,0,0,1,585.61,432.63Z" transform="translate(-385.26 -354.4)"/><path class="cls-1" d="M599.32,431.16c0.47-1.29,3.22-2.12,4.41-1l-4.24,1.42Z" transform="translate(-385.26 -354.4)"/><path class="cls-1" d="M615,387.32l-2.94,1-0.26,1.5h-0.51c0-.65-0.37-1.52-0.07-1.9C612.28,386.58,613.6,386,615,387.32Z" transform="translate(-385.26 -354.4)"/><path class="cls-1" d="M628.85,382.11v-1.19c-1.4.42-1.91,1.7-1.54,3.92-1.11-1.36-.56-4,1.05-4.61a1.55,1.55,0,0,1,1.27.69,2.55,2.55,0,0,1-.25,1.33Z" transform="translate(-385.26 -354.4)"/><path class="cls-1" d="M629.41,431.81c1.31-.91,3.64-0.49,4.25,1.07l-4.29-.58Z" transform="translate(-385.26 -354.4)"/><path class="cls-1" d="M616.66,432.72l-4,1.31-0.51-1.35c1.69,0.41,3-.91,4.49-0.48Z" transform="translate(-385.26 -354.4)"/><path class="cls-1" d="M599.15,380.11c-0.83-1.19-3-1.29-2-3.3C598.57,377.31,599.21,378.26,599.15,380.11Z" transform="translate(-385.26 -354.4)"/><path class="cls-1" d="M653.77,432.82c-1.88.53-3.22-.3-4.72-1A5,5,0,0,1,653.77,432.82Z" transform="translate(-385.26 -354.4)"/><path class="cls-1" d="M605.35,432.63a2.81,2.81,0,0,1,4.09-.67C608.18,432.91,606.85,432.84,605.35,432.63Z" transform="translate(-385.26 -354.4)"/><path class="cls-1" d="M622.21,432.55c1-.58,3.75,0,4.11.73a0.64,0.64,0,0,1,0,.57,0.74,0.74,0,0,1-.63.18C624.55,433.58,623.45,433.09,622.21,432.55Z" transform="translate(-385.26 -354.4)"/><path class="cls-1" d="M595.54,384.16a4.16,4.16,0,0,1,2.18,4.21,22.5,22.5,0,0,1-1.94-2.33A5.38,5.38,0,0,1,595.54,384.16Z" transform="translate(-385.26 -354.4)"/><path class="cls-1" d="M628.8,386c3.22-.3,4.34-1.35,3.78-3.51l-0.82.56a3.09,3.09,0,0,1,.19-0.73,2.71,2.71,0,0,1,1,.08,4.48,4.48,0,0,1,.07,2.07A3.06,3.06,0,0,1,628.8,386Z" transform="translate(-385.26 -354.4)"/><path class="cls-1" d="M642.14,377.34c1.14,1.34.4,1.35-1.88,2.91A2.74,2.74,0,0,1,642.14,377.34Z" transform="translate(-385.26 -354.4)"/><path class="cls-1" d="M595.59,386.52l1.66,3.68c-2-1.11-2.52-2.25-2-3.55Z" transform="translate(-385.26 -354.4)"/><path class="cls-1" d="M619.37,428c0.54,0.74,1.1,1.17,1,1.5a3.73,3.73,0,0,1-.94,1.3,4,4,0,0,1-1.06-1.26C618.33,429.21,618.87,428.74,619.37,428Z" transform="translate(-385.26 -354.4)"/><path class="cls-1" d="M644.09,387.1c0.67,1,.1,2.26-1.53,3.49C642.21,389.4,642.44,388.85,644.09,387.1Z" transform="translate(-385.26 -354.4)"/><path class="cls-1" d="M642.89,417.22c0.09,1.7-.68,3-2.32,3.29l2-3.42Z" transform="translate(-385.26 -354.4)"/><path class="cls-1" d="M621.43,387h-3.73C619.08,385.39,619.43,385.38,621.43,387Z" transform="translate(-385.26 -354.4)"/><path class="cls-1" d="M641.75,388.53a3,3,0,0,1,2-3.49C643.87,385.78,643.87,385.78,641.75,388.53Z" transform="translate(-385.26 -354.4)"/><path class="cls-1" d="M597.51,379.41l1.46,3.13c-1.94-.71-2.41-1.61-1.91-3Z" transform="translate(-385.26 -354.4)"/><path class="cls-1" d="M623,430.87c-0.55.56-1.06,1.15-1.66,1.65a1.85,1.85,0,0,1-.9.09,2.48,2.48,0,0,1,.07-1.23,15.21,15.21,0,0,1,2.31-.95Z" transform="translate(-385.26 -354.4)"/><path class="cls-1" d="M642.16,413.9a3.23,3.23,0,0,1,1.61-3.67C644,411.8,643,412.72,642.16,413.9Z" transform="translate(-385.26 -354.4)"/><path class="cls-1" d="M640.48,415.48l-1-3.94,0.67-.18,1,3.93Z" transform="translate(-385.26 -354.4)"/><path class="cls-1" d="M598,423.72l2.88,3.06-0.55.52-2.83-3.07Z" transform="translate(-385.26 -354.4)"/><path class="cls-1" d="M641.56,424.16a3.33,3.33,0,0,1-3.19,2.69Z" transform="translate(-385.26 -354.4)"/><path class="cls-1" d="M639.61,431l-4-.47,0.08-.67,4,0.41Z" transform="translate(-385.26 -354.4)"/><path class="cls-1" d="M594.3,378.81c1.21,0.87,1.27,2.1,1.38,3.44A3.17,3.17,0,0,1,594.3,378.81Z" transform="translate(-385.26 -354.4)"/><path class="cls-1" d="M598.11,415l1-4.06A3.11,3.11,0,0,1,598.11,415Z" transform="translate(-385.26 -354.4)"/><path class="cls-1" d="M599.66,422l0.23-3.59c1.13,1.28,1.12,2.22.26,3.64Z" transform="translate(-385.26 -354.4)"/><path class="cls-1" d="M597.71,408.54a4,4,0,0,1-.56-3.68l0.47-.07,0.48,3.67Z" transform="translate(-385.26 -354.4)"/><path class="cls-1" d="M642.34,405L642,408.79l-0.54,0c-0.56-1.31.06-2.53,0.34-3.77Z" transform="translate(-385.26 -354.4)"/><path class="cls-1" d="M642.36,380c0.65,1.32.35,1.82-1.65,2.91A3.53,3.53,0,0,1,642.36,380Z" transform="translate(-385.26 -354.4)"/><path class="cls-1" d="M596.62,374.51c1.47,0.46,2.5.9,2.69,2.63C598.3,376.27,596.94,376.22,596.62,374.51Z" transform="translate(-385.26 -354.4)"/><path class="cls-1" d="M597.92,420.78l-1.85-3.5a3.35,3.35,0,0,1,2.19,3.34Z" transform="translate(-385.26 -354.4)"/><path class="cls-1" d="M596.24,393.34L595,389.53A3,3,0,0,1,596.24,393.34Z" transform="translate(-385.26 -354.4)"/><path class="cls-1" d="M642.94,393.83c-0.38-2.24-.11-2.93,1.65-4Z" transform="translate(-385.26 -354.4)"/><path class="cls-1" d="M640.23,377.24c0.29-1.59,1.18-2.36,2.89-2Z" transform="translate(-385.26 -354.4)"/><path class="cls-1" d="M595.87,379.28c-0.85-.79-1.95-1.23-1.62-2.56C595.61,376.74,596,377.36,595.87,379.28Z" transform="translate(-385.26 -354.4)"/><path class="cls-1" d="M644.93,379.29c1,1.19.63,2-1.25,3Z" transform="translate(-385.26 -354.4)"/><path class="cls-1" d="M596.91,413.1c-1.08-.78-1.19-2-1.47-3.19l0.37-.19,1.61,3.1Z" transform="translate(-385.26 -354.4)"/><path class="cls-1" d="M618.21,432.79l-2.38-2a2,2,0,0,1,2.55.76A2.46,2.46,0,0,1,618.21,432.79Z" transform="translate(-385.26 -354.4)"/><path class="cls-1" d="M651.32,428.85l2.26-2.48a2.47,2.47,0,0,1-2,2.73Z" transform="translate(-385.26 -354.4)"/><path class="cls-1" d="M597,382.26l1.44,3-0.36.18c-0.59-1-1.81-1.56-1.56-3Z" transform="translate(-385.26 -354.4)"/><path class="cls-1" d="M642.79,383.08c0.28,1.3-.67,1.86-1.44,2.58C641,384.19,641.31,383.59,642.79,383.08Z" transform="translate(-385.26 -354.4)"/><path class="cls-1" d="M643.33,379.24l1.63-2.77C645.66,378,645.11,379,643.33,379.24Z" transform="translate(-385.26 -354.4)"/><path class="cls-1" d="M593.47,371.71c0.72,0.35,1.64.49,1.21,1.57a0.94,0.94,0,0,1-.82.37A1.27,1.27,0,0,1,593.47,371.71Z" transform="translate(-385.26 -354.4)"/><path class="cls-1" d="M643.3,373.58c-0.82,1.08-.82,1.08-2.47.8C641.6,373.22,642.31,373,643.3,373.58Z" transform="translate(-385.26 -354.4)"/><path class="cls-1" d="M638.89,422.75l-0.26-3.68C639.75,419.88,639.88,421.41,638.89,422.75Z" transform="translate(-385.26 -354.4)"/><path class="cls-1" d="M591.68,378.71c1.35,0.11,1.47,1,1.45,2C591.92,380.62,591.56,380.14,591.68,378.71Z" transform="translate(-385.26 -354.4)"/><path class="cls-1" d="M598.81,374.51l-2.72-.81C597.48,372.9,598.13,373.13,598.81,374.51Z" transform="translate(-385.26 -354.4)"/><path class="cls-1" d="M594.43,385l-0.88-3.2C594.81,382.44,595.1,383.51,594.43,385Z" transform="translate(-385.26 -354.4)"/><path class="cls-1" d="M643.63,376.29l1.18-1.66a6.11,6.11,0,0,1,.48.47c-0.42.52-.88,1-1.33,1.52Z" transform="translate(-385.26 -354.4)"/><path class="cls-1" d="M644.3,370.06l1.82,0.94a1.25,1.25,0,0,1-.34.56,1.46,1.46,0,0,1-1.75-1Z" transform="translate(-385.26 -354.4)"/><path class="cls-1" d="M641.25,372.57c1.18-1.18,2.1-1.17,3.23-.15Z" transform="translate(-385.26 -354.4)"/><path class="cls-1" d="M598.15,372.29H595l1.81-1.22Z" transform="translate(-385.26 -354.4)"/><path class="cls-1" d="M646.83,376.27c0.93,1.25.86,1.43-.77,2.21Z" transform="translate(-385.26 -354.4)"/><path class="cls-1" d="M645,384.91c-0.66-1.41-.39-2.16.82-2.63Z" transform="translate(-385.26 -354.4)"/><path class="cls-1" d="M591.69,370.11a6.45,6.45,0,0,1,.84-0.92,2.24,2.24,0,0,1,.82-0.21,2,2,0,0,1-.16,1,4.64,4.64,0,0,1-1.39.45Z" transform="translate(-385.26 -354.4)"/><path class="cls-1" d="M647.68,371.77a3.11,3.11,0,0,1,.39,1.28,2.36,2.36,0,0,1-.87.83l-0.34-.2,0.32-1.84Z" transform="translate(-385.26 -354.4)"/><path class="cls-1" d="M646.22,380.51l1.23-1.82C648.28,379.7,648,380.32,646.22,380.51Z" transform="translate(-385.26 -354.4)"/><path class="cls-1" d="M668.64,428.59l-1.58.69-0.26-.27a2.06,2.06,0,0,1,.37-1,3.5,3.5,0,0,1,1.35,0Z" transform="translate(-385.26 -354.4)"/><path class="cls-1" d="M606.68,425.58l2.35,0.85-0.59,1.16-1.74-2Z" transform="translate(-385.26 -354.4)"/><path class="cls-1" d="M644.69,373.38l1.39-1a2.07,2.07,0,0,1,.26.72,10.8,10.8,0,0,1-1.28.87Z" transform="translate(-385.26 -354.4)"/><path class="cls-1" d="M633.71,426.62l-1.87,2.08-0.41-.36,1.81-2.07Z" transform="translate(-385.26 -354.4)"/><path class="cls-1" d="M570.45,428.28c1.32-.83,1.9-0.61,2,1Z" transform="translate(-385.26 -354.4)"/><path class="cls-1" d="M647.83,371c-0.94.13-1.45-.29-1.32-1.53l1.61,1.1Z" transform="translate(-385.26 -354.4)"/><path class="cls-1" d="M594.5,374.38l1.47,1.11-0.41.55L594.11,375Z" transform="translate(-385.26 -354.4)"/><path class="cls-1" d="M587.47,428.51l-1.87-1.66,0.34-.41,1.92,1.62Z" transform="translate(-385.26 -354.4)"/><path class="cls-1" d="M417.08,369.63c7.87,0,15.51.43,22,5.35,6.76,5.09,10.45,12,11.66,20.3a35.36,35.36,0,0,1-1.83,18.25c-3.45,8.82-10.23,13.88-19.19,16.06-3.74.91-7.66,1.07-11.5,1.56a7.34,7.34,0,0,1-1.19,0V369.63Z" transform="translate(-385.26 -354.4)"/><path class="cls-1" d="M409.91,369.72c1.28-.43,1.38.26,1.38,1.22q0,25.71,0,51.42,0,3.65,0,7.29c0,0.46,0,.92,0,1.44l-1.37.09V369.72Z" transform="translate(-385.26 -354.4)"/><path class="cls-1" d="M438,429.93c12.22-6.33,19.23-15.84,19.14-29.53s-7.21-23.08-18.62-29.75a32,32,0,0,1,20.12,33.71,31,31,0,0,1-11,20.29C444.31,427.47,439.82,430,438,429.93Z" transform="translate(-385.26 -354.4)"/><path class="cls-1" d="M518.12,369.72v61.35h-1.41c0-.39-0.08-0.72-0.08-1.05q0-29.61,0-59.23C516.61,369.72,517,369.4,518.12,369.72Z" transform="translate(-385.26 -354.4)"/><path class="cls-1" d="M750.82,369.73v61.35H749.4c0-.44-0.07-0.82-0.07-1.19q0-29.49,0-59C749.31,369.89,749.51,369.33,750.82,369.73Z" transform="translate(-385.26 -354.4)"/><path class="cls-1" d="M685.58,431.06c0.22-.42.4-0.8,0.6-1.16q17.11-29.61,34.2-59.23a1.65,1.65,0,0,1,2.34-.89c-0.21.4-.38,0.78-0.58,1.13Q705.06,400.46,688,430A1.84,1.84,0,0,1,685.58,431.06Z" transform="translate(-385.26 -354.4)"/><path class="cls-1" d="M856.11,369.71c1-.3,1.38-0.05,1.38,1q0,29.73,0,59.47a8.57,8.57,0,0,1-.11.93l-1.25.07V369.71Z" transform="translate(-385.26 -354.4)"/><path class="cls-1" d="M812.08,369.66h1.33V431.1h-1.33V369.66Z" transform="translate(-385.26 -354.4)"/><path class="cls-1" d="M483.9,369.66h1.33V431.1H483.9V369.66Z" transform="translate(-385.26 -354.4)"/><path d="M613.25,400.76a4.42,4.42,0,0,1-1.38.4,1.89,1.89,0,0,1-1.28-.55,1.31,1.31,0,0,1,0-1.24c1.35-1.83,2.78-3.61,4.34-5.59a29,29,0,0,1,2.47,2.33c1.2,1.46.61,2.79-1.3,3.1a2.57,2.57,0,0,1-.39,0c1,1.88,2.53,2.78,3.5,2a3.52,3.52,0,0,1-.8-0.3c-0.5-.35-1.16-0.67-0.64-1.48s0.85-1.35,1.82-.82l0.11,0.06c2.81,1.45,3,2.33.79,4.55a18.47,18.47,0,0,1-2.56,2.3,2.08,2.08,0,0,1-1.78.24,1.18,1.18,0,0,1-.38-1.85,0.76,0.76,0,0,0-.13-0.74,5,5,0,0,0-1.22,1.12,1.44,1.44,0,0,0,.47,1.12,30.69,30.69,0,0,0,2.93,2.67,8.4,8.4,0,0,0,1.93.84,1.46,1.46,0,0,1,.66.29c0.64,1.17,1.73,1.16,2.79,1a8.86,8.86,0,0,1,7,2.2,6.34,6.34,0,0,1,1.69,3.31,7.09,7.09,0,0,1-2.3,7.54c-2.45,2-5.42,2.67-9.07.56a6.27,6.27,0,0,1-3.23-7.56,2.77,2.77,0,0,0-.84-3.09,0.92,0.92,0,0,1-.38-0.56c0.44-1.33-.52-1.92-1.28-2.65-1.7-1.64-3.36-3.33-5-5-0.85-.84-1.67-1.69-2.57-2.47-0.73-.64-1.19-1.94-0.57-2.31a3,3,0,0,1,2.3-.22,13.62,13.62,0,0,1,2.28,1.82C612.2,402.54,612.94,402.17,613.25,400.76Zm-5.41-.43-0.29.41a6,6,0,0,0,.62.91q4.36,4.39,8.75,8.75a1.94,1.94,0,0,0,.93.16,1.87,1.87,0,0,0-.17-0.85c-1.3-1.39-2.61-2.78-4-4.09-0.66-.62-0.82-1.12-0.2-1.83s1.18-1.44,1.61-2c2,0.78,1.78,2.12,1.76,3.53a35.62,35.62,0,0,0,3.57-3.52c0.74-.83.45-1.55-0.42-2.1l-0.95-.62-0.79,1.06,0.21,0.2,0.71-.39c1.06,1.12,1,1.7,0,2.75s-1.61.09-2.19-.5c-1.22-1.25-2.37-2.56-3.56-3.86l2-2.39,0.92,2.35c1.12-.85.37-1.62-0.17-2.23a1.37,1.37,0,0,0-1.33-.17,24.67,24.67,0,0,0-2.64,2.77,8,8,0,0,0-.81,1.56,1.32,1.32,0,0,0,1-.29,1,1,0,0,1,1.65.2,1.63,1.63,0,0,1-.07,1.45c-1.31,2-2.33,2.1-4,.35a4.88,4.88,0,0,0-.71-0.73C608.85,400.89,608.33,400.62,607.83,400.33Zm17,23.28a6.18,6.18,0,0,0,5.92-5.6,6.68,6.68,0,0,0-6.63-7c-3.08,0-5.69,2.89-5.83,6.62C618.15,421.12,621.33,423.38,624.83,423.61Zm-6.18-9.9,2-2.67c-1.17-1-1.74-.68-3.06,1.33Z" transform="translate(-385.26 -354.4)"/><path class="cls-1" d="M607.83,400.33c0.5,0.29,1,.56,1.5.89a4.88,4.88,0,0,1,.71.73c1.63,1.76,2.65,1.7,4-.35a1.63,1.63,0,0,0,.07-1.45,1,1,0,0,0-1.65-.2,1.32,1.32,0,0,1-1,.29,8,8,0,0,1,.81-1.56,24.67,24.67,0,0,1,2.64-2.77,1.37,1.37,0,0,1,1.33.17c0.55,0.61,1.3,1.38.17,2.23L615.44,396l-2,2.39c1.19,1.3,2.34,2.61,3.56,3.86,0.58,0.6,1.17,1.52,2.19.5s1.07-1.63,0-2.75l-0.71.39-0.21-.2,0.79-1.06,0.95,0.62c0.87,0.56,1.17,1.27.42,2.1a35.62,35.62,0,0,1-3.57,3.52c0-1.41.2-2.75-1.76-3.53-0.43.53-1,1.26-1.61,2s-0.46,1.21.2,1.83c1.39,1.31,2.7,2.7,4,4.09a1.87,1.87,0,0,1,.17.85,1.94,1.94,0,0,1-.93-0.16q-4.41-4.34-8.75-8.75a6,6,0,0,1-.62-0.91Z" transform="translate(-385.26 -354.4)"/><path class="cls-1" d="M624.83,423.61c-3.5-.23-6.67-2.48-6.54-6,0.14-3.73,2.75-6.58,5.83-6.62a6.68,6.68,0,0,1,6.63,7A6.18,6.18,0,0,1,624.83,423.61Zm0.08-11.26c-3.91-.28-5.6,2.08-5.7,5.15-0.09,2.72,2.56,5.53,5.15,5.43a5.57,5.57,0,0,0,5.35-5.59C629.64,414.24,627.84,412.34,624.9,412.34Z" transform="translate(-385.26 -354.4)"/><path class="cls-1" d="M618.65,413.7l-1.09-1.34c1.32-2,1.88-2.28,3.06-1.33Z" transform="translate(-385.26 -354.4)"/><path d="M624.9,412.34c2.94,0,4.74,1.9,4.8,5a5.57,5.57,0,0,1-5.35,5.59c-2.59.1-5.23-2.71-5.15-5.43C619.3,414.43,621,412.06,624.9,412.34Zm1.9,1.14a3.66,3.66,0,0,1-3.78.86c-1.18-.26-1.7.13-1.66,1.21,0.05,1.34.09,2.68,0.19,4,0,0.57.13,1.41,1,1.09a7.63,7.63,0,0,1,4.12-.3,0.87,0.87,0,0,0,1.13-1.09c-0.19-1.1-.17-2.24-0.33-3.35A22.37,22.37,0,0,0,626.8,413.48Zm-1.29.22,0-.49h-2.18l0,0.33Z" transform="translate(-385.26 -354.4)"/><path class="cls-1" d="M626.8,413.48a22.37,22.37,0,0,1,.65,2.42c0.16,1.11.14,2.25,0.33,3.35a0.87,0.87,0,0,1-1.13,1.09,7.63,7.63,0,0,0-4.12.3c-0.85.33-.94-0.52-1-1.09-0.1-1.34-.13-2.68-0.19-4,0-1.08.48-1.47,1.66-1.21A3.66,3.66,0,0,0,626.8,413.48Zm-1.85,5.91c1,0,1.55-.58,1.63-1.91a2.09,2.09,0,0,0-2.13-2.2,2.11,2.11,0,0,0-2,2C622.39,418.57,623.29,419.32,624.95,419.39Z" transform="translate(-385.26 -354.4)"/><path class="cls-1" d="M625.52,413.7l-2.17-.16,0-.33h2.18Z" transform="translate(-385.26 -354.4)"/><path d="M624.95,419.39c-1.66-.07-2.56-0.81-2.49-2.07a2.11,2.11,0,0,1,2-2,2.09,2.09,0,0,1,2.13,2.2C626.49,418.81,626,419.43,624.95,419.39ZM623,417.47a4.71,4.71,0,0,0,1.58,1.09,1.34,1.34,0,0,0,.87-1,1.45,1.45,0,0,0-.86-1.12C624.25,416.4,623.8,416.95,623,417.47Z" transform="translate(-385.26 -354.4)"/><path class="cls-1" d="M623,417.47c0.76-.53,1.21-1.07,1.59-1a1.45,1.45,0,0,1,.86,1.12,1.34,1.34,0,0,1-.87,1A4.71,4.71,0,0,1,623,417.47Z" transform="translate(-385.26 -354.4)"/></svg>