<?xml version="1.0" encoding="utf-8"?>
<!-- Generator: Adobe Illustrator 19.2.1, SVG Export Plug-In . SVG Version: 6.00 Build 0)  -->
<svg version="1.1" id="Ebene_1" xmlns="http://www.w3.org/2000/svg" xmlns:xlink="http://www.w3.org/1999/xlink" x="0px" y="0px"
	 viewBox="0 0 2450.3 1651.5" style="enable-background:new 0 0 2450.3 1651.5;" xml:space="preserve">
<style type="text/css">
	.st0{fill:url(#Wolke2-2_1_);}
	.st1{fill:url(#Wolke3-2_1_);}
	.st2{fill:url(#Wolke4-2_1_);}
</style>
<title>Dreiwolken1_hellblau</title>
<linearGradient id="Wolke2-2_1_" gradientUnits="userSpaceOnUse" x1="674.8002" y1="-72.95" x2="674.8002" y2="-702.92" gradientTransform="matrix(1 0 0 1 -90.51 780.83)">
	<stop  offset="0.4952" style="stop-color:#CBE9FF"/>
	<stop  offset="1" style="stop-color:#FFFFFF"/>
</linearGradient>
<path id="Wolke2-2" class="st0" d="M1115.7,268.2c-32.1-44.3-136.5-59.5-176-60.1c-5.3-28.7-136.3-65.1-244.5-67
	c-14-31.1-55.6-53.4-110.2-67.6C563.7,30.8,503.5,0,432.5,0c-70.2,0-129.8,30.1-151.9,72.1C200.7,95.1,147,138.3,147,187.8v1.2
	c-59.7,5-105.8,38-105.8,78.1c0,43.5,54.5,78.8,121.6,78.8c2,0,4,0,6-0.1c1.2,0.2,2.4,0.2,3.6,0.3h859
	C1111.8,346,1147.8,312.5,1115.7,268.2z"/>
<linearGradient id="Wolke3-2_1_" gradientUnits="userSpaceOnUse" x1="688.94" y1="1150.41" x2="688.94" y2="557.78" gradientTransform="matrix(1 0 0 1 -90.51 780.83)">
	<stop  offset="0.4567" style="stop-color:#CBE9FF"/>
	<stop  offset="1" style="stop-color:#FFFFFF"/>
</linearGradient>
<path id="Wolke3-2" class="st1" d="M1108.1,1506.4h-58.2c-11.1-36.9-51.8-64.2-100.4-64.2c-24.5,0-47,7-64.7,18.6
	c-18.8-61.7-87-107.3-168.2-107.3c-22.5-0.1-44.8,3.6-66.2,10.7c-11-69.6-83.8-123.4-171.9-123.4c-85.9,0-157.2,51.1-170.9,118.1
	c-9.8-1.4-19.7-2.1-29.5-2.1c-95.7,0-173.3,63.4-173.3,141.7c0,2.6,0.1,5.3,0.3,7.9H88.8c-49,0-88.8,32.5-88.8,72.6
	s39.7,72.6,88.8,72.6h1019.3c49,0,88.8-32.5,88.8-72.6S1157.1,1506.4,1108.1,1506.4z"/>
<linearGradient id="Wolke4-2_1_" gradientUnits="userSpaceOnUse" x1="2052.48" y1="666.45" x2="2052.48" y2="-39.38" gradientTransform="matrix(1 0 0 1 -90.51 780.83)">
	<stop  offset="0.4615" style="stop-color:#CBE9FF"/>
	<stop  offset="1" style="stop-color:#FFFFFF"/>
</linearGradient>
<path id="Wolke4-2" class="st2" d="M2377.9,926.8H2343c-11.9-21.4-37.9-36.2-68.1-36.2c-8.6,0-17.2,1.2-25.5,3.7
	c-16.1-24.1-47.1-40.4-82.7-40.4c-19.1-0.1-37.8,4.8-54.4,14.3c-20.5-35.2-64-59.5-114.3-59.5c-9.1,0-18.1,0.8-27.1,2.4
	c-22.2-40.6-71.6-68.8-128.8-68.8c-76.7,0-139.2,50.7-141.3,113.9c-14.8-5.3-30.4-7.9-46.1-7.9c-56.8,0-104.1,34-114,78.8
	c-37.5,2.3-67,28.2-67,59.9c0,33.2,32.4,60.1,72.4,60.1h831.7c40,0,72.4-26.9,72.4-60.1S2417.9,926.8,2377.9,926.8z"/>
</svg>
