<svg id="Ebene_1" data-name="Ebene 1" xmlns="http://www.w3.org/2000/svg" viewBox="0 0 611.24 50"><defs><style>.cls-1{fill:#7c7c7d;}.cls-2{fill:#d4b971;}.cls-3{fill:#fff;}</style></defs><title>Future Award</title><rect class="cls-1" y="8.42" width="2.75" height="30.75"/><rect class="cls-1" x="353.5" y="365" width="2.75" height="40.25" transform="translate(-365 364.67) rotate(-90)"/><rect class="cls-1" x="353.5" y="379" width="2.75" height="40.25" transform="translate(-379 378.67) rotate(-90)"/><path class="cls-1" d="M420.83,383.79v17.94a11.15,11.15,0,0,1-11.15,11.15h-13a11.15,11.15,0,0,1-11.15-11.15V383.79h-2.75v18.35a13.56,13.56,0,0,0,13.56,13.56H410a13.56,13.56,0,0,0,13.56-13.56V383.79h-2.75Z" transform="translate(-334.75 -375.33)"/><path class="cls-1" d="M515.31,383.79v18a11.16,11.16,0,0,1-11.15,11.17h-13A11.16,11.16,0,0,1,480,401.76v-18h-2.75v18.37a13.57,13.57,0,0,0,13.56,13.58h13.72a13.57,13.57,0,0,0,13.56-13.58V383.79h-2.75Z" transform="translate(-334.75 -375.33)"/><polygon class="cls-1" points="135.33 8.44 95.42 8.44 95.42 11.19 114 11.19 114 38.77 116.75 38.77 116.75 11.19 135.33 11.19 135.33 8.44"/><path class="cls-1" d="M566.47,394.67v-0.52a10.38,10.38,0,0,0-10.39-10.39l-30.33,0v30.58h2.75v-9H551l13.17,9.73,1.63-2.21-10.18-7.52h0.06A10.76,10.76,0,0,0,566.47,394.67Zm-38-8.13h27.39a7.85,7.85,0,0,1,7.85,7.85v0.43a7.85,7.85,0,0,1-7.85,7.85H528.5V386.54Z" transform="translate(-334.75 -375.33)"/><path class="cls-1" d="M946,398.47a14.71,14.71,0,0,0-14.72-14.71H908.51v0h-2.75v28.36h0v2.49h25.53A14.71,14.71,0,0,0,946,399.89v-1.42Zm-37.47-12H931.1a12.14,12.14,0,0,1,12.14,12.14V400a12.14,12.14,0,0,1-12.14,12.14H908.51V386.52Z" transform="translate(-334.75 -375.33)"/><polygon class="cls-1" points="463.28 9.63 460.77 8.49 448.52 35.34 434.78 6.92 421.05 35.34 408.79 8.49 406.29 9.63 421.05 41.17 434.78 12.6 448.52 41.17 463.28 9.63"/><path class="cls-1" d="M736.95,415.13l2.12-1.75-25.5-30.94-25.5,30.94,2.12,1.75,8.06-9.77h30.64ZM700.52,402.6l13.05-15.83,13.05,15.83h-26.1Z" transform="translate(-334.75 -375.33)"/><path class="cls-1" d="M848.31,415.13l2.12-1.75-25.5-30.94-25.5,30.94,2.12,1.75,8.06-9.77h30.64ZM811.88,402.6l13.05-15.83L838,402.6h-26.1Z" transform="translate(-334.75 -375.33)"/><path class="cls-1" d="M898.47,394.67v0a10.85,10.85,0,0,0-10.87-10.87l-29.85,0v30.58h2.75v-9H883l13.17,9.73,1.63-2.21-10.18-7.52h0.06A10.76,10.76,0,0,0,898.47,394.67Zm-38-8.13h27.39a7.85,7.85,0,0,1,7.85,7.85v0.43a7.85,7.85,0,0,1-7.85,7.85H860.5V386.54Z" transform="translate(-334.75 -375.33)"/><rect class="cls-2" x="242.92" width="99.5" height="50"/><rect class="cls-3" x="596.37" y="395.74" width="2.75" height="40.17" transform="translate(678.82 -557.26) rotate(90)"/><rect class="cls-3" x="596.37" y="380.4" width="2.75" height="40.17" transform="translate(663.48 -572.6) rotate(90)"/><rect class="cls-3" x="596.37" y="364.55" width="2.75" height="40.17" transform="translate(647.64 -588.45) rotate(90)"/></svg>