<svg xmlns="http://www.w3.org/2000/svg" xmlns:xlink="http://www.w3.org/1999/xlink" viewBox="0 0 216 322.5"><defs><style>.cls-1,.cls-14,.cls-18,.cls-20{fill:none;}.cls-2{isolation:isolate;}.cls-11,.cls-3,.cls-4{fill:#a2cee0;}.cls-3,.cls-4{fill-opacity:0.18;}.cls-4{stroke:#7198a8;stroke-opacity:0.46;}.cls-14,.cls-18,.cls-20,.cls-4{stroke-width:5px;}.cls-13,.cls-5{fill:#fff;}.cls-5{fill-opacity:0.31;}.cls-6{clip-path:url(#clip-path);}.cls-7{fill:#4bbcb4;}.cls-8{fill:#64b127;}.cls-9{opacity:0.5;mix-blend-mode:multiply;fill:url(#Unbenannter_Verlauf_401);}.cls-10{mix-blend-mode:overlay;fill:url(#Unbenannter_Verlauf_314);}.cls-11{fill-opacity:0.26;}.cls-12{fill:#7198a8;fill-opacity:0.06;}.cls-13{fill-opacity:0.41;}.cls-14{stroke:#79a1b1;stroke-opacity:0.73;}.cls-15{fill:#49697a;fill-opacity:0.75;}.cls-16{fill:#cf2f2f;}.cls-17{fill:#b52a2a;}.cls-18{stroke:#a32121;}.cls-19{fill:#ff8181;fill-opacity:0.11;}.cls-20{stroke:#961e1e;}.cls-21{fill:#d89494;fill-opacity:0.55;}.cls-22{fill:#672020;fill-opacity:0.8;}</style><clipPath id="clip-path" transform="translate(-17 -15)"><path class="cls-1" d="M125.79,304.75c-20.34-22.6-77.39-57.12-77.39-98.54,0-47.49,45.47-70,77.39-34.52,31.92-35.46,77.39-13,77.39,34.52C203.18,247.64,146.13,282.16,125.79,304.75Z"/></clipPath><radialGradient id="Unbenannter_Verlauf_401" cx="140.92" cy="253.06" r="199.31" gradientUnits="userSpaceOnUse"><stop offset="0" stop-opacity="0.9"/><stop offset="1" stop-color="#fff" stop-opacity="0"/></radialGradient><radialGradient id="Unbenannter_Verlauf_314" cx="9.39" cy="109.33" r="107.17" gradientUnits="userSpaceOnUse"><stop offset="0" stop-color="#fff" stop-opacity="0.9"/><stop offset="0.62" stop-color="#fff" stop-opacity="0.33"/><stop offset="1" stop-color="#fff" stop-opacity="0"/></radialGradient></defs><title>Jar, Logo_Herz</title><g class="cls-2"><g id="Ebene_1" data-name="Ebene 1"><ellipse class="cls-3" cx="108" cy="275" rx="100" ry="45"/><ellipse class="cls-4" cx="108" cy="275" rx="100" ry="45"/><path class="cls-5" d="M224.5,295.12c-5.6,22.44-48,39.88-99.43,39.88C69.8,335,25,314.88,25,290.06a23.42,23.42,0,0,1,4.63-13.56,20.85,20.85,0,0,0-.62,5.06c0,24.83,44.8,45,100.06,45C173.82,326.51,211.7,313.32,224.5,295.12Z" transform="translate(-17 -15)"/><path class="cls-3" d="M221.45,302A22.77,22.77,0,0,0,225,290.06C225,265.17,180.21,245,125,245c-54.17,0-98.3,19.41-100,43.63,11.61-19.09,50.41-33.12,96.47-33.12,55.24,0,100,20.17,100,45.06C221.5,301,221.49,301.53,221.45,302Z" transform="translate(-17 -15)"/><g class="cls-6"><circle class="cls-7" cx="108.82" cy="206.31" r="83.72"/><path class="cls-8" d="M66.76,204.49c-3.53,2.3-8.9,7.33-11.51,2.62s-4.43-7.58-8.37-2.62-3.66,32.44,0,33.49,6.57-2.09,8.52,7.33,10.85,33,17.12,32.44,4.19-8.9,6.8-12.56,3.8-4.56,2.23-12.41c-1.3-6.49,12.67-14.86,11.62-20.61s-6,9-13.33-5.17S71.58,201.35,66.76,204.49Z" transform="translate(-17 -15)"/><path class="cls-8" d="M69,188.27c4-2.62,16.57.52,11.86,3.14s-9.91-3.88-13.81,5.37c-2.34,5.54,7.23-.91,6,5.11S76.07,205,78,216s9.21,14.68,13.4,11,13.08-13.08,8.37-13.08-13.61-4.32-11-6.08,13.08,7.65,17.79,5a7.69,7.69,0,0,1,11,3.63c1.57,3.69,2.34,15.73,12.16,14.68s-5.88-6.28,6.68-9.42,6.28-7.17,10.47-3.06-1.89,8.61,4.85,5.47c0.63-.3,3,9.54,2.62,11.75,1.28,0.33,3.37,9,6.45,7.79,0.62-.44-0.94-6.09-2.27-6.57-3-1.09-3.58-10.05-1.8-8.37,4.13,3.9,5.12,3.31,5.29,5.58,8.14-4.24,4.71-9.66,1.19-12.45s6.16-6.48,9.83-5.4,7.33-7.29,5.76-10.43-8.75-15.4-6.48-16.7,8.43,8.88,9.8,8.85-1.6-8.3-1.95-10.32,8.05-7.47,4.39-11.65-5.23-7.33-8.37-8.9-3.66-7.33-.52-6.28,7.4,0.52,10,5.76,5.36,11.49,6.24,11.51-1.87-10.82-7.68-16.15c-10.66-9.77-25.29-20-35.23-20.48s-18-2-27.07-2.13c-6.45-.07-13.75,3.7-12.7,5.79s-5.61,0-5.61,0-6.42,3.17-4.33,4.74-6.88.53-3.7-2.62-8.49.53-5.27,4.19-6.73,5.23-6.73,5.23-4.71,7.33-6.8,4.71,9.16-1.8,1.69-4.23-15.64,12.71-18,15.17-3.07,4.9-2.54,5.08,2.27-3,2.09-1,1.57,2.09,2.27.35,1.22-4.36,2.09-4.71-0.52-1.74,1-3.49,5.47-5.58,4.74-3.84-3.87,3.49-3.52,4.88a1.93,1.93,0,0,0,1.4,1.57,8.1,8.1,0,0,0-2.27,3c-0.7,1.74-3.49,5.06-5.06,5.41s-0.35-2.62-1.74-1.74-2.27,2.09-2.09,3.31-2.44,2.09-2.79,3.66,0-4.71.87-5.76S49.81,186,50,188.58s3-4.36,2.79-1.74-3.31,2.79-2.62,4.36,0.69,2.79-.18,3.66-2.09.17-2.79,2.79-2.67,6.06-1,5.93,4-3.84,4.36-5.58,1.92-4.36,2.27-3.84,0.7-1.92,1.74-1.57,0.87,3,2.09,2.79,2.44,2.27,1,3.14-3,1.74-1,1.92,2.09-1.57,2.44-3,1.4-1.92,1.57-1.57-3.49-2.44-3.14-4.19,3.14,0.87,3.31,2.09,0.7,6.11,2.09,6.8,2.44-2.44,1.92-3.49,0.35-4.88,1-2.62,2.44-2.09,2.27-4.19S69,188.27,69,188.27Z" transform="translate(-17 -15)"/><path class="cls-8" d="M91.32,184.72c1.39,0.26,1-4.34-1.4-2.24s-4.54,1-4,3.31S89,190,88.76,192.25s-0.58,4,2.21,4.36S95.87,197.13,94,194s-2-5.23-3.23-7S90.28,184.52,91.32,184.72Z" transform="translate(-17 -15)"/><path class="cls-8" d="M191.62,181.93c-1.52-1.81,2.09,4-1.74,1.59s-2.44-1.25-2.27,1,3.13,8.73,1.83,10.13-4.62,1.74-5.14,3.66,1,7,1.74,6.45-0.7-3.31,1-4a12.71,12.71,0,0,0,4.67-3.15c1-1.21-1.35-7.84-2.05-9.59S195.11,186.09,191.62,181.93Z" transform="translate(-17 -15)"/><path class="cls-8" d="M90.28,259.58c-0.7,2.44.17,4.19-3,3.84s0.35,1.57,0,3.31-3,5.93-.17,5.76,4,1.57,4.88-3.31,2.09-8.2,0-9.59S90.28,259.58,90.28,259.58Z" transform="translate(-17 -15)"/><path class="cls-8" d="M166.16,272.65c-0.79,3.43,1,7-.87,9.08s1.22,1.92,5.93-.87,8.72-5.51,9.07-3.1,1.72,4.49,6.45,0,9.59-11,8.72-19.05-0.45-5.06-2.75-.87-3.53,2.09-3,.35,2.38-3-1.25-2.79-3,2.07-4.26,3.57-1.81-.27-2.86,0-1.92,3.93-3.14,4.28-1.74,1.46-2.79,2.56S167.2,268.11,166.16,272.65Z" transform="translate(-17 -15)"/><path class="cls-8" d="M158.31,244.58c-0.43-1-4-5.23-7.33-5.93s0.17,2.79,1.57,4,4.71,5.06,4.71,6.45,1.4,3.84,3.31,3.31,4.19-2.09,3-4S159.7,247.89,158.31,244.58Z" transform="translate(-17 -15)"/><path class="cls-8" d="M173.66,237.08c-2.35,3.48-2.62,7.5-4.88,6.8s-3.14,1.92-1.4,4,2.79,2.44,4.36,1.92a4.83,4.83,0,0,0,3.31-4.28c0.35-2.52,1.74-2,1.74-2s-1-2.64,0-4.38S175.11,234.93,173.66,237.08Z" transform="translate(-17 -15)"/><path class="cls-8" d="M180.14,221.31c0.18-2.43-1.19,4.43,0,7s3.29,3.84,1.37,5.76,1.71,4.19,2.69,3,2.16-3.14,0-6.8S180,223.34,180.14,221.31Z" transform="translate(-17 -15)"/><path class="cls-8" d="M199,251.38c0.52-.76-0.65-4.84-2.27-5.81s-4.36-2.21-5.23-1.16,0.7-1.66-1.74-1.27-2.16,3.62-1.25,4.1,2-1.87,3,0-0.79,3.62,1.26,4.14,3.8-1.49,4.67-1.35S198.43,252.14,199,251.38Z" transform="translate(-17 -15)"/><path class="cls-8" d="M165.34,253c-0.41-.37-1.8-1.31-2.56-0.51s-0.58,3.36,1.63,2.78A22,22,0,0,1,171,255c1.1,0.12,6.16.51,7.85-.27s2.38-.9.81,0.64,0.58,1.19,2.27-.32,2.73-2.47,2.79-2.54a18.52,18.52,0,0,0-5.06.74c-1.8.64-7.38,1.45-8.25,0.76s-2.15-1.66-3.26-1.5S166,253.65,165.34,253Z" transform="translate(-17 -15)"/><path class="cls-8" d="M183.08,242c-1.58.79-3.6-.4-4.59,1.14s-3,3.69-2,5.78,1.57,3.8,1.92,1.15,0.29,0.83,1.22.48,2-.76,1.11-2.38-1.28-1.92-.06-2,2.09,1.1,2.73,1.92,4.59,0.81,4.07-.29,0-2-1.34-1-0.81,2.06-2,.65-2.56-3.56-3.66-2.51-2.5.87-2,.06a3.55,3.55,0,0,1,3.53-1.23C183.25,244.05,184.47,241.26,183.08,242Z" transform="translate(-17 -15)"/><path class="cls-8" d="M186.57,242.43c0-1,.35-2.79-0.64-1.22a8.8,8.8,0,0,0-.81,4.32S186.59,243.42,186.57,242.43Z" transform="translate(-17 -15)"/><circle class="cls-9" cx="108.82" cy="206.31" r="83.72"/><circle class="cls-10" cx="108.82" cy="206.31" r="83.72"/></g><path class="cls-11" d="M221,303c-12.65,18.52-50.83,32-96,32-49.85,0-91.18-16.42-99-38-3.77-8.69-6.5-25-6.5-55V125c0-34.49,4.14-49.46,9.5-56,12.61-18.5,50.8-32,96-32,47.43,0,87.15,14.86,97.5,35,4.66,7.86,8,24.23,8,57.5V241C230.5,280.32,226.35,296.43,221,303Z" transform="translate(-17 -15)"/><path class="cls-5" d="M19.5,125V242c0,30,2.73,46.31,6.5,55,7.81,21.58,49.15,38,99,38,3,0,6-.06,9,0-45.76-2-82.64-17.72-90-38-3.78-8.69-6.5-25-6.5-55V125c0-7.9.22-14.75,0.5-20.5C29.77,97.72,25,90.11,25,82,25,82,19.5,90.51,19.5,125Z" transform="translate(-17 -15)"/><path class="cls-12" d="M212,130.5v117c0.11,7.9-.1,14.74-0.5,20.5,8.29,6.78,13,14.39,13,22.5,0,0,5.5-8.52,5.5-43v-117c0-25.87-2-41.54-5-51,0,0.83,0,6.43,0,7.5,0,8.72-4.82,17.12-13.5,24.5C212,117,212.11,123.39,212,130.5Z" transform="translate(-17 -15)"/><path class="cls-13" d="M20.5,97c9.88,22.57,51.4,39.5,101,39.5,57.22,0,103.5-22.32,103.5-50,0-.67,0-1.5,0-2.5-2.76,24-46.51,42.88-100,43-55.4-.11-100.22-20.25-100-45C24.78,67.24,40.42,54.21,64.5,46,47.86,51.69,35.21,59.69,29,69,25.24,73.33,22.13,81.56,20.5,97Z" transform="translate(-17 -15)"/><ellipse class="cls-3" cx="108" cy="67" rx="100" ry="45"/><path class="cls-14" d="M221,303c-12.65,18.52-50.83,32-96,32-49.85,0-91.18-16.42-99-38-3.77-8.69-6.5-25-6.5-55V125c0-34.49,4.14-49.46,9.5-56,12.61-18.5,50.8-32,96-32,47.43,0,87.15,14.86,97.5,35,4.66,7.86,8,24.23,8,57.5V241C230.5,280.32,226.35,296.43,221,303Z" transform="translate(-17 -15)"/><path class="cls-15" d="M34.29,77.26c0,22.25,39.33,40.74,91.1,40.74S217,99.5,217,77.26a18.13,18.13,0,0,0-.21-2.76c-3.29,21-41.77,38-91.39,38S35.29,95.5,32,74.5C32,74.5,34.29,76.33,34.29,77.26Z" transform="translate(-17 -15)"/><path class="cls-16" d="M32,73.27C32,95.51,73.79,114,125.5,114S219,95.51,219,73.27v-15C219,36,177.21,17.5,125.5,17.5S32,36,32,58.23v15Z" transform="translate(-17 -15)"/><path class="cls-17" d="M219,62V72.83c0,22.2-41.79,40.67-93.5,40.67S32,95,32,72.83V62c4.88,20.29,44.81,36.49,93.5,36.49S214.13,82.29,219,62Z" transform="translate(-17 -15)"/><path class="cls-18" d="M32,58.25C32,36,73.79,17.5,125.5,17.5S219,36,219,58.25,177.21,99,125.5,99,32,80.5,32,58.25Z" transform="translate(-17 -15)"/><path class="cls-19" d="M45.5,56c0-18.57,35.42-34,79.25-34S204,37.44,204,56s-35.42,34-79.25,34S45.5,74.57,45.5,56Z" transform="translate(-17 -15)"/><path class="cls-20" d="M32,73.27C32,95.51,73.79,114,125.5,114S219,95.51,219,73.27v-15C219,36,177.21,17.5,125.5,17.5S32,36,32,58.23v15Z" transform="translate(-17 -15)"/><path class="cls-21" d="M156.45,54a2.45,2.45,0,0,1,.5,3.58,8.52,8.52,0,0,1-6.38,3.92H98.62a2.13,2.13,0,0,1-2.12-1.78,2.15,2.15,0,0,0,1.11.31h52a8.51,8.51,0,0,0,6.38-3.92A2.74,2.74,0,0,0,156.45,54Z" transform="translate(-17 -15)"/><path class="cls-22" d="M101.91,51.5h51.93c1.62,0,3,2,1.62,4-1.32,2.21-4.18,4-6.37,4H97.15c-1.61,0-2.93-1.8-1.61-4S99.71,51.5,101.91,51.5Z" transform="translate(-17 -15)"/></g></g></svg>