<?xml version="1.0" encoding="utf-8"?>
<!-- Generator: Adobe Illustrator 19.2.1, SVG Export Plug-In . SVG Version: 6.00 Build 0)  -->
<svg version="1.1" id="Ebene_1" xmlns="http://www.w3.org/2000/svg" xmlns:xlink="http://www.w3.org/1999/xlink" x="0px" y="0px"
	 viewBox="0 0 145 60" style="enable-background:new 0 0 145 60;" xml:space="preserve">
<path d="M35.4,12.6v14.8h-6V12.6H0v34.9h11.9v-3.9H4.7V31.7h6.4v-4.3H4.7V16.6h10.2v30.9h4.7V16.6h5.1v30.9h4.7V31.7h6v15.8h4.7
	V12.6L35.4,12.6z M79.9,13.5v3h-4.5v30.2h-2.9V16.5H60.1v11.9h5.7v2.7h-5.7V44h6.5v2.7h-22V13.5h2.9V44h9.6V13.5H79.9 M80.7,12.8
	H56.5v30.5h-8.2V12.8H44v34.7h23.4v-4.2h-6.6V31.8h5.8v-4.1h-5.8V17.2h11v30.2h4.3V17.2h4.5L80.7,12.8
	C80.6,12.8,80.7,12.8,80.7,12.8z M82.9,12.8h4.8v35h-4.8V12.8z M100.9,22.8h4.7v-5.4c0,0-0.3-4.6-5.1-4.6H96c0,0-4.8,0-4.8,4.5v26.1
	c0,0,0.2,4.7,4.8,4.7h4.6c0,0,4-0.2,4.8-4.1v-4.2H101v2.4c0,0,0,1.6-2.5,1.6S96,42.2,96,42.2V18.5c0,0-0.1-1.4,2.5-1.4
	s2.5,1.2,2.5,1.2S100.9,22.8,100.9,22.8z M129,21.5l-3-5c-1.6,0.8-3.7,1.5-6.1,1.8c0.5,2,1.4,4.4,2.9,6.9L129,21.5z M119.8,22
	c-0.5-1.3-0.9-2.5-1.2-3.6h-1.2c-0.9,0-1.8-0.1-2.7-0.2c-0.6,2.9-0.7,6.8,1.6,10.8l5.5-3.3C120.9,24.5,120.3,23.2,119.8,22z
	 M130.7,21.9l2.9,4.9c1.6-0.9,3.5-1.6,5.7-2.1c-0.5-2.7-1.4-4.8-2.3-6.5L130.7,21.9L130.7,21.9z M127.9,31.3
	c1.2-1.3,2.7-2.7,4.6-3.9l-2.9-4.9l-6.2,3.7C124.6,27.9,126.1,29.6,127.9,31.3z M122.4,26.8l-5.5,3.3c0.7,1.1,1.5,2.1,2.6,3.2
	c1.5,1.5,3.1,2.7,4.9,3.4c0.3-0.6,1.2-2.5,2.8-4.6C125.2,30.4,123.6,28.6,122.4,26.8z M138.5,35.1c0.4-0.2,0.8-0.5,1.2-0.8h-0.1
	c0.3-3.2,0.2-6-0.1-8.4c-2,0.4-3.7,1.1-5.3,1.9L138.5,35.1L138.5,35.1z M125.4,37.2c1.4,0.5,3,0.7,4.5,0.7s2.9-0.3,4.3-0.8
	c-2.4-1.3-4.5-2.7-6.2-4.1C126.5,34.9,125.7,36.5,125.4,37.2z M128.8,32c1.9,1.6,4.2,3.1,7,4.5c0.6-0.2,1.1-0.5,1.6-0.8l-4.3-7.3
	C131.4,29.5,130,30.8,128.8,32z M107.8,12.7v34.7h35.5V12.7H107.8z M138.4,43.5h-0.7v2.2H137v-2.2h-0.7V43h2.1L138.4,43.5
	L138.4,43.5z M142.1,45.7h-0.7v-2.1l-0.7,2.1H140l-0.7-2.1v2.1h-0.7V43h1.1l0.6,1.8L141,43h1.1L142.1,45.7L142.1,45.7z M142.4,14.9
	l-4.4,2.6c1,1.8,1.9,4.1,2.5,6.9c0.6-0.1,1.3-0.2,1.9-0.2v1.2c-0.6,0-1.2,0.1-1.7,0.2c0.3,2.2,0.5,4.8,0.2,7.7
	c0.6-0.5,1.1-0.9,1.5-1.4v1.7c-2.9,2.6-7.4,5.2-12.4,5.3h-0.4c-4.1,0-7.8-1.6-11-4.9c-8.4-8.5-4.8-17.9-3.5-20.5h1.4
	c-0.2,0.3-0.9,1.6-1.4,3.5c1.2,0.1,2.4,0.2,3.4,0.1c-0.3-1.7-0.3-3-0.3-3.6h1.2c0,0.6,0,1.8,0.3,3.5c2.3-0.3,4.2-1,5.8-1.7l-1-1.8
	h1.4l0.7,1.2c0.7-0.4,1.3-0.8,1.8-1.2h1.9c-0.4,0.4-1.4,1.3-3,2.3l3,5l6.2-3.7c-1.3-2-2.5-3.1-3-3.5h1.8c0.6,0.7,1.5,1.6,2.3,2.9
	l4.8-2.9h0.2v1.3L142.4,14.9z"/>
</svg>
