<svg id="Ebene_1" data-name="Ebene 1" xmlns="http://www.w3.org/2000/svg" xmlns:xlink="http://www.w3.org/1999/xlink" viewBox="0 0 467.43 363.26"><defs><style>.cls-1{fill:#4d4d4d;}.cls-2{fill:#666;}.cls-3{fill:#999;}.cls-4{fill:#ccc;}.cls-5{fill:#fff;}.cls-6{fill:#e6e6e6;}.cls-7{fill:gray;}.cls-8{fill:#1a1a1a;}.cls-9{fill:#333;}.cls-10{fill:url(#Unbenannter_Verlauf_359);}.cls-11{fill:url(#Unbenannter_Verlauf_359-2);}.cls-12{fill:url(#Unbenannter_Verlauf_359-3);}.cls-13{fill:url(#Unbenannter_Verlauf_359-4);}.cls-14{fill:url(#Unbenannter_Verlauf_359-5);}.cls-15{fill:url(#Unbenannter_Verlauf_359-6);}.cls-16{fill:url(#Unbenannter_Verlauf_359-7);}.cls-17{fill:#8cc63f;}</style><radialGradient id="Unbenannter_Verlauf_359" cx="1051.81" cy="285.74" r="4.21" gradientTransform="matrix(-0.96, -0.12, 0, 1, 1674.49, 154.59)" gradientUnits="userSpaceOnUse"><stop offset="0" stop-opacity="0.5"/><stop offset="0.78" stop-color="#fff"/><stop offset="1" stop-color="#a8a8a7" stop-opacity="0.81"/></radialGradient><radialGradient id="Unbenannter_Verlauf_359-2" cx="1060.68" cy="299.86" r="4.21" xlink:href="#Unbenannter_Verlauf_359"/><radialGradient id="Unbenannter_Verlauf_359-3" cx="1069.85" cy="310.84" r="4.21" xlink:href="#Unbenannter_Verlauf_359"/><radialGradient id="Unbenannter_Verlauf_359-4" cx="1082.47" cy="321.66" r="4.21" xlink:href="#Unbenannter_Verlauf_359"/><radialGradient id="Unbenannter_Verlauf_359-5" cx="1097.95" cy="327.97" r="4.21" xlink:href="#Unbenannter_Verlauf_359"/><radialGradient id="Unbenannter_Verlauf_359-6" cx="1073.21" cy="290.97" r="4.21" gradientTransform="matrix(-0.96, 0, 0.1, 0.9, 1596.62, 90.69)" xlink:href="#Unbenannter_Verlauf_359"/><radialGradient id="Unbenannter_Verlauf_359-7" cx="1083.01" cy="263.48" r="4.21" gradientTransform="matrix(-0.95, 0.02, 0.11, 0.83, 1590.99, 118.92)" xlink:href="#Unbenannter_Verlauf_359"/></defs><title>Monitor_bestellen</title><g id="Monitor"><path class="cls-1" d="M706.29,544.63c0-13.88-34-25.12-75.9-25.12s-75.9,11.25-75.9,25.12v11.52c0,13.88,34,25.12,75.9,25.12s75.9-11.25,75.9-25.12V544.63Z" transform="translate(-406.36 -218)"/><ellipse class="cls-2" cx="224.03" cy="326.62" rx="75.9" ry="25.12"/><ellipse class="cls-1" cx="224.38" cy="324.14" rx="15.53" ry="3.71"/><polyline class="cls-1" points="239.91 324.14 239.91 293.82 208.85 289.98 208.85 324.14"/><polygon class="cls-2" points="0 252.82 429.22 337.09 443.87 329.76 467.43 62.29 25.13 0 7.85 5.23 0 252.82"/><polygon class="cls-1" points="429.22 337.09 450.5 70.14 467.43 62.29 443.87 329.76 429.22 337.09"/><polygon class="cls-3" points="450.5 70.14 7.85 5.23 25.13 0 467.43 62.29 450.5 70.14"/><polygon class="cls-4" points="10.82 240.43 416.65 319.3 436.55 82 19.89 22.68 10.82 240.43"/><polygon class="cls-1" points="10.82 240.43 20.41 237.64 417.18 314.06 416.65 319.3 10.82 240.43"/><polygon class="cls-1" points="20.41 237.64 28.79 23.9 19.89 22.68 10.82 240.43 20.41 237.64"/></g><polygon class="cls-5" points="413.61 306.07 27.07 232.16 34.8 31.04 430 87.72 413.61 306.07"/><g id="schuh"><path class="cls-6" d="M714.44,383.92s2.82,2.38,2.61,5.5-0.43,10.09-.43,10.09a16.94,16.94,0,0,1-11.72,2.62c-7.17-.88-113.77-14.19-113.77-14.19s-19.54-3.53-36.91-12.87S535.53,364,535.32,361.93s-0.22-11.75,3.69-13.07l3.91-1.32a81.37,81.37,0,0,0,11.72,8.2c5.86,3.2,28.66,12.31,38,14.36,5.23,1.15,88.37,12.65,94.88,13.45S711.62,384.7,714.44,383.92Z" transform="translate(-406.36 -218)"/><path class="cls-7" d="M543.78,345.83s4.92-2.4,7.53-1.78,17.95,3.78,18.24,4.12a0.79,0.79,0,0,1-.36,1.16c-0.43.1-1,2.36-1.09,3.17s-2.53,5.7-4.2,6.17S542.84,349.7,543.78,345.83Z" transform="translate(-406.36 -218)"/><path class="cls-8" d="M672.76,307.72s4.78-4.37,1.74-9.86-10-12.95-11.44-12.53-2.17,2.59-2.17,2.59-5.79,5-9.41,8.91S641.49,309,639.75,311,617.32,331,614.57,332.73s-9.41,5-11.15,6.75-29.24,9.79-30.25,11,2,1.9,2,1.9,17.95-5.31,19.83-5.08,31-.4,44.15-16.22,15.92-26.9,22.15-26A78.41,78.41,0,0,1,672.76,307.72Z" transform="translate(-406.36 -218)"/><path class="cls-4" d="M601.65,348.54c-0.22-1.27-1.19-12.88,2.61-11.74s4,0.38,4,.38-5.21-3-8.25-.56-3.69,7.78-2.93,11S601.65,348.54,601.65,348.54Z" transform="translate(-406.36 -218)"/><path class="cls-4" d="M584.71,351s0.54-7.6,3.69-8.34,8.14-3.85,9.55-2.32-1.74-.1-3.91,1.32-6.19,6.68-6.19,8.37S584.71,351,584.71,351Z" transform="translate(-406.36 -218)"/><path class="cls-4" d="M618.58,329.77c-1.52-.3-6,0.06-5.32,2.5s4.13,12.91,4.56,13.3-5.1,1.74-5.1,1.74S607,337,608.38,334.15s4.67-5.63,7.38-5.52S618.58,329.77,618.58,329.77Z" transform="translate(-406.36 -218)"/><path class="cls-4" d="M624.55,343.35S616.2,330.6,616.85,328s1.74-6.1,5.1-6.25a13.73,13.73,0,0,1,6.08,1.2s-6-.62-6.51.1a5.12,5.12,0,0,0,.43,5.35c1.52,2,7.71,11.54,8.36,11.85S624.55,343.35,624.55,343.35Z" transform="translate(-406.36 -218)"/><path class="cls-4" d="M642.14,331.31c-1.09-.7-15.09-11.66-14.87-13.55s7.38-2.81,8.47-2.12a1.5,1.5,0,0,0,2-.44s-9.44-2.29-11.18,1-2.61,6.33-2,7.09,11.07,11.84,12.38,11.89S642.14,331.31,642.14,331.31Z" transform="translate(-406.36 -218)"/><path class="cls-4" d="M626.73,317a8.72,8.72,0,0,1,6.73-.64c1.74,0.78,12.38,4.56,12.38,4.56l-3.37,5.11S631,319.68,628,320.67,626.73,317,626.73,317Z" transform="translate(-406.36 -218)"/><path class="cls-9" d="M667.55,303.77c6.6,2.22,14.62,6.9,23.16,7.35S705,307,706.48,307.8s-4.78,15.8-3.62,26.16,2.61,16.85,5.36,19.74,4.34,8,5.07,16,1.16,12.92,1.16,12.92-2.46,3.3-20,1.45-101.83-13.93-101.83-13.93-14.55-3.36-23.52-7.32-7.24-4.2-7.24-4.2l5.36-10.16s7.53,2,10.28,1.86,14.19-5,19-5.19,25.77-3.45,32.86-9,14-12.7,21.42-24.57C656.83,301.7,657,300.22,667.55,303.77Z" transform="translate(-406.36 -218)"/><path class="cls-8" d="M542.84,347.6s-1.66-1.41.94-1.76-2.17-.72,2.24,2.38a150.83,150.83,0,0,0,15.71,9.29c2.53,1.14,18.17,7.27,19.11,7.53s8.9,2.45,12.09,3.14,31.12,5.47,32.93,5.77,48.64,6.57,48.64,6.57,26.34,2.78,30.18,2.58,9.55-.63,9.34-1.41,1.16-.61,1.09.21a7.68,7.68,0,0,1-.65,2,41.69,41.69,0,0,1-7.38.52c-4.2-.06-14.55-0.21-16.07-0.47s-18.09-2.3-18.09-2.3l-36.11-5-43.42-6.31s-5.5-1.35-9.12-2.4-17.95-6.79-18.53-7.08-10.49-4.52-11.8-5.28S543.57,348.59,542.84,347.6Z" transform="translate(-406.36 -218)"/><path class="cls-10" d="M657.41,315.45a4.81,4.81,0,0,0,4.05,4.71,3.58,3.58,0,0,0,4.05-3.71,4.81,4.81,0,0,0-4.05-4.71A3.58,3.58,0,0,0,657.41,315.45Z" transform="translate(-406.36 -218)"/><path d="M659.73,315.73a2.06,2.06,0,0,0,1.74,2,1.53,1.53,0,0,0,1.74-1.59,2.06,2.06,0,0,0-1.74-2A1.53,1.53,0,0,0,659.73,315.73Z" transform="translate(-406.36 -218)"/><path class="cls-11" d="M648.87,328.53a4.81,4.81,0,0,0,4.05,4.71,3.58,3.58,0,0,0,4.05-3.71,4.81,4.81,0,0,0-4.05-4.71A3.58,3.58,0,0,0,648.87,328.53Z" transform="translate(-406.36 -218)"/><path d="M651.19,328.81a2.06,2.06,0,0,0,1.74,2,1.53,1.53,0,0,0,1.74-1.59,2.06,2.06,0,0,0-1.74-2A1.53,1.53,0,0,0,651.19,328.81Z" transform="translate(-406.36 -218)"/><path class="cls-12" d="M640,338.42a4.81,4.81,0,0,0,4.05,4.71,3.58,3.58,0,0,0,4.05-3.71,4.81,4.81,0,0,0-4.05-4.71A3.58,3.58,0,0,0,640,338.42Z" transform="translate(-406.36 -218)"/><path d="M642.36,338.7a2.06,2.06,0,0,0,1.74,2,1.53,1.53,0,0,0,1.74-1.59,2.06,2.06,0,0,0-1.74-2A1.53,1.53,0,0,0,642.36,338.7Z" transform="translate(-406.36 -218)"/><path class="cls-13" d="M627.88,347.74a4.81,4.81,0,0,0,4.05,4.71,3.58,3.58,0,0,0,4.05-3.71,4.81,4.81,0,0,0-4.05-4.71A3.58,3.58,0,0,0,627.88,347.74Z" transform="translate(-406.36 -218)"/><path d="M630.2,348a2.06,2.06,0,0,0,1.74,2,1.53,1.53,0,0,0,1.74-1.59,2.06,2.06,0,0,0-1.74-2A1.53,1.53,0,0,0,630.2,348Z" transform="translate(-406.36 -218)"/><path class="cls-14" d="M613,352.23a4.81,4.81,0,0,0,4.05,4.71,3.58,3.58,0,0,0,4.05-3.71,4.81,4.81,0,0,0-4.05-4.71A3.58,3.58,0,0,0,613,352.23Z" transform="translate(-406.36 -218)"/><path d="M615.29,352.51a2.06,2.06,0,0,0,1.74,2,1.53,1.53,0,0,0,1.74-1.59,2.06,2.06,0,0,0-1.74-2A1.53,1.53,0,0,0,615.29,352.51Z" transform="translate(-406.36 -218)"/><path class="cls-15" d="M596.07,354a4.49,4.49,0,0,0,4.45,3.78,3.43,3.43,0,0,0,3.59-3.79,4.49,4.49,0,0,0-4.45-3.78A3.43,3.43,0,0,0,596.07,354Z" transform="translate(-406.36 -218)"/><path d="M598.37,354a1.92,1.92,0,0,0,1.91,1.62,1.47,1.47,0,0,0,1.54-1.62,1.92,1.92,0,0,0-1.91-1.62A1.47,1.47,0,0,0,598.37,354Z" transform="translate(-406.36 -218)"/><path class="cls-16" d="M581.33,355.66a4.33,4.33,0,0,0,4.46,3.42c2.22,0,3.82-1.63,3.57-3.56a4.33,4.33,0,0,0-4.46-3.42C582.68,352.14,581.08,353.73,581.33,355.66Z" transform="translate(-406.36 -218)"/><path d="M583.63,355.62a1.85,1.85,0,0,0,1.91,1.46,1.42,1.42,0,0,0,1.53-1.52,1.85,1.85,0,0,0-1.91-1.46A1.42,1.42,0,0,0,583.63,355.62Z" transform="translate(-406.36 -218)"/><path class="cls-4" d="M650.9,330.43c0-2.92.43-4.15,1.88-3.23s5.07,6,6.95,11.22,12.74,37.78,9.55,45.66-10,14.1-11.58,14.36-10.28.84-10.86-.13-10.13-.49-10.13-0.49l-0.14-1.22,9.7,0.14s0.87-1.25,3-.68,5.65,1,6.22.31,10.86-12.19,9.84-15.77S650.9,331.63,650.9,330.43Z" transform="translate(-406.36 -218)"/><path class="cls-4" d="M644.1,338s1.88,0.23,1.59-.41-24.32-13.66-24.32-13.66l-1.3,2.55,3.18,4.75s17.23,10.83,20.12,9.68S644.1,338,644.1,338Z" transform="translate(-406.36 -218)"/><path class="cls-4" d="M631.79,348.07l2.17-.48S618.83,332.4,612.25,332c-2.46-.15.72,5.65,0.72,5.65s16.21,12.51,17.8,12.41S631.79,348.07,631.79,348.07Z" transform="translate(-406.36 -218)"/><path class="cls-4" d="M617,352.42s2.75,0.64,2.46-.3S606,336.19,601.4,337.88s-1.3,3.75-1.3,3.75,13.46,11.87,14.62,12.77S617.75,354.62,617,352.42Z" transform="translate(-406.36 -218)"/><path class="cls-4" d="M600.53,354c0.36-.78,3.18,2.34,2.46.45s-7.09-12.29-10.71-11.69-4.2,2-4.2,2,8.11,9,9.55,10S599.8,355.57,600.53,354Z" transform="translate(-406.36 -218)"/><path class="cls-4" d="M585.47,355.91c0.41-.8,2.46.3,2.32-0.62s-2.89-10.12-1.88-10,1-1.68-.14-1.67-4.92,1-4.92,1.65-0.87,7,1.74,10S585.18,356.48,585.47,355.91Z" transform="translate(-406.36 -218)"/><path class="cls-5" d="M671.16,344c0,8.88,6.93,16.93,15.49,18s15.49-5.3,15.49-14.18-6.93-16.93-15.49-18S671.16,335.16,671.16,344Z" transform="translate(-406.36 -218)"/></g><path class="cls-17" d="M500.28,436.67L490,435l0.1,10.23-5.31-.88-0.1-10.23-10.29-1.71-0.05-5.2,10.29,1.71-0.1-10.23,5.31,0.88,0.1,10.23,10.29,1.71Z" transform="translate(-406.36 -218)"/><path class="cls-17" d="M528,451.89l-19.78-3.29-0.05-5.24,6.31,1-0.16-15.85-6.31-1,0-4.89a21.1,21.1,0,0,0,2.75.28,6.54,6.54,0,0,0,2.19-.22,2.91,2.91,0,0,0,1.48-1.05,3.59,3.59,0,0,0,.59-1.92l6.55,1.09,0.25,24.83,6.17,1Z" transform="translate(-406.36 -218)"/><path class="cls-17" d="M549.37,442.13l-0.71,3.66-8.08-1.34a9,9,0,0,0,7.12,5.71q3.16,0.52,6.85-1.84l0.76,0.13,0.07,6.71a20.89,20.89,0,0,1-8.87.4,17.71,17.71,0,0,1-9.24-4.27,16.55,16.55,0,0,1-4.86-8.19l-2.77-.46,0.73-3.66,1.41,0.23q-0.07-.82-0.08-1.64,0-.58,0-1.14l-2.13-.35,0.73-3.66,1.93,0.32a10.83,10.83,0,0,1,4.73-7q3.69-2.3,9.26-1.38a25.52,25.52,0,0,1,8.89,3.37l0.07,6.69-0.76-.13q-3.75-3.58-6.93-4.11-5.31-.88-7.21,3.85l10.35,1.72-0.71,3.66-10.43-1.73q0,0.58,0,1.16,0,0.83.1,1.63Z" transform="translate(-406.36 -218)"/><path class="cls-17" d="M577.63,460.14l-0.25-24.27-8.85-1.47-0.06-5.72,25.21,4.19,0.06,5.72-8.85-1.47,0.25,24.27Z" transform="translate(-406.36 -218)"/><path class="cls-17" d="M611.69,449.87l-0.58-.1a5.8,5.8,0,0,0-1.17-.41q-0.77-.2-1.69-0.35a8.78,8.78,0,0,0-2.32-.06,19.87,19.87,0,0,0-2.35.37l0.15,15.15-7-1.17-0.23-22.62,7,1.17,0,3.24q0.48-.36,1.33-0.9a10.28,10.28,0,0,1,1.55-.82,7.29,7.29,0,0,1,1.77-.5,5.9,5.9,0,0,1,1.92,0l0.76,0.15,0.77,0.19Z" transform="translate(-406.36 -218)"/><path class="cls-17" d="M621.52,441.63l-7.44-1.24L614,434.9l7.44,1.24Zm0.06,25.81-7-1.17-0.23-22.62,7,1.17Z" transform="translate(-406.36 -218)"/><path class="cls-17" d="M648.12,471.85L641,470.67l-0.11-11.22q0-1.37-.14-2.75a6.91,6.91,0,0,0-.43-2.07,2.86,2.86,0,0,0-1.06-1.27,5.26,5.26,0,0,0-3.58-.61,6.81,6.81,0,0,0-1.88.71l0.16,16-7-1.17-0.23-22.62,7,1.17,0,2.5a13.66,13.66,0,0,1,3.34-1.74,7.37,7.37,0,0,1,3.62-.22,7.94,7.94,0,0,1,5.31,3.06,11.06,11.06,0,0,1,1.89,6.64Z" transform="translate(-406.36 -218)"/><path class="cls-17" d="M675.93,476.47l-8.36-1.39-6.21-10.87-1.07,1.29,0.09,8.38-7-1.17L653,441.37l7,1.17,0.18,17.56,6.59-7.73,8.3,1.38-7.8,8.44Z" transform="translate(-406.36 -218)"/><path class="cls-17" d="M698.64,477.65a12.83,12.83,0,0,1-.85,5.19,6.39,6.39,0,0,1-2.44,3,8.19,8.19,0,0,1-3.74,1.18,19.55,19.55,0,0,1-4.86-.25,32.12,32.12,0,0,1-4.27-1q-2-.63-3.52-1.26l-0.06-5.66,0.82,0.14,1.24,0.65q0.72,0.36,1.44.68T684.1,481a10.89,10.89,0,0,0,1.69.42,10,10,0,0,0,3,.12,3.13,3.13,0,0,0,1.79-.76,3.24,3.24,0,0,0,.83-1.52,9.55,9.55,0,0,0,.22-2.37v-0.42a7.7,7.7,0,0,1-2.73,1.23,8,8,0,0,1-3.2.1,10.16,10.16,0,0,1-6.79-4q-2.41-3.25-2.47-9.1a13.41,13.41,0,0,1,.69-4.65,8.52,8.52,0,0,1,2-3.27,6.66,6.66,0,0,1,3-1.7,8.49,8.49,0,0,1,3.67-.16,11.24,11.24,0,0,1,3.1,1,12.74,12.74,0,0,1,2.5,1.6l0.25-1,6.82,1.13Zm-7.08-5.7-0.1-10.25a7.29,7.29,0,0,0-1.29-.62,8.07,8.07,0,0,0-1.53-.42,3.87,3.87,0,0,0-3.79,1,6.35,6.35,0,0,0-1.23,4.37,14.28,14.28,0,0,0,.22,2.52,5.72,5.72,0,0,0,.73,1.92,4.15,4.15,0,0,0,1.33,1.38,5.47,5.47,0,0,0,2.08.74,5.31,5.31,0,0,0,1.86,0A5.48,5.48,0,0,0,691.56,471.95Z" transform="translate(-406.36 -218)"/><path class="cls-17" d="M715.62,483.67q-6.39-1.06-9.83-4.69a13.16,13.16,0,0,1-3.5-9.29q-0.06-5.54,3.09-8.31t8.85-1.83a12.26,12.26,0,0,1,7.83,4.09,13.16,13.16,0,0,1,2.7,8.45l0,2.54-15.42-2.56a7.28,7.28,0,0,0,.69,2.74,5.91,5.91,0,0,0,1.51,1.93,7.38,7.38,0,0,0,2.12,1.25,13.2,13.2,0,0,0,2.64.71,10.59,10.59,0,0,0,2.41.13,10.32,10.32,0,0,0,2.17-.35,11.76,11.76,0,0,0,1.59-.56,12.42,12.42,0,0,0,1.19-.59l0.74,0.12,0.06,5.82-1.57.37a12.68,12.68,0,0,1-2,.27,19.28,19.28,0,0,1-2.36.08A22.18,22.18,0,0,1,715.62,483.67Zm2.18-14.44a6.28,6.28,0,0,0-1.07-3.58,4.46,4.46,0,0,0-3-1.67,3.64,3.64,0,0,0-3.19.7,4.31,4.31,0,0,0-1.24,3.13Z" transform="translate(-406.36 -218)"/><path class="cls-17" d="M735.54,486.37l-7-1.17-0.32-31.34,7,1.17Z" transform="translate(-406.36 -218)"/><path class="cls-17" d="M761.46,490.68l-7-1.17,0-2.36q-0.68.45-1.54,0.95a8.13,8.13,0,0,1-1.53.71,7.49,7.49,0,0,1-1.66.33,8.29,8.29,0,0,1-2-.13,8.8,8.8,0,0,1-6.14-4.22,16.62,16.62,0,0,1-2.34-8.93,14.34,14.34,0,0,1,.71-5,9.63,9.63,0,0,1,2.07-3.44,7,7,0,0,1,3-1.83,7.7,7.7,0,0,1,3.69-.24,10.53,10.53,0,0,1,2.91.86,22.37,22.37,0,0,1,2.66,1.6l-0.1-9.63,7,1.17Zm-7.1-7.41-0.11-11.1a6.69,6.69,0,0,0-1.37-.66,8.24,8.24,0,0,0-1.45-.41,3.73,3.73,0,0,0-3.79,1.14A7.34,7.34,0,0,0,746.4,477a9.86,9.86,0,0,0,1.06,5,4.53,4.53,0,0,0,3.3,2,4.88,4.88,0,0,0,1.87-.05A5.26,5.26,0,0,0,754.35,483.26Z" transform="translate(-406.36 -218)"/><path d="M563.75,411.35a7.78,7.78,0,0,1-.82,3.78,6.2,6.2,0,0,1-2.25,2.41,8.72,8.72,0,0,1-3.7,1.26,19.26,19.26,0,0,1-5.13-.31l-12-2-0.19-30,10.58,1.8a39.59,39.59,0,0,1,5,1.1,11.56,11.56,0,0,1,3.19,1.6,7.47,7.47,0,0,1,2.42,2.72,7.69,7.69,0,0,1,.82,3.48,6.18,6.18,0,0,1-1.07,3.72,5.05,5.05,0,0,1-3,2v0.16a10.28,10.28,0,0,1,4.46,3.14A8,8,0,0,1,563.75,411.35Zm-9.71-14a3.82,3.82,0,0,0-.38-1.55,2.89,2.89,0,0,0-1.16-1.3,5.49,5.49,0,0,0-1.76-.65q-1-.2-3-0.54l-0.52-.09,0,6.34,0.94,0.16q1.93,0.33,2.7.42a4,4,0,0,0,1.6-.15,1.89,1.89,0,0,0,1.24-1A3.71,3.71,0,0,0,554,397.39Zm2,12.5a4.17,4.17,0,0,0-.58-2.27,4.39,4.39,0,0,0-1.7-1.47,6.61,6.61,0,0,0-1.88-.61q-1.2-.23-3.21-0.57l-1.39-.24,0,7.51,0.4,0.07q2.93,0.5,4.06.65a5.85,5.85,0,0,0,2.29-.15,2.34,2.34,0,0,0,1.49-1A3.5,3.5,0,0,0,556,409.89Z" transform="translate(-406.36 -218)"/><path d="M579.28,423.76q-6.39-1.09-9.82-4.72a13.14,13.14,0,0,1-3.46-9.29q0-5.54,3.12-8.3t8.87-1.79a12.28,12.28,0,0,1,7.82,4.12,13.14,13.14,0,0,1,2.67,8.46l0,2.54-15.42-2.62a7.28,7.28,0,0,0,.68,2.74,5.89,5.89,0,0,0,1.5,1.93,7.37,7.37,0,0,0,2.12,1.25,13.16,13.16,0,0,0,2.64.72,10.67,10.67,0,0,0,2.41.14,10.22,10.22,0,0,0,2.17-.35,11.71,11.71,0,0,0,1.59-.55,12.32,12.32,0,0,0,1.19-.58l0.74,0.13,0,5.82-1.57.37a12.92,12.92,0,0,1-2,.26,19.32,19.32,0,0,1-2.36.07A22.14,22.14,0,0,1,579.28,423.76Zm2.24-14.42a6.27,6.27,0,0,0-1.06-3.58,4.46,4.46,0,0,0-3-1.67,3.65,3.65,0,0,0-3.2.68,4.3,4.3,0,0,0-1.25,3.13Z" transform="translate(-406.36 -218)"/><path d="M599,427.13a21.86,21.86,0,0,1-4.72-1.34,21.45,21.45,0,0,1-3.68-1.89l0-6,0.58,0.1,1.15,1a12.62,12.62,0,0,0,1.8,1.27,16.2,16.2,0,0,0,2.23,1.17,11.49,11.49,0,0,0,2.69.79,6.6,6.6,0,0,0,2.62,0A1.25,1.25,0,0,0,602.8,421a1.68,1.68,0,0,0-.53-1.28,7.21,7.21,0,0,0-2-1.11q-0.81-.34-2-0.78A21.58,21.58,0,0,1,596,417a10.38,10.38,0,0,1-4-3.12,7.49,7.49,0,0,1-1.36-4.48,5.41,5.41,0,0,1,.67-2.73,5.6,5.6,0,0,1,2-2,8.74,8.74,0,0,1,3.32-1.06,14.92,14.92,0,0,1,4.47.16,20.77,20.77,0,0,1,4.37,1.21,19.91,19.91,0,0,1,3.37,1.71l0,5.72-0.56-.1q-0.36-.34-1.15-1t-1.53-1.07a13,13,0,0,0-2-1,10.71,10.71,0,0,0-2.24-.64,5.44,5.44,0,0,0-2.58.08,1.26,1.26,0,0,0-1,1.21,1.79,1.79,0,0,0,.53,1.3,7.59,7.59,0,0,0,2.28,1.25q0.91,0.38,2.08.79a19,19,0,0,1,2.27,1,9.84,9.84,0,0,1,3.7,2.93,7.08,7.08,0,0,1,1.28,4.25,5.76,5.76,0,0,1-.72,2.9,5.27,5.27,0,0,1-2.1,2.07,9.15,9.15,0,0,1-3.4,1.07A16.21,16.21,0,0,1,599,427.13Z" transform="translate(-406.36 -218)"/><path d="M622,430.86q-4.3-.73-6.27-2.84a8.73,8.73,0,0,1-2-6.13l-0.07-10.57-2.69-.46,0-4.91,2.69,0.46,0-6.46,7,1.2,0,6.46,6.78,1.15,0,4.91-6.78-1.15,0.05,8q0,1.19,0,2.08a4.72,4.72,0,0,0,.33,1.64,2.86,2.86,0,0,0,1,1.29,4.85,4.85,0,0,0,2.08.77,5.82,5.82,0,0,0,1.48,0,5.36,5.36,0,0,0,1.27-.23l0.6,0.1,0,5a18.8,18.8,0,0,1-2.43.06A25,25,0,0,1,622,430.86Z" transform="translate(-406.36 -218)"/><path d="M642,434.42q-6.39-1.09-9.82-4.72a13.14,13.14,0,0,1-3.46-9.29q0-5.54,3.12-8.3t8.87-1.79a12.27,12.27,0,0,1,7.82,4.12,13.14,13.14,0,0,1,2.67,8.46l0,2.54-15.42-2.62a7.28,7.28,0,0,0,.68,2.74,5.9,5.9,0,0,0,1.5,1.93,7.4,7.4,0,0,0,2.12,1.25,13.23,13.23,0,0,0,2.64.72,10.61,10.61,0,0,0,2.41.14,10.28,10.28,0,0,0,2.17-.35,11.84,11.84,0,0,0,1.59-.55,12.4,12.4,0,0,0,1.19-.58l0.74,0.13,0,5.82-1.57.37a12.93,12.93,0,0,1-2,.26,19.33,19.33,0,0,1-2.36.07A22.14,22.14,0,0,1,642,434.42ZM644.27,420a6.27,6.27,0,0,0-1.06-3.58,4.46,4.46,0,0,0-3-1.67,3.65,3.65,0,0,0-3.2.68,4.3,4.3,0,0,0-1.26,3.12Z" transform="translate(-406.36 -218)"/><path d="M661.95,437.2l-7-1.2-0.2-31.32,7,1.2Z" transform="translate(-406.36 -218)"/><path d="M674.37,439.31l-7-1.2-0.2-31.32,7,1.2Z" transform="translate(-406.36 -218)"/><path d="M691.33,442.8q-6.39-1.09-9.82-4.72a13.14,13.14,0,0,1-3.46-9.3q0-5.54,3.12-8.3t8.87-1.79a12.27,12.27,0,0,1,7.82,4.12,13.14,13.14,0,0,1,2.67,8.46l0,2.54-15.42-2.62a7.29,7.29,0,0,0,.68,2.74,5.93,5.93,0,0,0,1.5,1.93,7.38,7.38,0,0,0,2.12,1.25,13.1,13.1,0,0,0,2.64.72,10.56,10.56,0,0,0,2.41.14,10.3,10.3,0,0,0,2.17-.35,11.87,11.87,0,0,0,1.59-.55,12.17,12.17,0,0,0,1.19-.58l0.74,0.13,0,5.82-1.57.37a12.76,12.76,0,0,1-2,.26,19.33,19.33,0,0,1-2.36.07A22.14,22.14,0,0,1,691.33,442.8Zm2.24-14.42a6.27,6.27,0,0,0-1.06-3.58,4.46,4.46,0,0,0-3-1.67,3.65,3.65,0,0,0-3.2.68,4.3,4.3,0,0,0-1.26,3.12Z" transform="translate(-406.36 -218)"/><path d="M725.36,448l-7.08-1.2-0.07-11.21q0-1.37-.13-2.75a6.9,6.9,0,0,0-.42-2.07,2.88,2.88,0,0,0-1.05-1.28,5.27,5.27,0,0,0-3.58-.62,6.75,6.75,0,0,0-1.88.71l0.1,16-7-1.2-0.14-22.6,7,1.2,0,2.5a13.68,13.68,0,0,1,3.35-1.72,7.39,7.39,0,0,1,3.62-.21,7.94,7.94,0,0,1,5.3,3.08,11,11,0,0,1,1.87,6.64Z" transform="translate(-406.36 -218)"/></svg>