<svg id="Ebene_1" data-name="Ebene 1" xmlns="http://www.w3.org/2000/svg" xmlns:xlink="http://www.w3.org/1999/xlink" viewBox="0 0 742.28 349.89"><defs><style>.cls-1{fill:#9b703e;}.cls-2{fill:#e6e6e6;}.cls-3{fill:gray;}.cls-4{fill:#1a1a1a;}.cls-5{fill:#ccc;}.cls-6{fill:#333;}.cls-7{fill:url(#Unbenannter_Verlauf_359);}.cls-8{fill:url(#Unbenannter_Verlauf_359-2);}.cls-9{fill:url(#Unbenannter_Verlauf_359-3);}.cls-10{fill:url(#Unbenannter_Verlauf_359-4);}.cls-11{fill:url(#Unbenannter_Verlauf_359-5);}.cls-12{fill:url(#Unbenannter_Verlauf_359-6);}.cls-13{fill:url(#Unbenannter_Verlauf_359-7);}.cls-14{fill:#fff;}.cls-15{fill:#c79a50;}</style><radialGradient id="Unbenannter_Verlauf_359" cx="1097.43" cy="344.87" r="10.99" gradientTransform="matrix(-0.96, 0, 0, 1, 1386.68, -216.79)" gradientUnits="userSpaceOnUse"><stop offset="0" stop-opacity="0.5"/><stop offset="0.78" stop-color="#fff"/><stop offset="1" stop-color="#a8a8a7" stop-opacity="0.81"/></radialGradient><radialGradient id="Unbenannter_Verlauf_359-2" cx="1120.6" cy="381.77" r="10.99" xlink:href="#Unbenannter_Verlauf_359"/><radialGradient id="Unbenannter_Verlauf_359-3" cx="1144.54" cy="410.43" r="10.99" xlink:href="#Unbenannter_Verlauf_359"/><radialGradient id="Unbenannter_Verlauf_359-4" cx="1177.52" cy="438.7" r="10.99" xlink:href="#Unbenannter_Verlauf_359"/><radialGradient id="Unbenannter_Verlauf_359-5" cx="1217.96" cy="455.19" r="10.99" xlink:href="#Unbenannter_Verlauf_359"/><radialGradient id="Unbenannter_Verlauf_359-6" cx="1236.28" cy="418.61" r="10.99" gradientTransform="matrix(-0.96, 0.12, 0.1, 0.89, 1596.62, -54.34)" xlink:href="#Unbenannter_Verlauf_359"/><radialGradient id="Unbenannter_Verlauf_359-7" cx="1273" cy="401.58" r="10.99" gradientTransform="matrix(-0.95, 0.13, 0.11, 0.82, 1590.99, -25.42)" xlink:href="#Unbenannter_Verlauf_359"/></defs><title>Schuh_machen</title><path class="cls-1" d="M683.84,304.24c-3.2,3.2-21.48,25.14-21.48,25.14l-87.64-12.46,0.35-24.56,30.16-26,35.65-5.48,43,21.94v21.48Z" transform="translate(-287.81 -216.79)"/><g id="schuh"><path class="cls-2" d="M755.91,505.44s7.37,5.3,6.81,13.54-1.13,26.5-1.13,26.5A49.21,49.21,0,0,1,731,556.08c-18.72,0-297.19-.59-297.19-0.59s-51-2.94-96.42-21.79-48.78-23-49.34-28.27-0.57-30.62,9.64-35.33l10.21-4.71s15.31,11.19,30.63,17.67,74.86,23,99.25,25.32c13.66,1.32,230.83,4.71,247.85,4.71S748.54,508.38,755.91,505.44Z" transform="translate(-287.81 -216.79)"/><path class="cls-3" d="M310.13,460.68s12.86-7.85,19.66-7.07,46.88,4.12,47.64,4.91,0.19,2.75-.95,3.14-2.65,6.48-2.84,8.64-6.62,15.7-11,17.47S307.67,471.09,310.13,460.68Z" transform="translate(-287.81 -216.79)"/><path class="cls-4" d="M647,319.75s12.48-13,4.54-26.3-26.09-30.62-29.87-29.05-5.67,7.46-5.67,7.46-15.12,14.92-24.58,26.3S565.35,333.09,560.81,339,502.2,398.26,495,403.76s-24.58,16.1-29.11,21.2-76.38,34.94-79,38.47,5.29,4.32,5.29,4.32,46.88-19.63,51.8-19.63,80.91-11,115.32-56.53,41.59-75.38,57.85-75A192.32,192.32,0,0,1,647,319.75Z" transform="translate(-287.81 -216.79)"/><path class="cls-5" d="M461.27,449.2c-0.57-3.24-3.12-33.27,6.81-31.5s10.49-.29,10.49-0.29S465,411.22,457,418.58s-9.64,21.49-7.66,29.74S461.27,449.2,461.27,449.2Z" transform="translate(-287.81 -216.79)"/><path class="cls-5" d="M417,461s1.42-20,9.64-23,21.27-12.66,25-9.13-4.54.29-10.21,4.71S425.26,453,425.26,457.44,417,461,417,461Z" transform="translate(-287.81 -216.79)"/><path class="cls-5" d="M505.51,394.73c-4-.29-15.6,2.06-13.9,8.24s10.78,32.39,11.91,33.27-13.33,6.18-13.33,6.18-15-25-11.34-33,12.19-16.19,19.28-16.78S505.51,394.73,505.51,394.73Z" transform="translate(-287.81 -216.79)"/><path class="cls-5" d="M521.11,428.3S499.27,397.67,501,390.61s4.54-16.49,13.33-18a33.82,33.82,0,0,1,15.88,1.18s-15.6.29-17,2.36-2.84,9.13,1.13,13.84,20.13,27.68,21.84,28.27S521.11,428.3,521.11,428.3Z" transform="translate(-287.81 -216.79)"/><path class="cls-5" d="M567,391.2c-2.84-1.47-39.42-25.62-38.85-30.62s19.28-9.72,22.12-8.24,5.1-1.77,5.1-1.77-24.67-2.94-29.21,6.18-6.81,17.37-5.1,19.14S550,403.27,553.44,403,567,391.2,567,391.2Z" transform="translate(-287.81 -216.79)"/><path class="cls-5" d="M526.78,358.81c4.25-3.24,13-5.3,17.58-3.83s32.33,7.95,32.33,7.95l-8.79,14.43s-30.06-13-37.72-9.42S526.78,358.81,526.78,358.81Z" transform="translate(-287.81 -216.79)"/><path class="cls-6" d="M633.41,311.11c17.23,3.68,38.19,13.35,60.5,11.78s37.43-15.31,41.21-13.74-12.48,42.79-9.45,69.49,6.81,43.18,14,49.86,11.34,19.63,13.23,40,3,33.37,3,33.37-6.43,9.42-52.18,10.21-266-3.73-266-3.73-38-4.12-61.44-11.58-18.91-8.64-18.91-8.64l14-28.27s19.66,2.75,26.85,1.57,37.05-17.67,49.53-19.63,67.3-17.27,85.83-34.15,36.68-37.69,56-71.06C605.43,309.15,605.8,305.22,633.41,311.11Z" transform="translate(-287.81 -216.79)"/><path class="cls-4" d="M307.67,465.59s-4.35-3.14,2.46-4.91-5.67-1.18,5.86,5.5,34.41,17.08,41,19.24,47.45,13.15,49.91,13.54,23.25,3.53,31.57,4.32,81.29,4.32,86,4.51,127,1.57,127,1.57,68.82-1.18,78.83-2.94,25-4.71,24.39-6.67,3-2,2.84.2a22.36,22.36,0,0,1-1.7,5.5,114.68,114.68,0,0,1-19.28,3.73c-11,1.18-38,4.12-42,3.93s-47.26-.2-47.26-0.2l-94.34-1.57-113.43-2.55s-14.37-1.77-23.82-3.34-46.88-12-48.4-12.56-27.41-8.44-30.82-10S309.56,467.95,307.67,465.59Z" transform="translate(-287.81 -216.79)"/><ellipse class="cls-7" cx="329.71" cy="128.08" rx="10.59" ry="10.99"/><ellipse cx="329.71" cy="128.08" rx="4.54" ry="4.71"/><ellipse class="cls-8" cx="307.41" cy="164.99" rx="10.59" ry="10.99"/><ellipse cx="307.41" cy="164.99" rx="4.54" ry="4.71"/><ellipse class="cls-9" cx="284.34" cy="193.65" rx="10.59" ry="10.99"/><ellipse cx="284.34" cy="193.65" rx="4.54" ry="4.71"/><ellipse class="cls-10" cx="252.58" cy="221.91" rx="10.59" ry="10.99"/><ellipse cx="252.58" cy="221.91" rx="4.54" ry="4.71"/><ellipse class="cls-11" cx="213.64" cy="238.4" rx="10.59" ry="10.99"/><ellipse cx="213.64" cy="238.4" rx="4.54" ry="4.71"/><path class="cls-12" d="M446.7,465.13c0.62,5.38,5.83,9.16,11.64,8.44s10-5.67,9.39-11.05-5.83-9.16-11.64-8.44S446.08,459.75,446.7,465.13Z" transform="translate(-287.81 -216.79)"/><path d="M452.7,464.38a4.33,4.33,0,0,0,5,3.62,4.43,4.43,0,0,0,4-4.74,4.33,4.33,0,0,0-5-3.62A4.43,4.43,0,0,0,452.7,464.38Z" transform="translate(-287.81 -216.79)"/><path class="cls-13" d="M408.2,474.31c0.65,5,5.87,8.31,11.66,7.49s10-5.49,9.32-10.44-5.87-8.31-11.66-7.49S407.56,469.36,408.2,474.31Z" transform="translate(-287.81 -216.79)"/><path d="M414.2,473.47c0.28,2.12,2.51,3.56,5,3.21s4.27-2.35,4-4.47-2.51-3.56-5-3.21S413.92,471.34,414.2,473.47Z" transform="translate(-287.81 -216.79)"/><path class="cls-5" d="M589.92,386.09c0-7.62,1.13-11,4.92-9S608.07,391.2,613,404.15s33.27,94.61,25,116.2-26.09,40-30.25,41.22-26.85,5.5-28.36,3.14-26.47,2-26.47,2l-0.38-3.14,25.33-2.75s2.27-3.53,7.94-2.75,14.75,0.79,16.26-1.18,28.36-35.33,25.71-44.36S589.92,389.23,589.92,386.09Z" transform="translate(-287.81 -216.79)"/><path class="cls-5" d="M572.15,408.08s4.92,0,4.16-1.57-63.52-27.87-63.52-27.87l-3.4,7.07,8.32,11.38s45,22.77,52.56,18.84S572.15,408.08,572.15,408.08Z" transform="translate(-287.81 -216.79)"/><path class="cls-5" d="M540,438.31l5.67-2S506.16,401.53,489,402.58c-6.43.39,1.89,14.53,1.89,14.53s42.35,27.48,46.51,26.7S540,438.31,540,438.31Z" transform="translate(-287.81 -216.79)"/><path class="cls-5" d="M501.45,454.4s7.18,0.79,6.43-1.57-35.16-37.3-47.26-31.41-3.4,10.21-3.4,10.21,35.16,26.7,38.19,28.66S503.34,459.9,501.45,454.4Z" transform="translate(-287.81 -216.79)"/><path class="cls-5" d="M458.34,463.82c0.94-2.14,8.32,5.1,6.43.39s-18.53-29.84-28-27.09-11,6.67-11,6.67,21.17,20.81,25,23.16S456.45,468.14,458.34,463.82Z" transform="translate(-287.81 -216.79)"/><path class="cls-5" d="M419,473.64c1.07-2.22,6.43,0,6-2.36s-7.56-25.52-4.92-25.52,2.65-4.71-.38-4.32-12.86,4.32-12.86,5.89-2.27,18.45,4.54,25.52S418.26,475.21,419,473.64Z" transform="translate(-287.81 -216.79)"/><ellipse class="cls-14" cx="395.5" cy="198.36" rx="40.46" ry="42.01"/></g><path class="cls-15" d="M737,413s-18.87,21.65-26.09,23.31-88.82,1.11-93.81,7.22-6.66,17.21,3.33,21.09-15-1.67-17.21,8.33,1.67,15.54,13.88,15.54H629.3s-3.33,7.77-2.22,11.1,5,8.33,16.1,8.33h11.1s-6.11,7.77-2.22,13.88,11.7,4.35,26.14,4.9,77.37,0.89,83.48-2.44,60.81-21.37,65.81-28,202.61-41,202.61-41l-28.31-98.81s-180.41,76.61-187.07,71.61-36.08-35-44.41-38.3-40-18.32-47.18-22.76-2.78,27.76-2.78,27.76S742.55,405.73,737,413Z" transform="translate(-287.81 -216.79)"/><path class="cls-15" d="M678,300.34c-4.78,5.84-15,17.56-13.79,23.2s9.41,17.56,15,17.56,16.3-9.41,19.44-15,10.66-5.64,14.42-9.41S725,303.48,725,297.21,727.54,284,722.53,279s-4.23-18.81-11.13-23.83-27.59-1.25-39.5-7.52S639.76,227.61,631,230.11s-24.45,15-30.1,16.3-20.06,8.15-21.32,11.29-8.15,29.47-7.52,33.23,18.18,16.93,22.57,7.52,5.64-17.56,8.78-21.32,35.11-8.15,43.27-2.51S683.65,293.44,678,300.34Z" transform="translate(-287.81 -216.79)"/><path class="cls-15" d="M579.55,269c-9.64,5.31-24.77,7.52-24.62,14.64s6.68,33.65,11.51,37.18,27.43,23.34,31.17,19.9,10.42-12.57,6.69-18.17-20.16-16.38-21.62-16.63S580,291.62,580,291.62Z" transform="translate(-287.81 -216.79)"/><path class="cls-15" d="M562.81,311.53c-8.71-3.41-17.87,5-14.52,13.76q0.22,0.58.5,1.14c3.76,7.52,9.41,13.64,21.16,16.93s16.93,8,18.81,3.76,3.76-15-1.41-19.28c-3.88-3.17-9.88-8.46-12.63-10.91a11.11,11.11,0,0,0-3.33-2Z" transform="translate(-287.81 -216.79)"/><path class="cls-15" d="M549.66,330.16c-2.14-.57-5.93,2.37-6.41,5.33s-0.89,13.37,9.34,19.19,23.53,9.62,27.54,5,3.49-12.44,2-14.33S549.66,330.16,549.66,330.16Z" transform="translate(-287.81 -216.79)"/><path class="cls-15" d="M702.46,256.14c8.94-.94,105.81-24.45,124.62-33.39s68.66-5.17,68.66-5.17l52.2,69.13s-14.58,32-22.57,33.39-151.9-6.58-163.66-6.11-49.78-1.71-49.78-1.71Z" transform="translate(-287.81 -216.79)"/></svg>