<svg id="Ebene_1" data-name="Ebene 1" xmlns="http://www.w3.org/2000/svg" viewBox="0 0 344.89 101.2"><defs><style>.cls-1{fill:#827e7d;}.cls-2{fill:#817d7c;}.cls-3{fill:#92bf29;}.cls-4{fill:#40a4b1;}.cls-5{fill:#a35982;}.cls-6{fill:#f3ad16;}.cls-7{fill:#30a7de;}.cls-8{fill:#e74849;}.cls-9{fill:#fdfdfd;}.cls-10{fill:#f6f6f6;}</style></defs><title>Social Impact</title><path class="cls-1" d="M717.25,392.4l-8,10.59c-1.54,2-1.53,2-3,.06-2.61-3.44-5.23-6.87-7.92-10.4a2.36,2.36,0,0,0-.38,2c0,5.93-.06,11.86,0,17.78,0,1.51-.47,1.86-1.89,1.82-3.58-.09-7.16-0.07-10.74,0-1.21,0-1.73-.2-1.72-1.59q0.08-21.21,0-42.42c0-1.28.45-1.55,1.61-1.53q5.56,0.09,11.11,0a2.75,2.75,0,0,1,2.48,1.25c2.59,3.45,5.27,6.85,7.85,10.31,0.74,1,1.16,1.14,2,0,2.61-3.52,5.34-7,8-10.43a2.39,2.39,0,0,1,2.12-1.16c3.77,0.07,7.53.06,11.3,0,1.14,0,1.48.37,1.47,1.5q0,21.3,0,42.61c0,1.18-.42,1.45-1.51,1.43-3.64-.06-7.29-0.11-10.93,0-1.59.06-1.78-.58-1.77-1.92,0.06-6.17,0-12.35,0-18.52C717.34,393.49,717.3,393.2,717.25,392.4Z" transform="translate(-554.4 -315.57)"/><path class="cls-2" d="M729.88,316a24.42,24.42,0,1,1-24.55,24.33A24.49,24.49,0,0,1,729.88,316Zm-0.09,34.56a10.22,10.22,0,0,0,10.34-10.09,10.49,10.49,0,0,0-10.26-10.28,10.26,10.26,0,0,0-10.35,10.29A10,10,0,0,0,729.8,350.52Z" transform="translate(-554.4 -315.57)"/><path class="cls-1" d="M735.16,391.4q0-10.46,0-20.92c0-1-.11-1.84,1.35-1.81,8,0.17,15.93-.35,23.87.27,9.87,0.76,17.63,9.84,17.1,19.79-0.59,11.13-8.7,18.82-19.9,18.87-2.22,0-8.17,0-8.17,0l0,6.66-14.19-.06S735.16,398.31,735.16,391.4Z" transform="translate(-554.4 -315.57)"/><path class="cls-2" d="M773.19,414.16s11.34-32.51,15.2-43.75a2.18,2.18,0,0,1,2.5-1.75c4.44,0.09,8.88.08,13.32,0a2.08,2.08,0,0,1,2.4,1.64c4.86,14.09,15.38,44,15.38,44l-15.12-.06-2-5.84-14.72-.06-1.53,6Z" transform="translate(-554.4 -315.57)"/><path class="cls-2" d="M819.44,363.16s11.34-32.51,15.2-43.75a2.18,2.18,0,0,1,2.5-1.75c4.44,0.09,8.88.08,13.32,0a2.08,2.08,0,0,1,2.4,1.64c4.86,14.09,15.38,44,15.38,44l-15.12-.06-2-5.84-14.72-.06-1.53,6Z" transform="translate(-554.4 -315.57)"/><path class="cls-2" d="M682.39,364.89a79.86,79.86,0,0,1-14.7-1.47c-1-.15-1.23-0.45-1-1.43,0.78-3.55,1.54-7.11,2.16-10.68,0.25-1.45.85-1.69,2.21-1.51,3.91,0.53,7.84.9,11.76,1.3a11.23,11.23,0,0,0,2.22,0c1.32-.13,2.42-0.64,2.6-2.15s-0.84-2.32-2.12-2.56c-3.15-.59-6.32-1-9.48-1.53-8.16-1.28-12.11-6.85-10.66-15,1.57-8.87,7.44-13.92,16.45-14.23,5.65-.2,11.17.83,16.73,1.61,1,0.14,1.45.41,1.12,1.65-0.87,3.27-1.64,6.58-2.23,9.91-0.28,1.6-1,1.81-2.39,1.63-3.91-.53-7.82-1-11.77-1.16-0.55,0-1.11,0-1.67,0-1.19,0-2.05.41-2.19,1.73a2,2,0,0,0,1.7,2.46c2.72,0.54,5.44,1,8.18,1.47,5,0.79,9.25,2.69,11.69,7.42,4.43,8.59-1.83,20.71-11.39,22.2A44.6,44.6,0,0,1,682.39,364.89Z" transform="translate(-554.4 -315.57)"/><path class="cls-2" d="M818.32,391.35c0.28-10.4,5.28-18,14.61-22.14,9-4,17.69-2.72,25.52,3.51,1.13,0.9,1,1.43.15,2.43-2.43,2.71-4.78,5.49-7.08,8.32-0.79,1-1.25,1.07-2.28.2a10.2,10.2,0,1,0-11.88,16.54,10.33,10.33,0,0,0,11.93-.85c1-.86,1.48-0.77,2.29.21,2.34,2.87,4.76,5.67,7.22,8.44,0.72,0.81.85,1.28-.08,2-7.05,5.8-15,7.38-23.61,4.57s-14.09-9-16.28-17.91A24.62,24.62,0,0,1,818.32,391.35Z" transform="translate(-554.4 -315.57)"/><path class="cls-2" d="M781.64,364.59c-12.34.39-23.25-9.86-24.32-21.87a24.52,24.52,0,0,1,21.08-26.67,24.19,24.19,0,0,1,19,5.45c1,0.8,1.13,1.31.22,2.32q-3.71,4.13-7.2,8.46c-0.83,1-1.3.95-2.28,0.16a10.2,10.2,0,1,0-.08,15.81c1.13-.94,1.66-0.91,2.57.21q3.42,4.26,7.08,8.32c0.88,1,.64,1.47-0.23,2.18A23.38,23.38,0,0,1,781.64,364.59Z" transform="translate(-554.4 -315.57)"/><path class="cls-1" d="M880.53,368.69c5.62,0,11.24,0,16.86,0,1.38,0,2,.25,1.9,1.8-0.13,3.52-.12,7,0,10.56,0,1.47-.47,1.74-1.79,1.7-2.84-.09-5.68,0-8.52-0.06-1.33,0-1.64.4-1.63,1.67,0.05,9.32.06,30.92,0.06,30.92L873.18,415s0-21.23.07-30.37c0-1.52-.38-2-2-2-2.83.12-5.68,0-8.52,0.07-1.36,0-1.64-.47-1.62-1.71,0.07-3.52.08-7,0-10.56,0-1.38.38-1.81,1.78-1.79C868.8,368.73,874.67,368.69,880.53,368.69Z" transform="translate(-554.4 -315.57)"/><path class="cls-1" d="M870.47,340.23c0-7,0-13.94,0-20.91,0-1.48.44-1.89,1.89-1.85,3.51,0.1,7,.12,10.55,0,1.62-.06,1.91.53,1.9,2-0.06,9.19,0,18.39-.06,27.58,0,1.43.34,1.91,1.84,1.87,3.7-.11,7.4,0,11.1-0.06,1.12,0,1.66.17,1.62,1.49-0.09,3.76-.06,7.53,0,11.29,0,1-.18,1.42-1.3,1.41-8.7,0-17.4-.06-26.1,0-1.44,0-1.4-.71-1.4-1.72Q870.49,350.78,870.47,340.23Z" transform="translate(-554.4 -315.57)"/><path class="cls-2" d="M816,340.22c0,7,0,13.94,0,20.91,0,1.57-.47,2-2,1.91-3.64-.11-7.28-0.07-10.92,0a1.1,1.1,0,0,1-1.37-1.35q0-21.37,0-42.75c0-1.14.33-1.48,1.47-1.46,3.64,0.06,7.28.09,10.92,0,1.44,0,1.89.36,1.87,1.85C815.94,326.28,816,333.25,816,340.22Z" transform="translate(-554.4 -315.57)"/><path class="cls-2" d="M679.95,391.36c0,7,0,14.07,0,21.11,0,1.4-.39,1.78-1.76,1.74-3.7-.09-7.41-0.07-11.11,0-1.06,0-1.36-.33-1.36-1.37q0-21.39,0-42.78c0-1.25.53-1.39,1.55-1.38,3.7,0,7.41.06,11.11,0,1.22,0,1.57.37,1.56,1.59C679.92,377.29,679.95,384.33,679.95,391.36Z" transform="translate(-554.4 -315.57)"/><path class="cls-3" d="M647.32,368.7c2,0,4.08.08,6.11,0,1.38-.07,1.82.32,1.7,1.76a49,49,0,0,1-12.06,28.83,53.4,53.4,0,0,1-9.5,8.49c-1,.72-1.51.58-2.11-0.48q-3.14-5.56-6.42-11c-0.59-1-.38-1.43.47-2.08a34.07,34.07,0,0,0,13.7-23.64c0.18-1.43.67-2,2.19-1.86C643.37,368.82,645.35,368.7,647.32,368.7Z" transform="translate(-554.4 -315.57)"/><path class="cls-4" d="M603.75,416.77A50.76,50.76,0,0,1,583,411.93c-1.31-.6-1.39-1.09-0.66-2.28,2.19-3.57,4.26-7.21,6.32-10.86a1.32,1.32,0,0,1,2-.66,34.44,34.44,0,0,0,27.14.37,1.26,1.26,0,0,1,1.92.62c2.16,3.81,4.33,7.6,6.59,11.34,0.68,1.13.21,1.42-.73,1.83A52.36,52.36,0,0,1,603.75,416.77Z" transform="translate(-554.4 -315.57)"/><path class="cls-5" d="M562.09,368.69c2.16,0,4.32,0,6.48,0a1.32,1.32,0,0,1,1.64,1.4,33.91,33.91,0,0,0,12.84,23.35c1,0.78,1.1,1.29.46,2.35-2.21,3.64-4.33,7.33-6.42,11-0.56,1-1,1.15-1.92.43-11.68-8.69-18.66-20.16-20.55-34.63-0.51-3.9-.4-3.92,3.58-3.92h3.89Z" transform="translate(-554.4 -315.57)"/><path class="cls-6" d="M647.14,362.77c-2.16,0-4.32,0-6.48,0a1.27,1.27,0,0,1-1.54-1.31,33.86,33.86,0,0,0-13.77-22.81c-0.92-.69-1.14-1.14-0.5-2.19q3.27-5.37,6.33-10.87c0.61-1.1,1.06-1.4,2.2-.59Q652,338.2,655,360.8c0.2,1.48-.09,2.13-1.77,2C651.23,362.66,649.18,362.77,647.14,362.77Z" transform="translate(-554.4 -315.57)"/><path class="cls-7" d="M604.79,316.26a50,50,0,0,1,20.49,4.24c1.17,0.5,1.45,1,.73,2.14-2.24,3.69-4.38,7.44-6.51,11.19a1.15,1.15,0,0,1-1.72.64,34,34,0,0,0-27,.38c-1,.44-1.37.06-1.83-0.74-2.1-3.7-4.21-7.4-6.42-11-0.74-1.21-.4-1.63.74-2.15A50.05,50.05,0,0,1,604.79,316.26Z" transform="translate(-554.4 -315.57)"/><path class="cls-8" d="M562.22,362.78c-2.22,0-4.44,0-6.66,0-1,0-1.25-.32-1.13-1.31,1.81-14.94,8.79-26.86,20.82-35.88,1.08-.81,1.53-0.66,2.17.49,2.06,3.72,4.21,7.39,6.4,11a1.32,1.32,0,0,1-.41,2.11,33.29,33.29,0,0,0-13,22c-0.19,1.25-.64,1.62-1.86,1.55C566.42,362.7,564.32,362.78,562.22,362.78Z" transform="translate(-554.4 -315.57)"/><path class="cls-9" d="M729.8,350.52a10,10,0,0,1-10.27-10.08,10.26,10.26,0,0,1,10.35-10.29,10.49,10.49,0,0,1,10.26,10.28A10.22,10.22,0,0,1,729.8,350.52Z" transform="translate(-554.4 -315.57)"/><path class="cls-9" d="M749.37,381.66s9-.18,10.46.2a5.85,5.85,0,0,1-1.18,11.57c-2.57.06-6.35,0-7.71,0s-1.54-.56-1.54-1.66S749.37,381.66,749.37,381.66Z" transform="translate(-554.4 -315.57)"/><polygon class="cls-10" points="242.89 68.11 246.63 79.06 239.66 78.99 242.89 68.11"/><path class="cls-10" d="M843.22,332.67c1.27,3.62,3.74,10.95,3.74,10.95l-7,.11S842.45,334.8,843.22,332.67Z" transform="translate(-554.4 -315.57)"/></svg>