<svg xmlns="http://www.w3.org/2000/svg" xmlns:xlink="http://www.w3.org/1999/xlink" viewBox="0 0 301.04 339.4"><defs><style>.cls-1{isolation:isolate;}.cls-2{fill:#e6e6e6;}.cls-3{fill:url(#Unbenannter_Verlauf_12);}.cls-4{fill:url(#Unbenannter_Verlauf_12-2);}.cls-21,.cls-25,.cls-26,.cls-5,.cls-8{mix-blend-mode:multiply;}.cls-5{fill:url(#Unbenannter_Verlauf_16);}.cls-6{fill:url(#Unbenannter_Verlauf_16-2);}.cls-7{fill:#f2f2f2;}.cls-8{opacity:0.8;fill:url(#Unbenannter_Verlauf_5);}.cls-9{fill:url(#Unbenannter_Verlauf_252);}.cls-10{fill:url(#Unbenannter_Verlauf_19);}.cls-11{fill:url(#Unbenannter_Verlauf_3);}.cls-12{fill:url(#Unbenannter_Verlauf_7);}.cls-13{fill:url(#Unbenannter_Verlauf_16-3);}.cls-14{fill:url(#Unbenannter_Verlauf_143);}.cls-15{fill:url(#Unbenannter_Verlauf_14);}.cls-16{fill:url(#Unbenannter_Verlauf_30);}.cls-17{fill:url(#Unbenannter_Verlauf_51);}.cls-18{fill:url(#Unbenannter_Verlauf_14-2);}.cls-19{fill:url(#Unbenannter_Verlauf_42);}.cls-20{fill:gray;}.cls-21{fill:#f9bc93;opacity:0.72;}.cls-22{fill:url(#Unbenannter_Verlauf_32);}.cls-23{fill:#f7931e;}.cls-24{fill:#fbb03b;}.cls-25{fill:url(#Unbenannter_Verlauf_254);}.cls-26{fill:url(#Unbenannter_Verlauf_254-2);}.cls-27{opacity:0.44;mix-blend-mode:overlay;fill:url(#Unbenannter_Verlauf_16-4);}</style><linearGradient id="Unbenannter_Verlauf_12" x1="324.44" y1="475.6" x2="304.29" y2="522.69" gradientTransform="translate(2.48 -2.2) rotate(0.32)" gradientUnits="userSpaceOnUse"><stop offset="0" stop-color="#603813"/><stop offset="0.02" stop-color="#694421" stop-opacity="0.94"/><stop offset="0.19" stop-color="#b6a595" stop-opacity="0.49"/><stop offset="0.33" stop-color="#e5e0dc" stop-opacity="0.2"/><stop offset="0.42" stop-color="#f6f6f6" stop-opacity="0.1"/><stop offset="0.52" stop-color="#d9d1ca" stop-opacity="0.26"/><stop offset="0.83" stop-color="#816246" stop-opacity="0.72"/><stop offset="1" stop-color="#603813" stop-opacity="0.9"/></linearGradient><linearGradient id="Unbenannter_Verlauf_12-2" x1="395.97" y1="484.24" x2="390.42" y2="533.92" xlink:href="#Unbenannter_Verlauf_12"/><linearGradient id="Unbenannter_Verlauf_16" x1="504" y1="419.59" x2="509.55" y2="360.56" gradientTransform="translate(2.48 -2.2) rotate(0.32)" gradientUnits="userSpaceOnUse"><stop offset="0" stop-color="#603813"/><stop offset="0.1" stop-color="#816144"/><stop offset="0.23" stop-color="#a28b75"/><stop offset="0.35" stop-color="#bfaea0"/><stop offset="0.47" stop-color="#d6ccc2"/><stop offset="0.6" stop-color="#e8e2dd"/><stop offset="0.73" stop-color="#f5f2f0"/><stop offset="0.86" stop-color="#fcfcfb"/><stop offset="1" stop-color="#fff"/></linearGradient><linearGradient id="Unbenannter_Verlauf_16-2" x1="333.69" y1="356.4" x2="316.74" y2="294.41" xlink:href="#Unbenannter_Verlauf_16"/><radialGradient id="Unbenannter_Verlauf_5" cx="424.24" cy="508.74" r="242.97" gradientTransform="translate(2.48 -2.2) rotate(0.32)" gradientUnits="userSpaceOnUse"><stop offset="0" stop-color="#754c24" stop-opacity="0.5"/><stop offset="1" stop-color="#fff" stop-opacity="0"/></radialGradient><radialGradient id="Unbenannter_Verlauf_252" cx="343.98" cy="321.72" r="131.59" gradientTransform="translate(2.48 -2.2) rotate(0.32)" gradientUnits="userSpaceOnUse"><stop offset="0" stop-color="#fff"/><stop offset="0.48" stop-color="#fff" stop-opacity="0.53"/><stop offset="1" stop-color="#fff" stop-opacity="0"/></radialGradient><radialGradient id="Unbenannter_Verlauf_19" cx="400.97" cy="409.64" r="94.98" gradientTransform="translate(945.2 228.98) rotate(115.36) scale(1 0.99)" gradientUnits="userSpaceOnUse"><stop offset="0" stop-color="#fff"/><stop offset="0.25" stop-color="#fff" stop-opacity="0.99"/><stop offset="0.38" stop-color="#fff" stop-opacity="0.96"/><stop offset="0.49" stop-color="#fff" stop-opacity="0.9"/><stop offset="0.59" stop-color="#fff" stop-opacity="0.83"/><stop offset="0.68" stop-color="#fff" stop-opacity="0.73"/><stop offset="0.76" stop-color="#fff" stop-opacity="0.61"/><stop offset="0.83" stop-color="#fff" stop-opacity="0.46"/><stop offset="0.9" stop-color="#fff" stop-opacity="0.29"/><stop offset="0.97" stop-color="#fff" stop-opacity="0.1"/><stop offset="1" stop-color="#fff" stop-opacity="0"/></radialGradient><linearGradient id="Unbenannter_Verlauf_3" x1="420.66" y1="471.02" x2="435.18" y2="559.92" gradientTransform="translate(2.48 -2.2) rotate(0.32)" gradientUnits="userSpaceOnUse"><stop offset="0.42" stop-color="#f6f6f6" stop-opacity="0.1"/><stop offset="0.52" stop-color="#d9d1ca" stop-opacity="0.26"/><stop offset="0.83" stop-color="#816246" stop-opacity="0.72"/><stop offset="1" stop-color="#603813" stop-opacity="0.9"/></linearGradient><linearGradient id="Unbenannter_Verlauf_7" x1="342.55" y1="554.98" x2="354.96" y2="458.05" gradientTransform="translate(2.48 -2.2) rotate(0.32)" gradientUnits="userSpaceOnUse"><stop offset="0" stop-color="#603813"/><stop offset="0.03" stop-color="#694421" stop-opacity="0.94"/><stop offset="0.26" stop-color="#b6a595" stop-opacity="0.49"/><stop offset="0.45" stop-color="#e5e0dc" stop-opacity="0.2"/><stop offset="0.57" stop-color="#f6f6f6" stop-opacity="0.1"/></linearGradient><linearGradient id="Unbenannter_Verlauf_16-3" x1="361.05" y1="378.88" x2="338.95" y2="298.08" xlink:href="#Unbenannter_Verlauf_16"/><radialGradient id="Unbenannter_Verlauf_143" cx="294.1" cy="458.28" r="35.78" gradientTransform="matrix(0.9, 0.43, -0.15, 0.31, 96.51, 189.79)" gradientUnits="userSpaceOnUse"><stop offset="0" stop-opacity="0.5"/><stop offset="1" stop-color="#fff" stop-opacity="0"/></radialGradient><linearGradient id="Unbenannter_Verlauf_14" x1="293.35" y1="450.13" x2="277.58" y2="422.02" gradientTransform="translate(2.48 -2.2) rotate(0.32)" gradientUnits="userSpaceOnUse"><stop offset="0" stop-color="#754c24"/><stop offset="0.07" stop-color="#896644"/><stop offset="0.2" stop-color="#a88e75"/><stop offset="0.33" stop-color="#c3b1a0"/><stop offset="0.46" stop-color="#d9cdc2"/><stop offset="0.59" stop-color="#e9e3dd"/><stop offset="0.72" stop-color="#f5f3f0"/><stop offset="0.86" stop-color="#fdfcfb"/><stop offset="1" stop-color="#fff"/></linearGradient><linearGradient id="Unbenannter_Verlauf_30" x1="326.05" y1="364.12" x2="306.47" y2="352.73" gradientTransform="translate(470.26 -95.83) rotate(60)" gradientUnits="userSpaceOnUse"><stop offset="0"/><stop offset="0.02" stop-color="#0a0a0a"/><stop offset="0.13" stop-color="#434343"/><stop offset="0.25" stop-color="#757575"/><stop offset="0.37" stop-color="#9f9f9f"/><stop offset="0.49" stop-color="#c2c2c2"/><stop offset="0.62" stop-color="#ddd"/><stop offset="0.74" stop-color="#f0f0f0"/><stop offset="0.87" stop-color="#fbfbfb"/><stop offset="1" stop-color="#fff"/></linearGradient><linearGradient id="Unbenannter_Verlauf_51" x1="335.44" y1="412.2" x2="251.93" y2="391.71" gradientTransform="translate(2.48 -2.2) rotate(0.32)" gradientUnits="userSpaceOnUse"><stop offset="0" stop-color="#fff" stop-opacity="0"/><stop offset="0.55" stop-color="#b9a897" stop-opacity="0.09"/><stop offset="1" stop-color="#603813" stop-opacity="0.2"/></linearGradient><linearGradient id="Unbenannter_Verlauf_14-2" x1="279.45" y1="401.91" x2="252.17" y2="386.27" xlink:href="#Unbenannter_Verlauf_14"/><linearGradient id="Unbenannter_Verlauf_42" x1="284.58" y1="393.31" x2="265" y2="381.92" gradientTransform="translate(461.03 -42.62) rotate(60)" gradientUnits="userSpaceOnUse"><stop offset="0" stop-color="#42210b"/><stop offset="0.12" stop-color="#6e5544"/><stop offset="0.24" stop-color="#948275"/><stop offset="0.36" stop-color="#b5a8a0"/><stop offset="0.48" stop-color="#d0c8c2"/><stop offset="0.61" stop-color="#e5e0dd"/><stop offset="0.73" stop-color="#f3f1f0"/><stop offset="0.86" stop-color="#fcfcfb"/><stop offset="1" stop-color="#fff"/></linearGradient><radialGradient id="Unbenannter_Verlauf_32" cx="400.97" cy="409.64" r="94.98" gradientTransform="translate(945.2 228.98) rotate(115.36) scale(1 0.99)" gradientUnits="userSpaceOnUse"><stop offset="0" stop-color="#fff" stop-opacity="0.5"/><stop offset="0.28" stop-color="#fff" stop-opacity="0.33"/><stop offset="0.6" stop-color="#fff" stop-opacity="0.15"/><stop offset="0.85" stop-color="#fff" stop-opacity="0.04"/><stop offset="1" stop-color="#fff" stop-opacity="0"/></radialGradient><radialGradient id="Unbenannter_Verlauf_254" cx="364.02" cy="423.55" r="20.89" gradientTransform="matrix(0.6, 0.8, -1.2, 0.9, 667.78, -253.2)" gradientUnits="userSpaceOnUse"><stop offset="0" stop-color="#754c24"/><stop offset="0.16" stop-color="#825d39" stop-opacity="0.91"/><stop offset="0.44" stop-color="#a58a70" stop-opacity="0.65"/><stop offset="0.8" stop-color="#ddd3c9" stop-opacity="0.24"/><stop offset="1" stop-color="#fff" stop-opacity="0"/></radialGradient><radialGradient id="Unbenannter_Verlauf_254-2" cx="412.55" cy="439.92" r="30.97" gradientTransform="matrix(0.85, 0.53, -0.43, 0.69, 261.26, -81.25)" xlink:href="#Unbenannter_Verlauf_254"/><linearGradient id="Unbenannter_Verlauf_16-4" x1="422.23" y1="490.16" x2="315.63" y2="162.84" gradientTransform="matrix(1, 0, 0, 1, 0, 0)" xlink:href="#Unbenannter_Verlauf_16"/></defs><title>Sparschwein_farbig_lächelnd</title><g class="cls-1"><g id="Ebene_1" data-name="Ebene 1"><g id="bein_hinten_links" data-name="bein hinten links"><path class="cls-2" d="M310.67,476.32c0.37,3.12.7,13.84-5.16,16.92s-8,6-6.09,9.32,6.18,8.8,22.54,9.87c3.33,0.22,6.93-20.81,6.93-20.81Z" transform="translate(-249.19 -227.23)"/><path class="cls-3" d="M310.67,476.32c0.37,3.12.7,13.84-5.16,16.92s-8,6-6.09,9.32,6.18,8.8,22.54,9.87c3.33,0.22,6.93-20.81,6.93-20.81Z" transform="translate(-249.19 -227.23)"/></g><g id="bein_hinten_rechts" data-name="bein hinten rechts"><path class="cls-2" d="M380.59,512.75c-1.19,3.89-2.57,6,.55,6.82s20,5,22,4S403,513.46,403,513.46Z" transform="translate(-249.19 -227.23)"/><path class="cls-4" d="M380.59,512.75c-1.19,3.89-2.57,6,.55,6.82s20,5,22,4S403,513.46,403,513.46Z" transform="translate(-249.19 -227.23)"/></g><g id="schwanz"><path class="cls-2" d="M507.46,400.86s19.89-2.62,21-31.44-22.63-28.76-26.94-25.67S491,353,490.74,360.05s8.27,19.53,13.75,14.49,7.46-9.89,4.34-10.5-6.45,4.25-8,.73,0.84-10.32,4.92-8.15,10.23,17.4-1.7,25.12S507.46,400.86,507.46,400.86Z" transform="translate(-249.19 -227.23)"/><path class="cls-5" d="M507.46,400.86s19.89-2.62,21-31.44-22.63-28.76-26.94-25.67S491,353,490.74,360.05s8.27,19.53,13.75,14.49,7.46-9.89,4.34-10.5-6.45,4.25-8,.73,0.84-10.32,4.92-8.15,10.23,17.4-1.7,25.12S507.46,400.86,507.46,400.86Z" transform="translate(-249.19 -227.23)"/></g><g id="ohr_hinten" data-name="ohr hinten"><path class="cls-2" d="M315.06,317.57c-5.47,3.09-10.35,4.62-7.84,8.14s7.3,19.13,5.72,22.63,31.28-19.89,31.28-19.89l-2.63-16.77s-3.47-7.23-11.09-2.59S315.06,317.57,315.06,317.57Z" transform="translate(-249.19 -227.23)"/><path class="cls-6" d="M315.06,317.57c-5.47,3.09-10.35,4.62-7.84,8.14s7.3,19.13,5.72,22.63,31.28-19.89,31.28-19.89l-2.63-16.77s-3.47-7.23-11.09-2.59S315.06,317.57,315.06,317.57Z" transform="translate(-249.19 -227.23)"/></g><g id="Körper"><path class="cls-7" d="M511.68,413.55c0.31-55.62-50.28-101-113-101.35S284.84,356.65,284.53,412.28a90.27,90.27,0,0,0,1.14,14.86q0.17,1,.36,2.07c0.2,0.48.39,0.94,0.62,1.37l1,0.7,0.9,0.67c1.46,4,9.46,3,8.46,8-1,2-7,2-5.82,5.76a8.77,8.77,0,0,0,.22,1.3c0.73,3,2.46,5.69,3.94,8.68l0.78,1.44c18.41,33.23,56.85,56.2,101.42,56.45C460.26,514,511.36,469.17,511.68,413.55Z" transform="translate(-249.19 -227.23)"/><path class="cls-8" d="M511.68,413.55c0.31-55.62-50.28-101-113-101.35S284.84,356.65,284.53,412.28a90.27,90.27,0,0,0,1.14,14.86q0.17,1,.36,2.07c0.2,0.48.39,0.94,0.62,1.37l1,0.7,0.9,0.67c1.46,4,9.46,3,8.46,8-1,2-7,2-5.82,5.76a8.77,8.77,0,0,0,.22,1.3c0.73,3,2.46,5.69,3.94,8.68l0.78,1.44c18.41,33.23,56.85,56.2,101.42,56.45C460.26,514,511.36,469.17,511.68,413.55Z" transform="translate(-249.19 -227.23)"/><path class="cls-9" d="M511.68,413.55c0.31-55.62-50.28-101-113-101.35S284.84,356.65,284.53,412.28a90.27,90.27,0,0,0,1.14,14.86q0.17,1,.36,2.07c0.2,0.48.39,0.94,0.62,1.37l1,0.7,0.9,0.67c1.46,4,9.46,3,8.46,8-1,2-7,2-5.82,5.76a8.77,8.77,0,0,0,.22,1.3c0.73,3,2.46,5.69,3.94,8.68l0.78,1.44c18.41,33.23,56.85,56.2,101.42,56.45C460.26,514,511.36,469.17,511.68,413.55Z" transform="translate(-249.19 -227.23)"/><circle class="cls-10" cx="400.03" cy="416.43" r="150.2" transform="translate(-267.82 586.89) rotate(-89.68)"/></g><g id="Bein_rechts" data-name="Bein rechts"><path class="cls-2" d="M400.54,499.43c0.38,2.34,1.1,18.54.37,23.1S399.53,534.3,413.4,537s43.35-5.55,43.83-12.08-6.37-31.15-9.53-35-22.33-11.39-33.22-4.65S400.16,497.09,400.54,499.43Z" transform="translate(-249.19 -227.23)"/><path class="cls-11" d="M400.54,499.43c0.38,2.34,1.1,18.54.37,23.1S399.53,534.3,413.4,537s43.35-5.55,43.83-12.08-6.37-31.15-9.53-35-22.33-11.39-33.22-4.65S400.16,497.09,400.54,499.43Z" transform="translate(-249.19 -227.23)"/></g><g id="bein_links" data-name="bein links"><path class="cls-2" d="M327.34,490.44c-0.4,2.34-5,17.89-7.14,22s-5.12,10.69,7.11,17.77S370.12,539,372.69,533s4.07-31.54,2.35-36.22-17.43-18-29.92-15.17S327.74,488.11,327.34,490.44Z" transform="translate(-249.19 -227.23)"/><path class="cls-12" d="M327.34,490.44c-0.4,2.34-5,17.89-7.14,22s-5.12,10.69,7.11,17.77S370.12,539,372.69,533s4.07-31.54,2.35-36.22-17.43-18-29.92-15.17S327.74,488.11,327.34,490.44Z" transform="translate(-249.19 -227.23)"/></g><g id="ohr_vorne" data-name="ohr vorne"><path class="cls-2" d="M326.39,347.64c1.23-10.71-2.21-22-3.76-24.37s8.44-10.47,14.69-13.55,18.94-8.08,21.83-1.83,10.62,17.59,14.12,17.61S369.5,337.16,359.15,341,325.88,352.05,326.39,347.64Z" transform="translate(-249.19 -227.23)"/><path class="cls-13" d="M326.39,347.64c1.23-10.71-2.21-22-3.76-24.37s8.44-10.47,14.69-13.55,18.94-8.08,21.83-1.83,10.62,17.59,14.12,17.61S369.5,337.16,359.15,341,325.88,352.05,326.39,347.64Z" transform="translate(-249.19 -227.23)"/></g><g id="mund"><path class="cls-2" d="M281.72,427.65c-6.26,4.45-16.81,9.65-15.67,14.91s0.35,7,5.61,7.82c3.8,0.58,12.21,1.8,18.78,4.28q0.76,0.29,1.48.59t1.4,0.64a17.41,17.41,0,0,1,3.52,2.22,10.69,10.69,0,0,0,2.88-2.9,7.47,7.47,0,0,0,.78-1.56,22,22,0,0,1-.35-5.5q0-.55.09-1.1C303,441,310,437,307,430c-5,6-13,6-19.11,2.41a9.12,9.12,0,0,1-1.08-.52,8.89,8.89,0,0,1-1-.69c-0.32-.22-0.64-0.46-1-0.71l-0.75-.67-0.71-.66Z" transform="translate(-249.19 -227.23)"/><path class="cls-14" d="M281.72,427.65c-6.26,4.45-16.81,9.65-15.67,14.91s0.35,7,5.61,7.82c3.8,0.58,12.21,1.8,18.78,4.28q0.76,0.29,1.48.59t1.4,0.64a17.41,17.41,0,0,1,3.52,2.22,10.69,10.69,0,0,0,2.88-2.9,7.47,7.47,0,0,0,.78-1.56,22,22,0,0,1-.35-5.5q0-.55.09-1.1C303,441,310,437,307,430c-5,6-13,6-19.11,2.41a9.12,9.12,0,0,1-1.08-.52,8.89,8.89,0,0,1-1-.69c-0.32-.22-0.64-0.46-1-0.71l-0.75-.67-0.71-.66Z" transform="translate(-249.19 -227.23)"/><path class="cls-15" d="M283.67,426.1s-18,11.59-18,15.09,4.66,2.36,7.78,2.77c1.09,0.14,4.28.26,8.07,0.36l1.66,0c0.85-.05,1.75-0.08,2.67-0.09h1.4C295,444,308,442,307,432a17.51,17.51,0,0,1-14.91-.45c-0.38-.24-0.76-0.5-1.14-0.78a8.3,8.3,0,0,1-1.22-.75c-0.44-.17-0.88-0.34-1.34-0.48l-1.13-.62-1-.76Z" transform="translate(-249.19 -227.23)"/></g><ellipse class="cls-16" cx="317.98" cy="358.73" rx="8.58" ry="3.39" transform="translate(-401.39 224.88) rotate(-59.68)"/><g id="Nase"><path class="cls-17" d="M293.81,372.1c-12.13,8.5-19.53-8.78-23-6.85s-28.64,52-19.28,51.61,26.56,6,33.82,13C291.11,429.36,306.45,376.46,293.81,372.1Z" transform="translate(-249.19 -227.23)"/><path class="cls-18" d="M251.11,404.09c-2.71,8.74-3.37,16.45,3.5,11.25,6.17-4.67,23.35-37.14,20.67-46.89s-9,2.29-9,2.29S253.24,397.22,251.11,404.09Z" transform="translate(-249.19 -227.23)"/><ellipse class="cls-19" cx="262.73" cy="390.63" rx="8.58" ry="3.39" transform="translate(-452.36 230.84) rotate(-64.31)"/></g><path class="cls-20" d="M423.59,320.15a1.18,1.18,0,0,1-1.34.63,107.35,107.35,0,0,0-24.64-2.61,111.76,111.76,0,0,0-21.65,2,1.18,1.18,0,0,1-1.34-.73l-0.4-1a1.19,1.19,0,0,1,.85-1.59,110.53,110.53,0,0,1,22.52-2.22,105.62,105.62,0,0,1,25.7,2.87,1.19,1.19,0,0,1,.76,1.68Z" transform="translate(-249.19 -227.23)"/><path class="cls-21" d="M282.17,427.31a4,4,0,0,1-.44.34c-6.26,4.45-16.81,9.65-15.67,14.91s0.35,7,5.61,7.82c4.2,0.65,14,2.08,20.8,5.13,0.52,0.23,1,.48,1.5.73s0.94,0.52,1.37.79a14.65,14.65,0,0,1,1.21.86,100.79,100.79,0,0,0,14.21,19.27c0.31,3.86.18,13.23-5.24,16.08-5.86,3.08-8,6-6.09,9.32s5.89,8.41,20.85,9.74l-0.06.12c-2.17,4.08-5.12,10.69,7.11,17.77S370.14,539,372.71,533c1.44-3.37,2.54-12.84,2.93-21.35q4.3,0.77,8.72,1.25l-3.74-.12c-1.19,3.89-2.57,6,.55,6.82,2.55,0.65,14.34,3.57,19.61,4.08-0.58,4.54-.12,10.86,12.65,13.37,13.87,2.73,43.35-5.55,43.83-12.08,0.29-4-2.18-14.83-4.85-23.49,35.15-16.95,59.09-49.91,59.3-87.92a90.29,90.29,0,0,0-1-13.6c5.69-2.14,16.92-9.07,17.76-30.53,1.14-28.83-22.63-28.76-26.94-25.67-3.42,2.45-8.06,6.87-9.95,12.09-20.38-26.18-54.36-43.42-92.93-43.64a126.88,126.88,0,0,0-34.37,4.5,64.74,64.74,0,0,1-5.15-8.81c-2.63-5.68-13.36-2.07-20,.95-1.81-1.34-4.66-2.18-8.66.25-7.62,4.63-15.44,8.49-15.44,8.49-5.47,3.09-10.35,4.62-7.84,8.14,2.12,3,5.84,14.51,6,20.16a100.11,100.11,0,0,0-19.12,26.35l-0.31-.13c-12.13,8.5-19.53-8.78-23-6.85s-28.64,52-19.28,51.61c8.18-.3,22.38,4.51,30.67,10.45m223.49-46.73q-1-2.68-2.22-5.29a4.69,4.69,0,0,0,1.07-.75c5.48-5,7.46-9.89,4.34-10.5s-6.45,4.25-8,.73,0.84-10.32,4.92-8.15C509.67,358.69,515.41,372.59,505.67,380.58Z" transform="translate(-249.19 -227.23)"/><circle class="cls-22" cx="400.03" cy="416.43" r="150.2" transform="translate(-267.82 586.89) rotate(-89.68)"/><circle class="cls-23" cx="389.74" cy="246.48" r="19.25" transform="translate(-108.11 407.6) rotate(-89.68)"/><circle class="cls-24" cx="390.9" cy="248.24" r="19.25" transform="matrix(0.01, -1, 1, 0.01, -108.72, 410.51)"/><path class="cls-23" d="M403.92,354.2a17,17,0,0,1,9.07,2.69,17.72,17.72,0,0,0-10.46-3.46c-9.58-.05-17.39,7.36-17.44,16.55a16.36,16.36,0,0,0,6.19,12.84A17,17,0,0,1,403.92,354.2Z" transform="translate(-249.19 -227.23)"/><path class="cls-24" d="M413,356.88a17.06,17.06,0,1,0,7.9,14.47A17,17,0,0,0,413,356.88Z" transform="translate(-249.19 -227.23)"/><path class="cls-23" d="M376.35,421.38a37,37,0,0,0-10.44-.42c-10.69,1-19,5.9-18.5,10.9,0.23,2.39,2.42,4.36,5.8,5.67a32.66,32.66,0,0,0,14.42,1.54c10.69-1,19-5.9,18.5-10.9C385.82,425,381.93,422.47,376.35,421.38Z" transform="translate(-249.19 -227.23)"/><path class="cls-24" d="M376,418.49a37,37,0,0,0-10.44-.42c-10.69,1-19,5.9-18.5,10.9,0.23,2.39,2.42,4.36,5.8,5.67a32.66,32.66,0,0,0,14.42,1.54c10.69-1,19-5.9,18.5-10.9C385.44,422.06,381.55,419.58,376,418.49Z" transform="translate(-249.19 -227.23)"/><path class="cls-25" d="M376,418.49a37,37,0,0,0-10.44-.42c-10.69,1-19,5.9-18.5,10.9,0.23,2.39,2.42,4.36,5.8,5.67a32.66,32.66,0,0,0,14.42,1.54c10.69-1,19-5.9,18.5-10.9C385.44,422.06,381.55,419.58,376,418.49Z" transform="translate(-249.19 -227.23)"/><path class="cls-23" d="M391.45,412.9A37,37,0,0,0,381.17,411c-10.73-.47-19.61,3.22-19.82,8.24-0.1,2.39,1.8,4.65,5,6.42a32.66,32.66,0,0,0,14.07,3.52C391.11,429.69,400,426,400.2,421,400.34,417.74,396.83,414.75,391.45,412.9Z" transform="translate(-249.19 -227.23)"/><path class="cls-24" d="M391.47,410a37,37,0,0,0-10.28-1.85c-10.73-.47-19.61,3.22-19.82,8.24-0.1,2.39,1.8,4.65,5,6.42a32.66,32.66,0,0,0,14.07,3.52c10.73,0.47,19.61-3.22,19.82-8.24C400.36,414.82,396.85,411.83,391.47,410Z" transform="translate(-249.19 -227.23)"/><path class="cls-23" d="M453.92,438.59a30.75,30.75,0,0,0-10.36-1.66c-10.74.06-19.42,5.08-19.39,11.23,0,2.93,2,5.58,5.28,7.54a27.71,27.71,0,0,0,14.23,3.47c10.74-.06,19.42-5.08,19.39-11.23C463,444,459.38,440.53,453.92,438.59Z" transform="translate(-249.19 -227.23)"/><path class="cls-24" d="M453.79,435a30.75,30.75,0,0,0-10.36-1.66c-10.74.06-19.42,5.08-19.39,11.23,0,2.93,2,5.58,5.28,7.54a27.71,27.71,0,0,0,14.23,3.47c10.74-.06,19.42-5.08,19.39-11.23C462.91,440.41,459.25,437,453.79,435Z" transform="translate(-249.19 -227.23)"/><path class="cls-26" d="M453.79,435a30.75,30.75,0,0,0-10.36-1.66c-10.74.06-19.42,5.08-19.39,11.23,0,2.93,2,5.58,5.28,7.54a27.71,27.71,0,0,0,14.23,3.47c10.74-.06,19.42-5.08,19.39-11.23C462.91,440.41,459.25,437,453.79,435Z" transform="translate(-249.19 -227.23)"/><path class="cls-23" d="M427.31,430.19A30.75,30.75,0,0,0,417,431.86c-10.18,3.41-16.86,10.9-14.9,16.73,0.93,2.78,3.67,4.66,7.37,5.52a27.71,27.71,0,0,0,14.6-1.16c10.18-3.41,16.86-10.9,14.9-16.73C437.67,432.46,433.12,430.33,427.31,430.19Z" transform="translate(-249.19 -227.23)"/><path class="cls-24" d="M426.08,426.85a30.75,30.75,0,0,0-10.36,1.66c-10.18,3.41-16.86,10.9-14.9,16.73,0.93,2.78,3.67,4.66,7.37,5.52a27.71,27.71,0,0,0,14.6-1.16c10.18-3.41,16.86-10.9,14.9-16.73C436.43,429.11,431.88,427,426.08,426.85Z" transform="translate(-249.19 -227.23)"/><path class="cls-27" d="M282.17,427.31a4,4,0,0,1-.44.34c-6.26,4.45-16.81,9.65-15.67,14.91s0.35,7,5.61,7.82c4.2,0.65,14,2.08,20.8,5.13,0.52,0.23,1,.48,1.5.73s0.94,0.52,1.37.79a14.65,14.65,0,0,1,1.21.86,100.79,100.79,0,0,0,14.21,19.27c0.31,3.86.18,13.23-5.24,16.08-5.86,3.08-8,6-6.09,9.32s5.89,8.41,20.85,9.74l-0.06.12c-2.17,4.08-5.12,10.69,7.11,17.77S370.14,539,372.71,533c1.44-3.37,2.54-12.84,2.93-21.35q4.3,0.77,8.72,1.25l-3.74-.12c-1.19,3.89-2.57,6,.55,6.82,2.55,0.65,14.34,3.57,19.61,4.08-0.58,4.54-.12,10.86,12.65,13.37,13.87,2.73,43.35-5.55,43.83-12.08,0.29-4-2.18-14.83-4.85-23.49,35.15-16.95,59.09-49.91,59.3-87.92a90.29,90.29,0,0,0-1-13.6c5.69-2.14,16.92-9.07,17.76-30.53,1.14-28.83-22.63-28.76-26.94-25.67-3.42,2.45-8.06,6.87-9.95,12.09-20.38-26.18-54.36-43.42-92.93-43.64a126.88,126.88,0,0,0-34.37,4.5,64.74,64.74,0,0,1-5.15-8.81c-2.63-5.68-13.36-2.07-20,.95-1.81-1.34-4.66-2.18-8.66.25-7.62,4.63-15.44,8.49-15.44,8.49-5.47,3.09-10.35,4.62-7.84,8.14,2.12,3,5.84,14.51,6,20.16a100.11,100.11,0,0,0-19.12,26.35l-0.31-.13c-12.13,8.5-19.53-8.78-23-6.85s-28.64,52-19.28,51.61c8.18-.3,22.38,4.51,30.67,10.45m223.49-46.73q-1-2.68-2.22-5.29a4.69,4.69,0,0,0,1.07-.75c5.48-5,7.46-9.89,4.34-10.5s-6.45,4.25-8,.73,0.84-10.32,4.92-8.15C509.67,358.69,515.41,372.59,505.67,380.58Z" transform="translate(-249.19 -227.23)"/></g></g></svg>