<svg xmlns="http://www.w3.org/2000/svg" xmlns:xlink="http://www.w3.org/1999/xlink" viewBox="0 0 1029.79 1029.79"><defs><style>.cls-1{isolation:isolate;}.cls-2{fill:#9df;}.cls-3{fill:#bdfcff;}.cls-4{fill:#333;}.cls-5{fill:#4bbcb4;}.cls-6{fill:#64b127;}.cls-7{opacity:0.5;mix-blend-mode:multiply;fill:url(#Unbenannter_Verlauf_401);}.cls-8{mix-blend-mode:overlay;fill:url(#Unbenannter_Verlauf_314);}.cls-9{fill:#334036;}</style><radialGradient id="Unbenannter_Verlauf_401" cx="606.64" cy="703.87" r="511.84" gradientUnits="userSpaceOnUse"><stop offset="0" stop-opacity="0.9"/><stop offset="1" stop-color="#fff" stop-opacity="0"/></radialGradient><radialGradient id="Unbenannter_Verlauf_314" cx="268.87" cy="334.75" r="275.23" gradientUnits="userSpaceOnUse"><stop offset="0" stop-color="#fff" stop-opacity="0.9"/><stop offset="0.62" stop-color="#fff" stop-opacity="0.33"/><stop offset="1" stop-color="#fff" stop-opacity="0"/></radialGradient></defs><title>Tip Me das globale Trinkgeld</title><g class="cls-1"><g id="Ebene_1" data-name="Ebene 1"><circle class="cls-2" cx="514.9" cy="514.9" r="514.9"/><circle class="cls-3" cx="523.03" cy="555.57" r="311.17"/><path class="cls-4" d="M570.47,141.51l3.48,6.72a60.12,60.12,0,0,1-5.68,3.2l-8,4.69q10.8,21.21,20.28,37.29,0.05,0.19,6.66,12.21a86.49,86.49,0,0,1-7.81,4.43,12,12,0,0,1-1.84,1.11,95.93,95.93,0,0,1-5.1-9.28q-8.24-16.22-14.75-26.54l-6.32-10.9q-0.64.12-12.4,6.26h-0.1q-2.25-4.23-4.8-8.34a88,88,0,0,1,9.13-5.17Q553.69,151.41,570.47,141.51Z" transform="translate(-147.27 140.47)"/><path class="cls-4" d="M587.08,120.38A96,96,0,0,0,591,131.91q10.93,29.49,14.59,39.75t6,16.85l-10.13,3.78h-0.1Q596.71,181.77,588,158q-8-20.66-12.62-33.73l5.07-1.73Q582.65,121.93,587.08,120.38Z" transform="translate(-147.27 140.47)"/><path class="cls-4" d="M626.72,129.21q9.72,0.86,11.56,11,1.61,7.6,1,11.26-0.88,5.09-7.27,9.64-2.45,1.7-8.26,2.9a11.6,11.6,0,0,0-2.83.43l6.4,28.94q-2.41,1.41-10.24,2.78-1.65-5.43-5.33-21.79t-9.12-40.6q2.16-1.28,13.24-3.52Q623.43,128.91,626.72,129.21Zm-10.54,11.1q1.19,4.49,3.71,16.28h0.18q10.64-1.44,11.52-6.49l0.12-.57q0.6-3.46-1.82-8.42a7.54,7.54,0,0,0-5.26-3Q616.4,139.09,616.18,140.31Z" transform="translate(-147.27 140.47)"/><path class="cls-4" d="M721.21,131.09q0.54,2.81.32,18.52t-0.81,28.93a4.47,4.47,0,0,1-.15,2.08q-3.87.1-10.94,0.39,0.65-25.58.81-30.11-2.86,6.48-8.57,21.14-4.42-.23-8.32-0.21a119.83,119.83,0,0,1-4.09-12.32,137.3,137.3,0,0,0-5.15-14.91q-0.17,2.2-.58,17.4a201.56,201.56,0,0,1-1.27,22.69q-3.39.26-10,.48-0.48-.16.36-11.33,1.55-32.72,3-49.92,4.63-.06,14.56.73,2.71,6.89,7.59,21.95,2.56,7.46,2.73,7.56l0.69-1.6q4.79-12.62,9.36-22.43Q712.58,129.92,721.21,131.09Z" transform="translate(-147.27 140.47)"/><path class="cls-4" d="M766.5,138a120.89,120.89,0,0,0-3.13,12q-7.42-2-18.49-4.34-2.16,8.74-2.4,10.48a102.08,102.08,0,0,1,15.75,4.55q1.11,0.34,2.5.68a55.32,55.32,0,0,1-1.87,6.66q-0.66.38-8.21-1.81-11.7-2.4-13.75-2.56a87.74,87.74,0,0,0-3.64,12.1,207.07,207.07,0,0,0,25.2,6.9,107.79,107.79,0,0,1,11.18,3,55.45,55.45,0,0,1-3.23,7.73q-6.15-1.56-20.7-4.22-7.3-1.24-24-6.69,7.68-27.37,10.61-39.27l2.88-13.07,0.06-.06q4.73,1,21.47,5.31Q765.2,137.15,766.5,138Z" transform="translate(-147.27 140.47)"/><circle class="cls-5" cx="524.21" cy="583.82" r="215"/><path class="cls-6" d="M519.82,400.14c-9.07,5.92-22.85,18.81-29.56,6.72s-11.38-19.46-21.5-6.72-9.41,83.32,0,86,16.86-5.38,21.87,18.81,27.85,84.66,44,83.32,10.75-22.85,17.47-32.25,9.77-11.72,5.74-31.88c-3.33-16.67,32.53-38.15,29.85-52.93s-15.43,23-34.24-13.28S532.18,392.08,519.82,400.14Z" transform="translate(-147.27 140.47)"/><path class="cls-6" d="M525.63,358.48c10.31-6.72,42.56,1.34,30.47,8.06s-25.46-10-35.48,13.8c-6,14.23,18.56-2.33,15.32,13.13s7.77,7.85,12.62,36.15,23.66,37.71,34.41,28.3,33.6-33.6,21.5-33.6-34.94-11.1-28.22-15.63,33.6,19.66,45.69,12.94A19.75,19.75,0,0,1,650.17,431c4,9.49,6,40.4,31.23,37.71s-15.1-16.13,17.15-24.19,16.13-18.41,26.88-7.86-4.86,22.12,12.47,14.05c1.63-.76,7.76,24.49,6.72,30.16,3.29,0.86,8.66,23,16.57,20,1.59-1.14-2.42-15.64-5.82-16.87-7.73-2.81-9.2-25.82-4.63-21.5,10.6,10,13.14,8.51,13.59,14.33,20.91-10.9,12.1-24.82,3.06-32S783.21,428.2,792.61,431s18.81-18.73,14.78-26.8-22.47-39.54-16.65-42.88S812.4,384.1,815.91,384s-4.11-21.32-5-26.51,20.68-19.18,11.27-29.93-13.44-18.81-21.5-22.85-9.41-18.81-1.34-16.13,19,1.34,25.63,14.78,13.77,29.5,16,29.56-4.81-27.8-19.71-41.46c-27.36-25.09-64.95-51.26-90.48-52.6s-46.19-5.22-69.51-5.47c-16.57-.17-35.31,9.5-32.62,14.87s-14.42-.09-14.42-0.09-16.49,8.15-11.12,12.18-17.67,1.35-9.51-6.72-21.8,1.35-13.54,10.75-17.27,13.43-17.27,13.43-12.09,18.81-17.47,12.09,23.53-4.63,4.33-10.87-40.18,32.64-46.26,39-7.88,12.59-6.53,13,5.82-7.62,5.38-2.69,4,5.38,5.82.9,3.14-11.2,5.38-12.1-1.34-4.48,2.69-9,14.05-14.33,12.18-9.86-9.94,9-9,12.54,3.58,4,3.58,4a20.8,20.8,0,0,0-5.82,7.62c-1.79,4.48-9,13-13,13.89s-0.9-6.72-4.48-4.48-5.82,5.38-5.38,8.51-6.27,5.38-7.17,9.41,0-12.1,2.24-14.78-13,17.47-12.54,24.19,7.62-11.2,7.17-4.48-8.51,7.17-6.72,11.2,1.77,7.17-.46,9.41-5.37.45-7.16,7.17-6.86,15.55-2.69,15.23,10.3-9.86,11.2-14.33,4.93-11.2,5.82-9.86,1.79-4.93,4.48-4,2.24,7.62,5.38,7.17,6.27,5.82,2.69,8.06-7.62,4.48-2.69,4.93,5.38-4,6.27-7.62,3.58-4.93,4-4-9-6.27-8.06-10.75,8.06,2.24,8.51,5.38,1.79,15.68,5.38,17.47,6.27-6.27,4.93-9,0.9-12.54,2.69-6.72,6.27-5.38,5.82-10.75S525.63,358.48,525.63,358.48Z" transform="translate(-147.27 140.47)"/><path class="cls-6" d="M582.89,349.38c3.57,0.68,2.69-11.14-3.58-5.76s-11.65,2.69-10.3,8.51,7.9,10.75,7.31,16.57S574.83,379,582,379.9s12.56,1.34,7.85-6.72-5.15-13.44-8.29-17.92S580.2,348.87,582.89,349.38Z" transform="translate(-147.27 140.47)"/><path class="cls-6" d="M840.47,342.21c-3.9-4.65,5.38,10.37-4.48,4.09s-6.27-3.2-5.82,2.66,8,22.43,4.7,26-11.86,4.48-13.21,9.41,2.69,17.92,4.48,16.57-1.79-8.51,2.69-10.3,9.41-5,12-8.09-3.48-20.14-5.27-24.62S849.43,352.9,840.47,342.21Z" transform="translate(-147.27 140.47)"/><path class="cls-6" d="M580.21,541.62c-1.79,6.27.45,10.75-7.62,9.86s0.9,4,0,8.51-7.62,15.23-.45,14.78,10.3,4,12.54-8.51,5.38-21.05,0-24.64S580.21,541.62,580.21,541.62Z" transform="translate(-147.27 140.47)"/><path class="cls-6" d="M775.07,575.19c-2,8.8,2.69,17.94-2.24,23.32s3.14,4.93,15.23-2.24,22.4-14.14,23.29-8,4.43,11.53,16.57,0,24.64-28.32,22.4-48.92-1.15-13-7.07-2.24-9.06,5.38-7.71.9,6.1-7.62-3.22-7.17-7.62,5.33-10.93,9.16-4.66-.7-7.35,0-4.93,10.1-8.06,11-4.48,3.76-7.17,6.58S777.76,563.52,775.07,575.19Z" transform="translate(-147.27 140.47)"/><path class="cls-6" d="M754.91,503.09c-1.11-2.64-10.3-13.44-18.81-15.23s0.45,7.17,4,10.3,12.1,13,12.1,16.57,3.58,9.86,8.51,8.51,10.75-5.38,7.62-10.3S758.49,511.6,754.91,503.09Z" transform="translate(-147.27 140.47)"/><path class="cls-6" d="M794.33,483.83c-6,8.94-6.72,19.26-12.54,17.47s-8.06,4.93-3.58,10.3,7.17,6.27,11.2,4.93,7.62-4.53,8.51-11,4.48-5.07,4.48-5.07-2.69-6.77,0-11.25S798.05,478.32,794.33,483.83Z" transform="translate(-147.27 140.47)"/><path class="cls-6" d="M811,443.35c0.45-6.23-3.07,11.36,0,18.08s8.44,9.86,3.52,14.78,4.39,10.75,6.9,7.62,5.55-8.06,0-17.47S810.59,448.56,811,443.35Z" transform="translate(-147.27 140.47)"/><path class="cls-6" d="M859.29,520.56c1.34-1.94-1.66-12.42-5.82-14.93s-11.2-5.68-13.44-3,1.79-4.26-4.48-3.25-5.55,9.31-3.22,10.53,5-4.81,7.7,0-2,9.29,3.24,10.64,9.75-3.82,12-3.48S857.94,522.51,859.29,520.56Z" transform="translate(-147.27 140.47)"/><path class="cls-6" d="M773,524.75c-1-1-4.63-3.36-6.57-1.31s-1.49,8.62,4.18,7.13,14-1,16.87-.75,15.83,1.32,20.16-.68,6.11-2.31,2.09,1.65,1.5,3.07,5.83-.82,7-6.35,7.17-6.53a47.57,47.57,0,0,0-13,1.9c-4.62,1.64-19,3.73-21.2,1.94s-5.52-4.26-8.36-3.85S774.77,526.39,773,524.75Z" transform="translate(-147.27 140.47)"/><path class="cls-6" d="M818.52,496.37c-4.07,2-9.26-1-11.8,2.92s-7.76,9.48-5.08,14.85,4,9.77,4.93,2.94,0.75,2.13,3.13,1.24,5.23-1.94,2.84-6.12-3.29-4.93-.15-5.23,5.38,2.84,7,4.93,11.8,2.09,10.45-.75,0-5.22-3.43-2.68-2.09,5.3-5.08,1.67-6.57-9.15-9.41-6.46-6.42,2.24-5.23.15,5.89-4.23,9.07-3.16S822.11,494.58,818.52,496.37Z" transform="translate(-147.27 140.47)"/><path class="cls-6" d="M827.48,497.57c-0.07-2.58.9-7.17-1.64-3.14s-2.09,11.1-2.09,11.1S827.55,500.12,827.48,497.57Z" transform="translate(-147.27 140.47)"/><circle class="cls-7" cx="524.21" cy="583.82" r="215"/><circle class="cls-8" cx="524.21" cy="583.82" r="215"/><path class="cls-9" d="M520.86,453.9l1.13,0.39q5.59,1.76,8.86,9.67A50.65,50.65,0,0,1,533,478.3q0.28,8.54-1.27,13.32-3.83,12.06-17.23,11.78l-10.58.07q-1.16-19.05-2.57-46.41a14.08,14.08,0,0,1-.21-3.3q16.35-.84,18.49-0.18A6.84,6.84,0,0,1,520.86,453.9Zm-11.71,7.21,1.41,32.73a19.48,19.48,0,0,0,6.47-.21,6.65,6.65,0,0,0,5.27-4.82q1.16-3.66.39-17.68-0.63-8.72-5.34-10.2Q515.38,460.3,509.16,461.11Z" transform="translate(-147.27 140.47)"/><path class="cls-9" d="M554.51,454.43q1.69,4.46,6.82,21.3,1.05,2.39,5.24,15.64,0.81,3.09,4.32,14.06a89.82,89.82,0,0,1-8.82,1.83q-4.82-13.57-6-15.93-4.89,0-9,.25-2.11,8.93-2.74,12l-8.3-.42q1-7.35,8.89-40.46l1.41-6.61,0.14-.49Q549.06,455.09,554.51,454.43Zm-6.82,30.41q6.61,0.11,7.77,0a150.61,150.61,0,0,0-4.39-15.61Q550.39,471.41,547.69,484.84Z" transform="translate(-147.27 140.47)"/><path class="cls-9" d="M589.24,454.5q4.22,1.55,5.1,3.73a10,10,0,0,1,1.48,4.68q0.35,3.09.46,9.95-2.64.18-9.46,0.28-0.25-2.53-.39-7.77,0.07-3-2.14-3.8l-0.25-.07a8.79,8.79,0,0,0-5.7.07,2.53,2.53,0,0,0-1.05,1l-0.11.28q-1,2.92-.18,9.14a4.25,4.25,0,0,0,3,3l0.6,0.21q6.86,2,8.51,2.64,6.26,2.25,6.61,6.43a63.26,63.26,0,0,1,.32,13q-0.25,1.09-.35,1.44-1.37,3.8-7.66,5.31-7.1,1.05-12-.74-5.34-1.93-5.84-8.12-0.63-5.62-.42-6.22,6.15-.11,7,0l0.07,0q-0.25,7.1,1.65,7.8a2.65,2.65,0,0,0,1.13.67,11.85,11.85,0,0,0,5.94,0,4.33,4.33,0,0,0,2.57-2.6,8.53,8.53,0,0,0-.46-6.79,6.87,6.87,0,0,0-3.66-2.78l-0.39-.14a60.46,60.46,0,0,0-8.19-1.76l-0.53-.18q-4.89-1.76-6.12-9.77-0.46-2.11.21-8.68a14.86,14.86,0,0,1,.74-3.23l0.21-.56q2.71-7.45,14.41-7.31A15.62,15.62,0,0,1,589.24,454.5Z" transform="translate(-147.27 140.47)"/><path class="cls-9" d="M636,453.51h1.37q6.75,0,9.42,4,2.88,3.9,3.06,15.86a36.9,36.9,0,0,1-6.71,0V472q0-12.06-6.5-11.64-4.25.14-5.62,1.69-3.27,3.52-3.46,17.16T629,495.08a7.89,7.89,0,0,0,3.85,3,6.28,6.28,0,0,0,4.92-.81q2.78-1.49,2.21-8.91h-7.35l0-1.12,0.21-8.23q5,0.14,9.6.14a38.64,38.64,0,0,1,5.77.21q0.21,5.24.21,7.49v1.72q0,11.25-6.36,14.24a24.08,24.08,0,0,1-7.1,1.34q-12.55,0-15.79-9.67-1.72-4.18-1.72-16.7,0-18.28,8.47-22.11A20.63,20.63,0,0,1,636,453.51Z" transform="translate(-147.27 140.47)"/><path class="cls-9" d="M661,455.06q0.81,0.32,0,16.07,0,2.74-.39,11.29,0.11,4.71,0,8.65l0.28,2.88q6.22,0,14-.28l0.14,0,0.46,3.66a29.92,29.92,0,0,1,0,5.27q-18.42,1.2-23.45,1,0.35-34.59.28-48.34A51.11,51.11,0,0,1,661,455.06Z" transform="translate(-147.27 140.47)"/><path class="cls-9" d="M701.5,455.9q5.66,2,6.29,9.28,1.37,7.31.91,23.77a35.62,35.62,0,0,1-1.34,7.7q-2.29,6.43-11.25,6.68-6.47.25-9.63-.88-5.17-1.83-6.64-8.68a56.85,56.85,0,0,1-1.48-12.55q-0.18-13.11,1.3-17.19l0.39-1.09a13.48,13.48,0,0,1,6-6.82,19.94,19.94,0,0,1,10.48-1.27A17.61,17.61,0,0,1,701.5,455.9Zm-11.88,10-0.25.7q-1.44,4-.28,21.41,0.67,5.87,1.83,6.54a4.76,4.76,0,0,0,2,1.34,8.18,8.18,0,0,0,6.4-.46,5.58,5.58,0,0,0,1.79-2.36q1.23-3.45.11-23-0.42-5-2.14-5.59a0.61,0.61,0,0,0-.42-0.25l-0.39-.14Q690.74,462.69,689.61,465.89Z" transform="translate(-147.27 140.47)"/><path class="cls-9" d="M712.08,456q13.68-1.76,17.51-.49a7.3,7.3,0,0,1,4.54,3.69q3.13,7.35,1.05,13.57-0.28.88-.49,0.81a14.64,14.64,0,0,1-2.88,3.62q4.29,2.5,4.5,9a31.12,31.12,0,0,1,0,10.83l-0.77,2.39a12,12,0,0,1-4,3.27q-4.89,1.58-17.93,1-0.28-18-.7-27.54t-1-19.71Zm6.64,4.68q0.81,11.39,1,13.71a22.34,22.34,0,0,1,2.6.14q4.43,0.53,5.34-2.32l0.07-.21q1-11.78-4.08-11.71A21.25,21.25,0,0,0,718.72,460.72Zm1.09,19.3q0,6.57.14,8.23-0.25,8.58-.11,10.2h1.79q5.66,1.05,7.07-3.2,0.63-14-3.34-15.33A21.07,21.07,0,0,0,719.81,480Z" transform="translate(-147.27 140.47)"/><path class="cls-9" d="M758.94,454.43q1.69,4.46,6.82,21.3,1.05,2.39,5.24,15.64,0.81,3.09,4.32,14.06a89.79,89.79,0,0,1-8.82,1.83q-4.82-13.57-6-15.93-4.89,0-9,.25-2.11,8.93-2.74,12l-8.3-.42q1-7.35,8.89-40.46l1.41-6.61,0.14-.49Q753.49,455.09,758.94,454.43Zm-6.82,30.41q6.61,0.11,7.77,0a150.61,150.61,0,0,0-4.39-15.61Q754.83,471.41,752.12,484.84Z" transform="translate(-147.27 140.47)"/><path class="cls-9" d="M787.59,455.06q0.81,0.32,0,16.07,0,2.74-.39,11.29,0.11,4.71,0,8.65l0.28,2.88q6.22,0,14-.28l0.14,0,0.46,3.66a29.92,29.92,0,0,1,0,5.27q-18.42,1.2-23.45,1,0.35-34.59.28-48.34A51.11,51.11,0,0,1,787.59,455.06Z" transform="translate(-147.27 140.47)"/><path class="cls-9" d="M829.6,454.43q-0.18,7.21.11,11.25-6,0-14.94.63,0.18,8.19.35,9.77a69.5,69.5,0,0,1,12.9.21q0.91,0,2,0a58,58,0,0,1,0,6.29q-0.42.49-6.61,0.39-9.39.7-11,1.05a92.37,92.37,0,0,0-.25,11.5h10a73.27,73.27,0,0,1,9.11-.07,57.91,57.91,0,0,1-.84,7.56q-5,.11-25.66,1.16,0.14-25.87-.11-37L804.19,455l0-.07q3.8-.28,17.4-0.49Q828.44,454,829.6,454.43Z" transform="translate(-147.27 140.47)"/><path class="cls-9" d="M576.61,513.86l-0.07,6.89a41,41,0,0,1-5.13.14l-7.28.35q-0.35,21.66.28,38.64,0,0.18.11,12.66a58.84,58.84,0,0,1-7.07.21,8.15,8.15,0,0,1-1.69.11q-0.25-2.6-.11-9.63,0.28-16.56-.42-27.63l-0.35-11.46q-0.49-.18-10.93-0.28l-0.07,0q0-4.36-.25-8.75a60.14,60.14,0,0,1,8.26-.25Q561.28,514.63,576.61,513.86Z" transform="translate(-147.27 140.47)"/><path class="cls-9" d="M600.58,515.13l0.67,0.28q5.8,2.43,6.5,9.19t-0.7,10.49l-0.11.25a7.15,7.15,0,0,1-5.34,4.5l0,0.14,0.21,0.07q3.83,1.44,4.61,10.76a103.18,103.18,0,0,1,1.16,11.81,18.8,18.8,0,0,1,.14,4.11q-6.61-.25-8.47-0.42,0.21-13.68-1.93-17.75a6.8,6.8,0,0,0-2.53-2q-1.86-.7-6.82-0.6,0.49,10.48.49,17.05a71.11,71.11,0,0,1-8.54.46q0.18-3.87-.21-25.45t0.28-23.31Q596.19,513.54,600.58,515.13Zm-12.23,6.79q0.18,5.77.77,14.55l0.21,0.21q5.77,0.7,7.31-.67,0-.11.63-1.05,1.9-11.71-2.43-13.32l-0.21-.11A11,11,0,0,0,588.35,521.91Z" transform="translate(-147.27 140.47)"/><path class="cls-9" d="M619.85,514.14q0.7,33.54.7,49.32a45.4,45.4,0,0,1-9.25.32q0.28-29.07-.42-45.74a29.19,29.19,0,0,1-.21-4Q618.62,513.68,619.85,514.14Z" transform="translate(-147.27 140.47)"/><path class="cls-9" d="M651,514.42q0.28,9.74.35,21.83,0.18,3.76.21,17.82,0.14,2.21.42,13.36-1.48.35-8-.11l-0.07,0q-0.77-1.86-3.46-7.68t-10.25-24.45v0.07q0.18,12.52-.28,28a39,39,0,0,1-6.26.35q0.46-23.38-.39-45.74l0.11-.49q3.16-.18,7.31,0l0.07,0q2.18,5.06,6.29,15.89a98.45,98.45,0,0,0,4.57,9.84l0-.07q0-2.29-.67-15.89,0-3.66-.39-12.48l0.07-.14Q643.16,514.39,651,514.42Z" transform="translate(-147.27 140.47)"/><path class="cls-9" d="M678.17,515.13a28.36,28.36,0,0,1,5.52,3.23q-5.2,11.74-11.36,23.91-0.21-.07-0.84,1.72,2.07,2.85,13.29,22-0.18.49-4.92,1.13l-4.36.6q-1.62-2.78-8.09-14.66a36.61,36.61,0,0,0-3.06-4.71l0,0.11v7.52a72.65,72.65,0,0,1,.25,7.73q-0.18.53-7,.18a48.69,48.69,0,0,1-.21-5.41q-0.74-33.43-1.2-42.57,1.3-.39,8.68-0.28a80,80,0,0,1,.81,11.78q0.6,9.53.42,10.9l0.25,0.07q0.63,0.21,6.75-14,0.56-1,2.32-4.55a40.8,40.8,0,0,1,2.64-4.76Z" transform="translate(-147.27 140.47)"/><path class="cls-9" d="M705.7,513.51h1.37q6.75,0,9.42,4,2.88,3.9,3.06,15.86a36.8,36.8,0,0,1-6.71,0V532q0-12.06-6.5-11.64-4.25.14-5.62,1.69-3.27,3.52-3.46,17.16t1.51,15.91a7.89,7.89,0,0,0,3.85,3,6.27,6.27,0,0,0,4.92-.81q2.78-1.49,2.21-8.91H702.4l0-1.12,0.21-8.23q5,0.14,9.6.14a38.65,38.65,0,0,1,5.77.21q0.21,5.24.21,7.49v1.72q0,11.25-6.36,14.24a24.05,24.05,0,0,1-7.1,1.34q-12.55,0-15.79-9.67-1.72-4.18-1.72-16.7,0-18.28,8.47-22.11A20.63,20.63,0,0,1,705.7,513.51Z" transform="translate(-147.27 140.47)"/><path class="cls-9" d="M746,514.42q-0.18,7.21.11,11.25-6,0-14.94.63,0.18,8.19.35,9.77a69.5,69.5,0,0,1,12.9.21q0.91,0,2,0a58.29,58.29,0,0,1,0,6.29q-0.42.49-6.61,0.39-9.39.7-11,1.05a92.18,92.18,0,0,0-.25,11.5h10a73.46,73.46,0,0,1,9.11-.07,57.9,57.9,0,0,1-.84,7.56q-5,.11-25.66,1.16,0.14-25.87-.11-37L720.54,515l0-.07q3.8-.28,17.4-0.49Q744.8,514,746,514.42Z" transform="translate(-147.27 140.47)"/><path class="cls-9" d="M759.53,515.05q0.81,0.32,0,16.07,0,2.74-.39,11.29,0.11,4.71,0,8.65l0.28,2.88q6.22,0,14-.28l0.14,0,0.46,3.66a29.93,29.93,0,0,1,0,5.27q-18.42,1.2-23.45,1,0.35-34.59.28-48.34A51.11,51.11,0,0,1,759.53,515.05Z" transform="translate(-147.27 140.47)"/><path class="cls-9" d="M796.76,513.89l1.13,0.39q5.59,1.76,8.86,9.67a50.69,50.69,0,0,1,2.11,14.34q0.28,8.54-1.27,13.32-3.83,12.06-17.23,11.78l-10.58.07q-1.16-19.05-2.57-46.41a14.08,14.08,0,0,1-.21-3.3q16.35-.84,18.49-0.18A6.84,6.84,0,0,1,796.76,513.89ZM785,521.1l1.41,32.73a19.48,19.48,0,0,0,6.47-.21,6.65,6.65,0,0,0,5.27-4.82q1.16-3.66.39-17.68-0.63-8.72-5.34-10.2Q791.27,520.29,785,521.1Z" transform="translate(-147.27 140.47)"/></g></g></svg>