<?xml version="1.0" encoding="utf-8"?>
<!-- Generator: Adobe Illustrator 19.2.1, SVG Export Plug-In . SVG Version: 6.00 Build 0)  -->
<svg version="1.1" id="Ebene_1" xmlns="http://www.w3.org/2000/svg" xmlns:xlink="http://www.w3.org/1999/xlink" x="0px" y="0px"
	 viewBox="0 0 1196.9 410.8" style="enable-background:new 0 0 1196.9 410.8;" xml:space="preserve">
<style type="text/css">
	.st0{fill:url(#Wolke3-2_1_);}
</style>
<title>Wolken1_hellblau</title>
<linearGradient id="Wolke3-2_1_" gradientUnits="userSpaceOnUse" x1="688.94" y1="1349.6699" x2="688.94" y2="757.04" gradientTransform="matrix(1 0 0 1 -90.51 -659.17)">
	<stop  offset="0.4423" style="stop-color:#CBE9FF"/>
	<stop  offset="1" style="stop-color:#FFFFFF"/>
</linearGradient>
<path id="Wolke3-2" class="st0" d="M1108.1,265.6h-58.2c-11.1-36.9-51.8-64.2-100.4-64.2c-24.5,0-47,7-64.7,18.6
	c-18.8-61.6-87-107.3-168.2-107.3c-22.5-0.1-44.9,3.6-66.2,10.7C639.5,53.8,566.7,0,478.6,0c-85.9,0-157.2,51.1-170.9,118.1
	c-9.8-1.4-19.7-2.1-29.5-2.1c-95.7,0-173.3,63.4-173.3,141.7c0,2.6,0.1,5.3,0.3,7.9H88.8c-49,0-88.8,32.5-88.8,72.6
	s39.7,72.6,88.8,72.6h1019.3c49,0,88.8-32.5,88.8-72.6S1157.1,265.6,1108.1,265.6z"/>
</svg>
