<?xml version="1.0" encoding="utf-8"?>
<!-- Generator: Adobe Illustrator 19.2.1, SVG Export Plug-In . SVG Version: 6.00 Build 0)  -->
<svg version="1.1" id="Ebene_1" xmlns="http://www.w3.org/2000/svg" xmlns:xlink="http://www.w3.org/1999/xlink" x="0px" y="0px"
	 viewBox="0 0 2553.4 1032.7" style="enable-background:new 0 0 2553.4 1032.7;" xml:space="preserve">
<style type="text/css">
	.st0{fill:url(#Wolke1-2_1_);}
	.st1{fill:url(#Wolke6-2_1_);}
</style>
<title>Zweiwolken2_hellblau</title>
<linearGradient id="Wolke1-2_1_" gradientUnits="userSpaceOnUse" x1="669.8772" y1="1271.4" x2="669.8772" y2="546.5701" gradientTransform="matrix(1 0 0 1 -57.87 126.82)">
	<stop  offset="0.3654" style="stop-color:#CBE9FF"/>
	<stop  offset="1" style="stop-color:#FFFFFF"/>
</linearGradient>
<path id="Wolke1-2" class="st0" d="M1051.6,686.1c-28.1,0-55.7,6.8-80.5,19.9c-47.4-76.9-146-104.2-226.2-62.7
	c-36.1-105.8-136.3-181.9-254.3-181.9c-136.7,0-249.5,102-266.5,234.1C133.1,667.1,36.4,717.7,7.9,808.7S30.1,996.4,121,1024.8
	c16.7,5.2,34,7.9,51.5,7.9c8.2,0,876.8-1.6,879-1.6c95.3,0,172.5-77.2,172.5-172.5S1146.8,686.1,1051.6,686.1L1051.6,686.1
	L1051.6,686.1z"/>
<linearGradient id="Wolke6-2_1_" gradientUnits="userSpaceOnUse" x1="2059.0903" y1="825.78" x2="2059.0903" y2="84.67" gradientTransform="matrix(1 0 0 1 -57.87 126.82)">
	<stop  offset="0.3558" style="stop-color:#CBE9FF"/>
	<stop  offset="1" style="stop-color:#FFFFFF"/>
</linearGradient>
<path id="Wolke6-2" class="st1" d="M2476,353.2h-23c-11.4-50.7-61.6-82.5-112.3-71.2c-9.5,2.1-18.5,5.7-26.9,10.6
	c-3.9-85.8-76.6-152.2-162.4-148.4c-12.7,0.6-25.3,2.7-37.5,6.4C2079.3,62.4,1993.4,0,1892.9,0c-131.1,0-237.4,106.3-237.4,237.4v4
	c-74.3-32.8-161.1,0.8-193.9,75c-32.8,74.3,0.8,161.1,75,193.9c18.7,8.3,39,12.6,59.4,12.5c6.9,0,877.5-1.4,879.8-1.4
	c42.8,0,77.4-37.6,77.4-84.1S2518.8,353.2,2476,353.2z"/>
</svg>
