<?xml version="1.0" encoding="utf-8"?>
<!-- Generator: Adobe Illustrator 19.2.1, SVG Export Plug-In . SVG Version: 6.00 Build 0)  -->
<svg version="1.1" id="Ebene_1" xmlns="http://www.w3.org/2000/svg" xmlns:xlink="http://www.w3.org/1999/xlink" x="0px" y="0px"
	 viewBox="0 0 2450.3 918.3" style="enable-background:new 0 0 2450.3 918.3;" xml:space="preserve">
<style type="text/css">
	.st0{fill:url(#Wolke3-2_1_);}
	.st1{fill:url(#Wolke4-2_1_);}
</style>
<title>Zweiwolken1_hellblau</title>
<linearGradient id="Wolke3-2_1_" gradientUnits="userSpaceOnUse" x1="688.94" y1="1284.72" x2="688.94" y2="692.08" gradientTransform="matrix(1 0 0 1 -90.51 -86.67)">
	<stop  offset="0.2788" style="stop-color:#CBE9FF"/>
	<stop  offset="1" style="stop-color:#FFFFFF"/>
</linearGradient>
<path id="Wolke3-2" class="st0" d="M1108.1,773.2h-58.2C1038.8,736.3,998,709,949.5,709c-24.5,0-47,7-64.7,18.6
	c-18.8-61.7-87-107.3-168.2-107.3c-22.5-0.1-44.9,3.6-66.2,10.7c-11-69.6-83.7-123.4-171.9-123.4c-85.9,0-157.2,51.1-170.9,118.1
	c-9.8-1.4-19.7-2.1-29.5-2.1c-95.7,0-173.3,63.4-173.3,141.7c0,2.6,0.1,5.3,0.3,7.9H88.8c-49,0-88.8,32.5-88.8,72.5
	s39.8,72.5,88.8,72.5h1019.3c49,0,88.8-32.5,88.8-72.6S1157.1,773.2,1108.1,773.2z"/>
<linearGradient id="Wolke4-2_1_" gradientUnits="userSpaceOnUse" x1="2052.52" y1="791.75" x2="2052.52" y2="85.92" gradientTransform="matrix(1 0 0 1 -90.51 -86.67)">
	<stop  offset="0.3462" style="stop-color:#CBE9FF"/>
	<stop  offset="1" style="stop-color:#FFFFFF"/>
</linearGradient>
<path id="Wolke4-2" class="st1" d="M2377.9,184.6H2343c-11.9-21.4-37.9-36.2-68.1-36.2c-8.6,0-17.2,1.2-25.5,3.7
	c-16.1-24.1-47.1-40.4-82.7-40.4c-19.1-0.1-37.8,4.8-54.4,14.3c-20.5-35.2-64-59.5-114.3-59.5c-9.1,0-18.1,0.8-27,2.4
	C1948.7,28.2,1899.4,0,1842.1,0c-76.7,0-139.1,50.7-141.3,113.9c-14.8-5.3-30.4-7.9-46.1-7.9c-56.8,0-104.1,34-114,78.8
	c-37.5,2.3-67,28.2-67,59.9c0,33.2,32.4,60.1,72.4,60.1h831.7c40,0,72.4-26.9,72.4-60.1S2417.9,184.6,2377.9,184.6z"/>
</svg>
